NerdfontsNF-Regular.ufo
<glyph name="uni23FB" format="2">
  <advance width="1200"/>
  <unicode hex="23FB"/>
  <note>
uni23FB
</note>
  <outline>
    <contour>
      <point x="508" y="1239" type="curve" smooth="yes"/>
      <point x="508" y="630" type="line" smooth="yes"/>
      <point x="508" y="508"/>
      <point x="693" y="508"/>
      <point x="693" y="630" type="curve" smooth="yes"/>
      <point x="693" y="1239" type="line" smooth="yes"/>
      <point x="693" y="1291"/>
      <point x="652" y="1332"/>
      <point x="599" y="1332" type="curve" smooth="yes"/>
      <point x="549" y="1331"/>
      <point x="508" y="1289"/>
    </contour>
    <contour>
      <point x="600" y="88" type="curve" smooth="yes"/>
      <point x="927" y="88"/>
      <point x="1143" y="303"/>
      <point x="1143" y="631" type="curve" smooth="yes"/>
      <point x="1143" y="767"/>
      <point x="1091" y="896"/>
      <point x="1003" y="994" type="curve" smooth="yes"/>
      <point x="988" y="1012"/>
      <point x="957" y="1026"/>
      <point x="933" y="1026" type="curve" smooth="yes"/>
      <point x="882" y="1026"/>
      <point x="841" y="985"/>
      <point x="841" y="933" type="curve" smooth="yes"/>
      <point x="841" y="913"/>
      <point x="852" y="885"/>
      <point x="865" y="870" type="curve" smooth="yes"/>
      <point x="927" y="801"/>
      <point x="957" y="722"/>
      <point x="957" y="631" type="curve" smooth="yes"/>
      <point x="957" y="415"/>
      <point x="815" y="274"/>
      <point x="600" y="274" type="curve" smooth="yes"/>
      <point x="384" y="274"/>
      <point x="243" y="415"/>
      <point x="243" y="631" type="curve" smooth="yes"/>
      <point x="243" y="722"/>
      <point x="273" y="801"/>
      <point x="334" y="870" type="curve" smooth="yes"/>
      <point x="348" y="885"/>
      <point x="359" y="913"/>
      <point x="359" y="933" type="curve" smooth="yes"/>
      <point x="359" y="984"/>
      <point x="319" y="1025"/>
      <point x="268" y="1026" type="curve" smooth="yes"/>
      <point x="242" y="1026"/>
      <point x="212" y="1012"/>
      <point x="197" y="994" type="curve" smooth="yes"/>
      <point x="108" y="896"/>
      <point x="57" y="767"/>
      <point x="57" y="631" type="curve" smooth="yes"/>
      <point x="57" y="303"/>
      <point x="272" y="88"/>
    </contour>
  </outline>
</glyph>
<glyph name="uni23FC" format="2">
  <advance width="1200"/>
  <unicode hex="23FC"/>
  <note>
uni23FC
</note>
  <outline>
    <contour>
      <point x="599" y="111" type="curve" smooth="yes"/>
      <point x="961" y="111"/>
      <point x="1200" y="349"/>
      <point x="1200" y="711" type="curve" smooth="yes"/>
      <point x="1200" y="1072"/>
      <point x="961" y="1310"/>
      <point x="599" y="1310" type="curve" smooth="yes"/>
      <point x="237" y="1310"/>
      <point x="-1" y="1072"/>
      <point x="-1" y="711" type="curve" smooth="yes"/>
      <point x="-1" y="349"/>
      <point x="237" y="111"/>
    </contour>
    <contour>
      <point x="602" y="316" type="curve" smooth="yes"/>
      <point x="363" y="313"/>
      <point x="205" y="469"/>
      <point x="205" y="711" type="curve" smooth="yes"/>
      <point x="205" y="948"/>
      <point x="361" y="1105"/>
      <point x="599" y="1105" type="curve" smooth="yes"/>
      <point x="836" y="1105"/>
      <point x="993" y="948"/>
      <point x="993" y="711" type="curve" smooth="yes"/>
      <point x="993" y="476"/>
      <point x="838" y="319"/>
    </contour>
    <contour>
      <point x="599" y="419" type="curve" smooth="yes"/>
      <point x="660" y="419"/>
      <point x="701" y="460"/>
      <point x="701" y="522" type="curve" smooth="yes"/>
      <point x="701" y="897" type="line" smooth="yes"/>
      <point x="701" y="1032"/>
      <point x="496" y="1032"/>
      <point x="496" y="897" type="curve" smooth="yes"/>
      <point x="496" y="522" type="line" smooth="yes"/>
      <point x="496" y="460"/>
      <point x="537" y="419"/>
    </contour>
  </outline>
</glyph>
<glyph name="uni23FD" format="2">
  <advance width="1200"/>
  <unicode hex="23FD"/>
  <note>
uni23FD
</note>
  <outline>
    <contour>
      <point x="600" y="107" type="curve" smooth="yes"/>
      <point x="662" y="107"/>
      <point x="703" y="148"/>
      <point x="703" y="209" type="curve" smooth="yes"/>
      <point x="703" y="1210" type="line" smooth="yes"/>
      <point x="703" y="1272"/>
      <point x="661" y="1313"/>
      <point x="599" y="1313" type="curve" smooth="yes"/>
      <point x="538" y="1312"/>
      <point x="497" y="1271"/>
      <point x="497" y="1210" type="curve" smooth="yes"/>
      <point x="497" y="209" type="line" smooth="yes"/>
      <point x="497" y="148"/>
      <point x="538" y="107"/>
    </contour>
  </outline>
</glyph>
<glyph name="uni23FE" format="2">
  <advance width="1200"/>
  <unicode hex="23FE"/>
  <note>
uni23FE
</note>
  <outline>
    <contour>
      <point x="782" y="127" type="curve" smooth="yes"/>
      <point x="859" y="127"/>
      <point x="956" y="147"/>
      <point x="1025" y="177" type="curve"/>
      <point x="673" y="262"/>
      <point x="441" y="557"/>
      <point x="441" y="920" type="curve" smooth="yes"/>
      <point x="441" y="1040"/>
      <point x="481" y="1188"/>
      <point x="541" y="1293" type="curve"/>
      <point x="320" y="1198"/>
      <point x="175" y="976"/>
      <point x="175" y="736" type="curve" smooth="yes"/>
      <point x="175" y="369"/>
      <point x="416" y="127"/>
    </contour>
  </outline>
</glyph>
<glyph name="heartBlackSuit" format="2">
  <advance width="1200"/>
  <unicode hex="2665"/>
  <note>
heart
</note>
  <outline>
    <contour>
      <point x="600" y="205" type="curve"/>
      <point x="917" y="463"/>
      <point x="1151" y="655"/>
      <point x="1151" y="940" type="curve" smooth="yes"/>
      <point x="1151" y="1083"/>
      <point x="1060" y="1215"/>
      <point x="876" y="1215" type="curve" smooth="yes"/>
      <point x="795" y="1215"/>
      <point x="727" y="1184"/>
      <point x="677" y="1124" type="curve"/>
      <point x="626" y="1072"/>
      <point x="600" y="1042"/>
      <point x="600" y="1032" type="curve"/>
      <point x="600" y="1042"/>
      <point x="574" y="1072"/>
      <point x="523" y="1124" type="curve"/>
      <point x="473" y="1184"/>
      <point x="406" y="1215"/>
      <point x="324" y="1215" type="curve" smooth="yes"/>
      <point x="140" y="1215"/>
      <point x="49" y="1083"/>
      <point x="49" y="940" type="curve" smooth="yes"/>
      <point x="49" y="652"/>
      <point x="284" y="450"/>
    </contour>
  </outline>
</glyph>
<glyph name="highVoltageSign" format="2">
  <advance width="1200"/>
  <unicode hex="26A1"/>
  <note>
uni26A1
</note>
  <outline>
    <contour>
      <point x="519" y="629" type="line"/>
      <point x="276" y="63" type="line"/>
      <point x="1004" y="791" type="line"/>
      <point x="681" y="791" type="line"/>
      <point x="923" y="1357" type="line"/>
      <point x="196" y="629" type="line"/>
    </contour>
  </outline>
</glyph>
<glyph name="heavyCircle" format="2">
  <advance width="1200"/>
  <unicode hex="2B58"/>
  <note>
uni2B58
</note>
  <outline>
    <contour>
      <point x="582" y="131" type="curve" smooth="yes"/>
      <point x="922" y="131"/>
      <point x="1179" y="380"/>
      <point x="1179" y="711" type="curve" smooth="yes"/>
      <point x="1179" y="1041"/>
      <point x="930" y="1290"/>
      <point x="600" y="1290" type="curve" smooth="yes"/>
      <point x="269" y="1290"/>
      <point x="21" y="1041"/>
      <point x="21" y="711" type="curve" smooth="yes"/>
      <point x="21" y="380"/>
      <point x="262" y="131"/>
    </contour>
    <contour>
      <point x="600" y="330" type="curve" smooth="yes"/>
      <point x="383" y="330"/>
      <point x="219" y="493"/>
      <point x="219" y="711" type="curve" smooth="yes"/>
      <point x="219" y="928"/>
      <point x="383" y="1092"/>
      <point x="600" y="1092" type="curve" smooth="yes"/>
      <point x="817" y="1092"/>
      <point x="981" y="928"/>
      <point x="981" y="711" type="curve" smooth="yes"/>
      <point x="981" y="493"/>
      <point x="817" y="330"/>
    </contour>
  </outline>
</glyph>
<glyph name="uniE000" format="2">
  <advance width="1200"/>
  <unicode hex="E000"/>
  <note>
uniE000
</note>
  <outline>
    <contour>
      <point x="231" y="187" type="curve"/>
      <point x="357" y="187" type="line"/>
      <point x="357" y="358"/>
      <point x="375" y="596"/>
      <point x="392" y="756" type="curve"/>
      <point x="458" y="760"/>
      <point x="533" y="762"/>
      <point x="614" y="762" type="curve" smooth="yes"/>
      <point x="718" y="762"/>
      <point x="810" y="760"/>
      <point x="890" y="754" type="curve"/>
      <point x="888" y="766"/>
      <point x="880" y="836"/>
      <point x="876" y="853" type="curve"/>
      <point x="823" y="857"/>
      <point x="763" y="859"/>
      <point x="697" y="859" type="curve"/>
      <point x="697" y="953" type="line"/>
      <point x="577" y="953" type="line"/>
      <point x="577" y="858" type="line"/>
      <point x="493" y="858"/>
      <point x="434" y="856"/>
      <point x="403" y="853" type="curve"/>
      <point x="403" y="864"/>
      <point x="423" y="981"/>
      <point x="428" y="1004" type="curve"/>
      <point x="855" y="1004" type="line"/>
      <point x="826" y="1139" type="line"/>
      <point x="453" y="1139" type="line"/>
      <point x="458" y="1167"/>
      <point x="478" y="1233"/>
      <point x="478" y="1233" type="curve"/>
      <point x="348" y="1223" type="line"/>
      <point x="272" y="914"/>
      <point x="243" y="596"/>
    </contour>
    <contour>
      <point x="953" y="187" type="curve"/>
      <point x="1080" y="187" type="line"/>
      <point x="1072" y="382"/>
      <point x="1057" y="566"/>
      <point x="1033" y="742" type="curve"/>
      <point x="1080" y="742"/>
      <point x="1123" y="737"/>
      <point x="1161" y="726" type="curve"/>
      <point x="1161" y="831" type="line"/>
      <point x="1147" y="833"/>
      <point x="1065" y="843"/>
      <point x="1025" y="846" type="curve"/>
      <point x="1003" y="1000" type="line"/>
      <point x="1149" y="1000" type="line"/>
      <point x="1176" y="1053"/>
      <point x="1189" y="1099"/>
      <point x="1191" y="1139" type="curve"/>
      <point x="979" y="1139" type="line"/>
      <point x="964" y="1223" type="line"/>
      <point x="833" y="1233" type="line"/>
      <point x="899" y="1006"/>
      <point x="953" y="552"/>
    </contour>
    <contour>
      <point x="53" y="1000" type="curve"/>
      <point x="273" y="1000" type="line"/>
      <point x="298" y="1139" type="line"/>
      <point x="9" y="1139" type="line"/>
      <point x="14" y="1092"/>
      <point x="29" y="1046"/>
    </contour>
    <contour>
      <point x="59" y="825" type="curve"/>
      <point x="59" y="727" type="line"/>
      <point x="98" y="730"/>
      <point x="185" y="745"/>
      <point x="234" y="747" type="curve"/>
      <point x="234" y="767"/>
      <point x="238" y="800"/>
      <point x="248" y="846" type="curve"/>
      <point x="159" y="840"/>
      <point x="96" y="834"/>
    </contour>
  </outline>
</glyph>
<glyph name="uniE001" format="2">
  <advance width="1200"/>
  <unicode hex="E001"/>
  <note>
uniE001
</note>
  <outline>
    <contour>
      <point x="599" y="109" type="curve" smooth="yes"/>
      <point x="937" y="109"/>
      <point x="1172" y="329"/>
      <point x="1172" y="672" type="curve" smooth="yes"/>
      <point x="1172" y="884"/>
      <point x="1031" y="1029"/>
      <point x="846" y="1029" type="curve" smooth="yes"/>
      <point x="823" y="1029"/>
      <point x="809" y="1026"/>
      <point x="779" y="1017" type="curve"/>
      <point x="800" y="1054"/>
      <point x="823" y="1085"/>
      <point x="847" y="1109" type="curve"/>
      <point x="1094" y="1064" type="line"/>
      <point x="1066" y="1152"/>
      <point x="954" y="1191"/>
      <point x="839" y="1191" type="curve" smooth="yes"/>
      <point x="770" y="1191"/>
      <point x="695" y="1154"/>
      <point x="662" y="1099" type="curve"/>
      <point x="651" y="941" type="line"/>
      <point x="636" y="941" type="line"/>
      <point x="583" y="1311" type="line"/>
      <point x="464" y="1291" type="line"/>
      <point x="521" y="1102" type="line"/>
      <point x="463" y="1167"/>
      <point x="392" y="1200"/>
      <point x="311" y="1200" type="curve" smooth="yes"/>
      <point x="221" y="1200"/>
      <point x="155" y="1179"/>
      <point x="113" y="1137" type="curve" smooth="yes"/>
      <point x="94" y="1118"/>
      <point x="82" y="1097"/>
      <point x="78" y="1076" type="curve"/>
      <point x="249" y="1122" type="line"/>
      <point x="296" y="1122"/>
      <point x="348" y="1092"/>
      <point x="404" y="1032" type="curve"/>
      <point x="377" y="1034"/>
      <point x="360" y="1035"/>
      <point x="353" y="1035" type="curve" smooth="yes"/>
      <point x="168" y="1035"/>
      <point x="27" y="879"/>
      <point x="27" y="657" type="curve" smooth="yes"/>
      <point x="27" y="332"/>
      <point x="263" y="109"/>
    </contour>
    <contour>
      <point x="991" y="501" type="curve"/>
      <point x="927" y="481" type="line"/>
      <point x="925" y="527"/>
      <point x="919" y="572"/>
      <point x="906" y="615" type="curve" smooth="yes"/>
      <point x="880" y="707"/>
      <point x="833" y="771"/>
      <point x="764" y="808" type="curve"/>
      <point x="800" y="898" type="line"/>
      <point x="922" y="898"/>
      <point x="1008" y="783"/>
      <point x="1008" y="630" type="curve" smooth="yes"/>
      <point x="1008" y="549"/>
      <point x="991" y="511"/>
    </contour>
  </outline>
</glyph>
<glyph name="uniE002" format="2">
  <advance width="1200"/>
  <unicode hex="E002"/>
  <note>
uniE002
</note>
  <outline>
    <contour>
      <point x="599" y="109" type="curve" smooth="yes"/>
      <point x="718" y="109"/>
      <point x="828" y="136"/>
      <point x="927" y="197" type="curve" smooth="yes"/>
      <point x="975" y="227"/>
      <point x="1018" y="264"/>
      <point x="1055" y="307" type="curve" smooth="yes"/>
      <point x="1127" y="394"/>
      <point x="1172" y="522"/>
      <point x="1172" y="672" type="curve" smooth="yes"/>
      <point x="1172" y="884"/>
      <point x="1031" y="1029"/>
      <point x="846" y="1029" type="curve" smooth="yes"/>
      <point x="826" y="1029"/>
      <point x="810" y="1026"/>
      <point x="800" y="1023" type="curve" smooth="yes"/>
      <point x="779" y="1017" type="line"/>
      <point x="800" y="1054"/>
      <point x="823" y="1085"/>
      <point x="847" y="1109" type="curve"/>
      <point x="1094" y="1064" type="line"/>
      <point x="1087" y="1086"/>
      <point x="1073" y="1107"/>
      <point x="1051" y="1127" type="curve" smooth="yes"/>
      <point x="1004" y="1169"/>
      <point x="934" y="1191"/>
      <point x="839" y="1191" type="curve" smooth="yes"/>
      <point x="789" y="1191"/>
      <point x="744" y="1176"/>
      <point x="706" y="1145" type="curve" smooth="yes"/>
      <point x="687" y="1132"/>
      <point x="672" y="1116"/>
      <point x="662" y="1099" type="curve"/>
      <point x="651" y="941" type="line"/>
      <point x="636" y="941" type="line"/>
      <point x="583" y="1311" type="line"/>
      <point x="464" y="1291" type="line"/>
      <point x="521" y="1102" type="line"/>
      <point x="463" y="1167"/>
      <point x="392" y="1200"/>
      <point x="311" y="1200" type="curve" smooth="yes"/>
      <point x="221" y="1200"/>
      <point x="155" y="1179"/>
      <point x="113" y="1137" type="curve" smooth="yes"/>
      <point x="94" y="1118"/>
      <point x="82" y="1097"/>
      <point x="78" y="1076" type="curve"/>
      <point x="249" y="1122" type="line"/>
      <point x="296" y="1122"/>
      <point x="348" y="1092"/>
      <point x="404" y="1032" type="curve"/>
      <point x="377" y="1034"/>
      <point x="360" y="1035"/>
      <point x="353" y="1035" type="curve" smooth="yes"/>
      <point x="168" y="1035"/>
      <point x="27" y="879"/>
      <point x="27" y="657" type="curve" smooth="yes"/>
      <point x="27" y="505"/>
      <point x="82" y="368"/>
      <point x="179" y="269" type="curve" smooth="yes"/>
      <point x="276" y="169"/>
      <point x="425" y="109"/>
    </contour>
    <contour>
      <point x="602" y="216" type="curve" smooth="yes"/>
      <point x="446" y="216"/>
      <point x="296" y="305"/>
      <point x="211" y="446" type="curve" smooth="yes"/>
      <point x="168" y="517"/>
      <point x="147" y="592"/>
      <point x="147" y="673" type="curve" smooth="yes"/>
      <point x="147" y="822"/>
      <point x="231" y="916"/>
      <point x="363" y="916" type="curve" smooth="yes"/>
      <point x="424" y="916"/>
      <point x="484" y="897"/>
      <point x="544" y="857" type="curve"/>
      <point x="660" y="857" type="line"/>
      <point x="718" y="897"/>
      <point x="778" y="916"/>
      <point x="841" y="916" type="curve" smooth="yes"/>
      <point x="974" y="916"/>
      <point x="1059" y="822"/>
      <point x="1059" y="673" type="curve" smooth="yes"/>
      <point x="1059" y="515"/>
      <point x="965" y="364"/>
      <point x="824" y="280" type="curve" smooth="yes"/>
      <point x="754" y="237"/>
      <point x="680" y="216"/>
    </contour>
  </outline>
</glyph>
<glyph name="uniE004" format="2">
  <advance width="1200"/>
  <unicode hex="E004"/>
  <note>
uniE004
</note>
  <outline>
    <contour>
      <point x="599" y="109" type="curve" smooth="yes"/>
      <point x="718" y="109"/>
      <point x="828" y="136"/>
      <point x="927" y="197" type="curve" smooth="yes"/>
      <point x="975" y="227"/>
      <point x="1018" y="264"/>
      <point x="1055" y="307" type="curve" smooth="yes"/>
      <point x="1127" y="394"/>
      <point x="1172" y="522"/>
      <point x="1172" y="672" type="curve" smooth="yes"/>
      <point x="1172" y="884"/>
      <point x="1031" y="1029"/>
      <point x="846" y="1029" type="curve" smooth="yes"/>
      <point x="826" y="1029"/>
      <point x="810" y="1026"/>
      <point x="800" y="1023" type="curve" smooth="yes"/>
      <point x="779" y="1017" type="line"/>
      <point x="800" y="1054"/>
      <point x="823" y="1085"/>
      <point x="847" y="1109" type="curve"/>
      <point x="1094" y="1064" type="line"/>
      <point x="1087" y="1086"/>
      <point x="1073" y="1107"/>
      <point x="1051" y="1127" type="curve" smooth="yes"/>
      <point x="1004" y="1169"/>
      <point x="934" y="1191"/>
      <point x="839" y="1191" type="curve" smooth="yes"/>
      <point x="789" y="1191"/>
      <point x="744" y="1176"/>
      <point x="706" y="1145" type="curve" smooth="yes"/>
      <point x="687" y="1132"/>
      <point x="672" y="1116"/>
      <point x="662" y="1099" type="curve"/>
      <point x="651" y="941" type="line"/>
      <point x="636" y="941" type="line"/>
      <point x="583" y="1311" type="line"/>
      <point x="464" y="1291" type="line"/>
      <point x="521" y="1102" type="line"/>
      <point x="463" y="1167"/>
      <point x="392" y="1200"/>
      <point x="311" y="1200" type="curve" smooth="yes"/>
      <point x="221" y="1200"/>
      <point x="155" y="1179"/>
      <point x="113" y="1137" type="curve" smooth="yes"/>
      <point x="94" y="1118"/>
      <point x="82" y="1097"/>
      <point x="78" y="1076" type="curve"/>
      <point x="249" y="1122" type="line"/>
      <point x="296" y="1122"/>
      <point x="348" y="1092"/>
      <point x="404" y="1032" type="curve"/>
      <point x="377" y="1034"/>
      <point x="360" y="1035"/>
      <point x="353" y="1035" type="curve" smooth="yes"/>
      <point x="168" y="1035"/>
      <point x="27" y="879"/>
      <point x="27" y="657" type="curve" smooth="yes"/>
      <point x="27" y="505"/>
      <point x="82" y="368"/>
      <point x="179" y="269" type="curve" smooth="yes"/>
      <point x="276" y="169"/>
      <point x="425" y="109"/>
    </contour>
    <contour>
      <point x="1045" y="569" type="curve"/>
      <point x="160" y="569" type="line"/>
      <point x="151" y="599"/>
      <point x="147" y="635"/>
      <point x="147" y="678" type="curve" smooth="yes"/>
      <point x="147" y="825"/>
      <point x="231" y="922"/>
      <point x="363" y="922" type="curve" smooth="yes"/>
      <point x="421" y="922"/>
      <point x="481" y="901"/>
      <point x="544" y="862" type="curve"/>
      <point x="660" y="862" type="line"/>
      <point x="721" y="901"/>
      <point x="781" y="922"/>
      <point x="841" y="922" type="curve" smooth="yes"/>
      <point x="974" y="922"/>
      <point x="1059" y="825"/>
      <point x="1059" y="678" type="curve" smooth="yes"/>
      <point x="1059" y="648"/>
      <point x="1054" y="612"/>
    </contour>
  </outline>
</glyph>
<glyph name="uniE005" format="2">
  <advance width="1200"/>
  <unicode hex="E005"/>
  <note>
uniE005
</note>
  <outline>
    <contour>
      <point x="530" y="1059" type="curve" smooth="yes"/>
      <point x="532" y="1055"/>
      <point x="533" y="1049"/>
      <point x="533" y="1044" type="curve" smooth="yes"/>
      <point x="533" y="1026"/>
      <point x="525" y="1004"/>
      <point x="510" y="973" type="curve"/>
      <point x="510" y="973"/>
      <point x="571" y="1018"/>
      <point x="582" y="1027" type="curve" smooth="yes"/>
      <point x="597" y="1042"/>
      <point x="609" y="1064"/>
      <point x="609" y="1090" type="curve" smooth="yes"/>
      <point x="609" y="1113"/>
      <point x="600" y="1139"/>
      <point x="576" y="1168" type="curve" smooth="yes"/>
      <point x="554" y="1194"/>
      <point x="544" y="1220"/>
      <point x="544" y="1247" type="curve" smooth="yes"/>
      <point x="544" y="1253"/>
      <point x="544" y="1259"/>
      <point x="545" y="1265" type="curve" smooth="yes"/>
      <point x="549" y="1281"/>
      <point x="553" y="1294"/>
      <point x="560" y="1304" type="curve"/>
      <point x="535" y="1290"/>
      <point x="515" y="1275"/>
      <point x="499" y="1260" type="curve" smooth="yes"/>
      <point x="474" y="1235"/>
      <point x="461" y="1211"/>
      <point x="461" y="1189" type="curve" smooth="yes"/>
      <point x="461" y="1177"/>
      <point x="464" y="1165"/>
      <point x="471" y="1154" type="curve" smooth="yes"/>
      <point x="494" y="1114"/>
      <point x="521" y="1092"/>
    </contour>
    <contour>
      <point x="384" y="1001" type="curve" smooth="yes"/>
      <point x="390" y="993"/>
      <point x="393" y="983"/>
      <point x="397" y="971" type="curve" smooth="yes"/>
      <point x="399" y="966"/>
      <point x="399" y="961"/>
      <point x="399" y="955" type="curve" smooth="yes"/>
      <point x="399" y="935"/>
      <point x="390" y="910"/>
      <point x="372" y="874" type="curve"/>
      <point x="374" y="877"/>
      <point x="462" y="943"/>
      <point x="473" y="956" type="curve" smooth="yes"/>
      <point x="482" y="969"/>
      <point x="487" y="986"/>
      <point x="487" y="1004" type="curve" smooth="yes"/>
      <point x="487" y="1032"/>
      <point x="476" y="1064"/>
      <point x="450" y="1096" type="curve" smooth="yes"/>
      <point x="425" y="1126"/>
      <point x="412" y="1157"/>
      <point x="412" y="1189" type="curve" smooth="yes"/>
      <point x="412" y="1195"/>
      <point x="413" y="1201"/>
      <point x="413" y="1208" type="curve" smooth="yes"/>
      <point x="416" y="1224"/>
      <point x="422" y="1239"/>
      <point x="431" y="1253" type="curve"/>
      <point x="405" y="1239"/>
      <point x="381" y="1222"/>
      <point x="361" y="1202" type="curve" smooth="yes"/>
      <point x="333" y="1175"/>
      <point x="318" y="1148"/>
      <point x="318" y="1121" type="curve" smooth="yes"/>
      <point x="318" y="1108"/>
      <point x="321" y="1095"/>
      <point x="329" y="1082" type="curve" smooth="yes"/>
      <point x="345" y="1053"/>
      <point x="372" y="1020"/>
    </contour>
    <contour>
      <point x="372" y="874" type="curve"/>
      <point x="372" y="874"/>
      <point x="372" y="874"/>
    </contour>
    <contour>
      <point x="1003" y="769" type="curve" smooth="yes"/>
      <point x="937" y="769"/>
      <point x="878" y="736"/>
      <point x="842" y="683" type="curve"/>
      <point x="842" y="799" type="line" smooth="yes"/>
      <point x="842" y="822"/>
      <point x="830" y="834"/>
      <point x="804" y="834" type="curve" smooth="yes"/>
      <point x="38" y="834" type="line" smooth="yes"/>
      <point x="12" y="834"/>
      <point x="-1" y="822"/>
      <point x="-1" y="799" type="curve" smooth="yes"/>
      <point x="-1" y="521" type="line" smooth="yes"/>
      <point x="-1" y="373"/>
      <point x="83" y="241"/>
      <point x="213" y="170" type="curve" smooth="yes"/>
      <point x="277" y="135"/>
      <point x="347" y="117"/>
      <point x="422" y="117" type="curve" smooth="yes"/>
      <point x="631" y="117"/>
      <point x="806" y="267"/>
      <point x="838" y="468" type="curve"/>
      <point x="874" y="412"/>
      <point x="935" y="379"/>
      <point x="1003" y="379" type="curve" smooth="yes"/>
      <point x="1110" y="379"/>
      <point x="1200" y="465"/>
      <point x="1200" y="572" type="curve" smooth="yes"/>
      <point x="1200" y="680"/>
      <point x="1110" y="769"/>
    </contour>
    <contour>
      <point x="1003" y="503" type="curve" smooth="yes"/>
      <point x="964" y="503"/>
      <point x="930" y="534"/>
      <point x="930" y="572" type="curve" smooth="yes"/>
      <point x="930" y="617"/>
      <point x="964" y="639"/>
      <point x="1000" y="639" type="curve" smooth="yes"/>
      <point x="1035" y="639"/>
      <point x="1071" y="617"/>
      <point x="1071" y="572" type="curve" smooth="yes"/>
      <point x="1071" y="534"/>
      <point x="1042" y="503"/>
    </contour>
  </outline>
</glyph>
<glyph name="uniE006" format="2">
  <advance width="1200"/>
  <unicode hex="E006"/>
  <note>
uniE006
</note>
  <outline>
    <contour>
      <point x="516" y="115" type="curve" smooth="yes"/>
      <point x="670" y="115"/>
      <point x="796" y="140"/>
      <point x="894" y="191" type="curve" smooth="yes"/>
      <point x="937" y="214"/>
      <point x="971" y="240"/>
      <point x="996" y="267" type="curve"/>
      <point x="977" y="296"/>
      <point x="955" y="321"/>
      <point x="930" y="342" type="curve" smooth="yes"/>
      <point x="871" y="394"/>
      <point x="792" y="427"/>
      <point x="692" y="442" type="curve"/>
      <point x="638" y="294" type="line"/>
      <point x="617" y="293" type="line"/>
      <point x="617" y="301"/>
      <point x="617" y="311"/>
      <point x="617" y="323" type="curve" smooth="yes"/>
      <point x="616" y="336"/>
      <point x="616" y="346"/>
      <point x="616" y="353" type="curve" smooth="yes"/>
      <point x="616" y="403"/>
      <point x="618" y="454"/>
      <point x="624" y="505" type="curve" smooth="yes"/>
      <point x="627" y="532"/>
      <point x="630" y="555"/>
      <point x="633" y="576" type="curve" smooth="yes"/>
      <point x="638" y="619"/>
      <point x="650" y="678"/>
      <point x="656" y="710" type="curve" smooth="yes"/>
      <point x="662" y="746"/>
      <point x="674" y="792"/>
      <point x="680" y="820" type="curve" smooth="yes"/>
      <point x="684" y="838"/>
      <point x="699" y="889"/>
      <point x="699" y="896" type="curve"/>
      <point x="802" y="797"/>
      <point x="872" y="692"/>
      <point x="907" y="579" type="curve"/>
      <point x="919" y="579" type="line"/>
      <point x="951" y="627"/>
      <point x="967" y="678"/>
      <point x="967" y="728" type="curve" smooth="yes"/>
      <point x="967" y="786"/>
      <point x="948" y="841"/>
      <point x="912" y="893" type="curve" smooth="yes"/>
      <point x="894" y="916"/>
      <point x="876" y="937"/>
      <point x="856" y="957" type="curve"/>
      <point x="915" y="949"/>
      <point x="976" y="892"/>
      <point x="1016" y="826" type="curve" smooth="yes"/>
      <point x="1036" y="795"/>
      <point x="1055" y="755"/>
      <point x="1074" y="707" type="curve"/>
      <point x="1090" y="707" type="line"/>
      <point x="1111" y="761"/>
      <point x="1122" y="810"/>
      <point x="1122" y="857" type="curve" smooth="yes"/>
      <point x="1122" y="941"/>
      <point x="1085" y="1011"/>
      <point x="1013" y="1067" type="curve" smooth="yes"/>
      <point x="978" y="1093"/>
      <point x="942" y="1112"/>
      <point x="906" y="1125" type="curve"/>
      <point x="953" y="1131"/>
      <point x="982" y="1134"/>
      <point x="995" y="1134" type="curve" smooth="yes"/>
      <point x="1063" y="1134"/>
      <point x="1117" y="1121"/>
      <point x="1157" y="1094" type="curve"/>
      <point x="1166" y="1101" type="line"/>
      <point x="1114" y="1207"/>
      <point x="1031" y="1260"/>
      <point x="913" y="1260" type="curve" smooth="yes"/>
      <point x="873" y="1260"/>
      <point x="830" y="1252"/>
      <point x="781" y="1237" type="curve" smooth="yes"/>
      <point x="766" y="1234"/>
      <point x="748" y="1226"/>
      <point x="726" y="1216" type="curve"/>
      <point x="638" y="1276"/>
      <point x="552" y="1305"/>
      <point x="468" y="1305" type="curve" smooth="yes"/>
      <point x="389" y="1305"/>
      <point x="313" y="1275"/>
      <point x="239" y="1215" type="curve" smooth="yes"/>
      <point x="209" y="1190"/>
      <point x="184" y="1160"/>
      <point x="161" y="1127" type="curve"/>
      <point x="168" y="1115" type="line"/>
      <point x="228" y="1147"/>
      <point x="285" y="1163"/>
      <point x="338" y="1163" type="curve" smooth="yes"/>
      <point x="378" y="1163"/>
      <point x="418" y="1154"/>
      <point x="461" y="1137" type="curve" smooth="yes"/>
      <point x="479" y="1129"/>
      <point x="495" y="1121"/>
      <point x="507" y="1112" type="curve"/>
      <point x="399" y="1103"/>
      <point x="306" y="1053"/>
      <point x="255" y="999" type="curve" smooth="yes"/>
      <point x="229" y="971"/>
      <point x="207" y="942"/>
      <point x="190" y="910" type="curve" smooth="yes"/>
      <point x="155" y="847"/>
      <point x="145" y="803"/>
      <point x="145" y="776" type="curve"/>
      <point x="158" y="776" type="line"/>
      <point x="290" y="882"/>
      <point x="442" y="925"/>
      <point x="568" y="935" type="curve"/>
      <point x="488" y="779"/>
      <point x="435" y="617"/>
      <point x="412" y="451" type="curve"/>
      <point x="293" y="445"/>
      <point x="194" y="413"/>
      <point x="116" y="356" type="curve" smooth="yes"/>
      <point x="81" y="329"/>
      <point x="54" y="300"/>
      <point x="34" y="267" type="curve"/>
      <point x="57" y="240"/>
      <point x="91" y="214"/>
      <point x="136" y="191" type="curve" smooth="yes"/>
      <point x="236" y="140"/>
      <point x="363" y="115"/>
    </contour>
  </outline>
</glyph>
<glyph name="uniE007" format="2">
  <advance width="1200"/>
  <unicode hex="E007"/>
  <note>
uniE007
</note>
  <outline>
    <contour>
      <point x="647" y="106" type="curve" smooth="yes"/>
      <point x="716" y="106"/>
      <point x="759" y="150"/>
      <point x="759" y="213" type="curve" smooth="yes"/>
      <point x="759" y="224"/>
      <point x="757" y="237"/>
      <point x="751" y="255" type="curve" smooth="yes"/>
      <point x="746" y="272"/>
      <point x="743" y="284"/>
      <point x="743" y="293" type="curve" smooth="yes"/>
      <point x="743" y="329"/>
      <point x="793" y="353"/>
      <point x="867" y="353" type="curve" smooth="yes"/>
      <point x="948" y="353"/>
      <point x="1010" y="382"/>
      <point x="1010" y="439" type="curve" smooth="yes"/>
      <point x="1010" y="453"/>
      <point x="1004" y="471"/>
      <point x="992" y="492" type="curve" smooth="yes"/>
      <point x="981" y="512"/>
      <point x="975" y="528"/>
      <point x="975" y="538" type="curve" smooth="yes"/>
      <point x="975" y="576"/>
      <point x="1042" y="592"/>
      <point x="1087" y="612" type="curve" smooth="yes"/>
      <point x="1120" y="626"/>
      <point x="1148" y="655"/>
      <point x="1148" y="695" type="curve" smooth="yes"/>
      <point x="1148" y="739"/>
      <point x="1109" y="770"/>
      <point x="1039" y="770" type="curve" smooth="yes"/>
      <point x="946" y="770"/>
      <point x="868" y="788"/>
      <point x="784" y="837" type="curve" smooth="yes"/>
      <point x="701" y="885"/>
      <point x="623" y="979"/>
      <point x="562" y="1112" type="curve" smooth="yes"/>
      <point x="499" y="1246"/>
      <point x="419" y="1314"/>
      <point x="322" y="1314" type="curve" smooth="yes"/>
      <point x="176" y="1314"/>
      <point x="52" y="1153"/>
      <point x="52" y="928" type="curve" smooth="yes"/>
      <point x="52" y="828"/>
      <point x="83" y="702"/>
      <point x="135" y="581" type="curve" smooth="yes"/>
      <point x="160" y="520"/>
      <point x="191" y="461"/>
      <point x="229" y="404" type="curve" smooth="yes"/>
      <point x="304" y="289"/>
      <point x="387" y="199"/>
      <point x="491" y="145" type="curve" smooth="yes"/>
      <point x="543" y="119"/>
      <point x="595" y="106"/>
    </contour>
    <contour>
      <point x="442" y="865" type="curve" smooth="yes"/>
      <point x="409" y="865"/>
      <point x="376" y="897"/>
      <point x="376" y="960" type="curve" smooth="yes"/>
      <point x="376" y="1023"/>
      <point x="409" y="1056"/>
      <point x="442" y="1056" type="curve" smooth="yes"/>
      <point x="474" y="1056"/>
      <point x="507" y="1023"/>
      <point x="507" y="960" type="curve" smooth="yes"/>
      <point x="507" y="897"/>
      <point x="474" y="865"/>
    </contour>
    <contour>
      <point x="212" y="796" type="curve" smooth="yes"/>
      <point x="177" y="796"/>
      <point x="152" y="844"/>
      <point x="152" y="910" type="curve" smooth="yes"/>
      <point x="152" y="989"/>
      <point x="183" y="1028"/>
      <point x="214" y="1028" type="curve" smooth="yes"/>
      <point x="245" y="1028"/>
      <point x="277" y="989"/>
      <point x="277" y="910" type="curve" smooth="yes"/>
      <point x="277" y="845"/>
      <point x="248" y="796"/>
    </contour>
  </outline>
</glyph>
<glyph name="uniE008" format="2">
  <advance width="1200"/>
  <unicode hex="E008"/>
  <note>
uniE008
</note>
  <outline>
    <contour>
      <point x="591" y="90" type="curve" smooth="yes"/>
      <point x="597" y="90"/>
      <point x="606" y="90"/>
      <point x="615" y="90" type="curve" smooth="yes"/>
      <point x="625" y="91"/>
      <point x="633" y="91"/>
      <point x="639" y="91" type="curve"/>
      <point x="639" y="313" type="line" smooth="yes"/>
      <point x="639" y="370"/>
      <point x="627" y="400"/>
      <point x="604" y="400" type="curve" smooth="yes"/>
      <point x="588" y="400"/>
      <point x="569" y="392"/>
      <point x="544" y="376" type="curve" smooth="yes"/>
      <point x="520" y="361"/>
      <point x="495" y="353"/>
      <point x="470" y="353" type="curve" smooth="yes"/>
      <point x="401" y="353"/>
      <point x="343" y="414"/>
      <point x="319" y="482" type="curve" smooth="yes"/>
      <point x="306" y="516"/>
      <point x="300" y="549"/>
      <point x="300" y="582" type="curve" smooth="yes"/>
      <point x="300" y="698"/>
      <point x="374" y="808"/>
      <point x="475" y="808" type="curve" smooth="yes"/>
      <point x="493" y="808"/>
      <point x="516" y="801"/>
      <point x="544" y="786" type="curve" smooth="yes"/>
      <point x="571" y="771"/>
      <point x="591" y="763"/>
      <point x="606" y="763" type="curve" smooth="yes"/>
      <point x="628" y="763"/>
      <point x="639" y="781"/>
      <point x="639" y="817" type="curve" smooth="yes"/>
      <point x="639" y="1132" type="line" smooth="yes"/>
      <point x="639" y="1168"/>
      <point x="634" y="1214"/>
      <point x="624" y="1268" type="curve" smooth="yes"/>
      <point x="619" y="1292"/>
      <point x="614" y="1313"/>
      <point x="609" y="1331" type="curve"/>
      <point x="483" y="1308" type="line"/>
      <point x="543" y="1109" type="line"/>
      <point x="481" y="1178"/>
      <point x="407" y="1213"/>
      <point x="320" y="1213" type="curve" smooth="yes"/>
      <point x="229" y="1213"/>
      <point x="159" y="1191"/>
      <point x="112" y="1147" type="curve" smooth="yes"/>
      <point x="92" y="1129"/>
      <point x="79" y="1107"/>
      <point x="73" y="1082" type="curve"/>
      <point x="255" y="1132" type="line"/>
      <point x="305" y="1132"/>
      <point x="360" y="1099"/>
      <point x="419" y="1034" type="curve"/>
      <point x="392" y="1037"/>
      <point x="374" y="1037"/>
      <point x="365" y="1037" type="curve" smooth="yes"/>
      <point x="270" y="1037"/>
      <point x="183" y="996"/>
      <point x="121" y="927" type="curve" smooth="yes"/>
      <point x="58" y="858"/>
      <point x="20" y="755"/>
      <point x="20" y="639" type="curve" smooth="yes"/>
      <point x="20" y="477"/>
      <point x="75" y="340"/>
      <point x="172" y="243" type="curve" smooth="yes"/>
      <point x="270" y="147"/>
      <point x="417" y="90"/>
    </contour>
    <contour>
      <point x="726" y="367" type="curve" smooth="yes"/>
      <point x="726" y="106" type="line"/>
      <point x="893" y="150"/>
      <point x="1037" y="262"/>
      <point x="1119" y="423" type="curve" smooth="yes"/>
      <point x="1160" y="503"/>
      <point x="1181" y="588"/>
      <point x="1181" y="678" type="curve" smooth="yes"/>
      <point x="1181" y="900"/>
      <point x="1037" y="1043"/>
      <point x="843" y="1043" type="curve" smooth="yes"/>
      <point x="814" y="1043" type="line"/>
      <point x="831" y="1076"/>
      <point x="851" y="1100"/>
      <point x="874" y="1124" type="curve"/>
      <point x="1119" y="1079" type="line"/>
      <point x="1115" y="1103"/>
      <point x="1103" y="1125"/>
      <point x="1086" y="1145" type="curve" smooth="yes"/>
      <point x="1046" y="1190"/>
      <point x="981" y="1213"/>
      <point x="891" y="1213" type="curve" smooth="yes"/>
      <point x="832" y="1213"/>
      <point x="777" y="1195"/>
      <point x="726" y="1160" type="curve"/>
      <point x="726" y="796" type="line" smooth="yes"/>
      <point x="726" y="727"/>
      <point x="684" y="674"/>
      <point x="618" y="674" type="curve" smooth="yes"/>
      <point x="564" y="674"/>
      <point x="532" y="692"/>
      <point x="511" y="706" type="curve" smooth="yes"/>
      <point x="499" y="713"/>
      <point x="489" y="717"/>
      <point x="478" y="717" type="curve" smooth="yes"/>
      <point x="422" y="717"/>
      <point x="389" y="652"/>
      <point x="389" y="582" type="curve" smooth="yes"/>
      <point x="389" y="513"/>
      <point x="419" y="443"/>
      <point x="470" y="443" type="curve" smooth="yes"/>
      <point x="498" y="443"/>
      <point x="565" y="488"/>
      <point x="618" y="488" type="curve" smooth="yes"/>
      <point x="689" y="488"/>
      <point x="726" y="442"/>
    </contour>
  </outline>
</glyph>
<glyph name="uniE009" format="2">
  <advance width="1200"/>
  <unicode hex="E009"/>
  <note>
uniE009
</note>
  <outline>
    <contour>
      <point x="603" y="531" type="curve" smooth="yes"/>
      <point x="614" y="531"/>
      <point x="626" y="532"/>
      <point x="638" y="534" type="curve" smooth="yes"/>
      <point x="688" y="540"/>
      <point x="728" y="576"/>
      <point x="730" y="624" type="curve" smooth="yes"/>
      <point x="769" y="1284" type="line"/>
      <point x="431" y="1284" type="line"/>
      <point x="471" y="624" type="line" smooth="yes"/>
      <point x="474" y="577"/>
      <point x="515" y="543"/>
      <point x="563" y="534" type="curve" smooth="yes"/>
      <point x="576" y="532"/>
      <point x="590" y="531"/>
    </contour>
    <contour>
      <point x="602" y="137" type="curve" smooth="yes"/>
      <point x="677" y="137"/>
      <point x="738" y="197"/>
      <point x="738" y="275" type="curve" smooth="yes"/>
      <point x="738" y="349"/>
      <point x="676" y="412"/>
      <point x="602" y="412" type="curve" smooth="yes"/>
      <point x="524" y="412"/>
      <point x="462" y="350"/>
      <point x="462" y="275" type="curve" smooth="yes"/>
      <point x="462" y="197"/>
      <point x="524" y="137"/>
    </contour>
  </outline>
</glyph>
<glyph name="uniE00A" format="2">
  <advance width="1200"/>
  <unicode hex="E00A"/>
  <note>
uniE00A
</note>
  <outline>
    <contour>
      <point x="554" y="703" type="line"/>
      <point x="439" y="133" type="line"/>
      <point x="505" y="133" type="line"/>
      <point x="916" y="943" type="line"/>
      <point x="899" y="969" type="line"/>
      <point x="609" y="882" type="line"/>
      <point x="724" y="1285" type="line"/>
      <point x="362" y="1287" type="line"/>
      <point x="284" y="637" type="line"/>
      <point x="312" y="617" type="line"/>
    </contour>
  </outline>
</glyph>
<glyph name="uniE200" format="2">
  <advance width="1200"/>
  <unicode hex="E200"/>
  <note>
uniE200
</note>
  <outline>
    <contour>
      <point x="830" y="119" type="curve" smooth="yes"/>
      <point x="854" y="119"/>
      <point x="875" y="127"/>
      <point x="892" y="143" type="curve"/>
      <point x="936" y="189" type="line"/>
      <point x="953" y="205"/>
      <point x="962" y="225"/>
      <point x="962" y="249" type="curve" smooth="yes"/>
      <point x="962" y="274"/>
      <point x="953" y="294"/>
      <point x="936" y="310" type="curve" smooth="yes"/>
      <point x="537" y="711" type="line"/>
      <point x="936" y="1111" type="line" smooth="yes"/>
      <point x="953" y="1128"/>
      <point x="962" y="1148"/>
      <point x="962" y="1172" type="curve" smooth="yes"/>
      <point x="962" y="1196"/>
      <point x="953" y="1216"/>
      <point x="936" y="1232" type="curve"/>
      <point x="892" y="1278" type="line"/>
      <point x="875" y="1294"/>
      <point x="854" y="1302"/>
      <point x="830" y="1302" type="curve" smooth="yes"/>
      <point x="805" y="1302"/>
      <point x="785" y="1294"/>
      <point x="769" y="1278" type="curve" smooth="yes"/>
      <point x="313" y="819" type="line"/>
      <point x="311" y="819"/>
      <point x="310" y="819"/>
      <point x="308" y="817" type="curve" smooth="yes"/>
      <point x="265" y="771" type="line" smooth="yes"/>
      <point x="247" y="753"/>
      <point x="238" y="733"/>
      <point x="238" y="711" type="curve" smooth="yes"/>
      <point x="238" y="688"/>
      <point x="247" y="668"/>
      <point x="265" y="650" type="curve" smooth="yes"/>
      <point x="308" y="604" type="line"/>
      <point x="313" y="602" type="line"/>
      <point x="769" y="143" type="line" smooth="yes"/>
      <point x="785" y="127"/>
      <point x="805" y="119"/>
    </contour>
  </outline>
</glyph>
<glyph name="uniE201" format="2">
  <advance width="1200"/>
  <unicode hex="E201"/>
  <note>
uniE201
</note>
  <outline>
    <contour>
      <point x="139" y="553" type="curve" smooth="yes"/>
      <point x="970" y="553" type="line" smooth="yes"/>
      <point x="1088" y="553"/>
      <point x="1189" y="650"/>
      <point x="1189" y="773" type="curve" smooth="yes"/>
      <point x="1189" y="895"/>
      <point x="1092" y="995"/>
      <point x="970" y="995" type="curve" smooth="yes"/>
      <point x="945" y="995"/>
      <point x="919" y="990"/>
      <point x="890" y="978" type="curve"/>
      <point x="871" y="1113"/>
      <point x="753" y="1215"/>
      <point x="615" y="1215" type="curve" smooth="yes"/>
      <point x="463" y="1215"/>
      <point x="337" y="1089"/>
      <point x="337" y="935" type="curve" smooth="yes"/>
      <point x="337" y="925" type="line"/>
      <point x="335" y="925"/>
      <point x="334" y="926"/>
      <point x="332" y="926" type="curve" smooth="yes"/>
      <point x="330" y="927"/>
      <point x="329" y="927"/>
      <point x="327" y="927" type="curve" smooth="yes"/>
      <point x="243" y="927"/>
      <point x="178" y="859"/>
      <point x="178" y="775" type="curve" smooth="yes"/>
      <point x="178" y="773" type="line"/>
      <point x="165" y="778"/>
      <point x="152" y="780"/>
      <point x="139" y="780" type="curve" smooth="yes"/>
      <point x="68" y="780"/>
      <point x="11" y="720"/>
      <point x="11" y="650" type="curve" smooth="yes"/>
      <point x="11" y="585"/>
      <point x="54" y="553"/>
    </contour>
    <contour>
      <point x="776" y="488" type="curve" smooth="yes"/>
      <point x="789" y="488"/>
      <point x="796" y="495"/>
      <point x="796" y="507" type="curve" smooth="yes"/>
      <point x="796" y="522"/>
      <point x="789" y="529"/>
      <point x="776" y="529" type="curve" smooth="yes"/>
      <point x="762" y="529"/>
      <point x="755" y="522"/>
      <point x="755" y="507" type="curve" smooth="yes"/>
      <point x="755" y="495"/>
      <point x="762" y="488"/>
    </contour>
    <contour>
      <point x="238" y="466" type="curve" smooth="yes"/>
      <point x="251" y="466"/>
      <point x="257" y="473"/>
      <point x="257" y="488" type="curve" smooth="yes"/>
      <point x="257" y="501"/>
      <point x="251" y="507"/>
      <point x="238" y="507" type="curve" smooth="yes"/>
      <point x="223" y="507"/>
      <point x="216" y="501"/>
      <point x="216" y="488" type="curve" smooth="yes"/>
      <point x="216" y="473"/>
      <point x="223" y="466"/>
    </contour>
    <contour>
      <point x="441" y="447" type="curve" smooth="yes"/>
      <point x="455" y="447"/>
      <point x="463" y="454"/>
      <point x="463" y="466" type="curve" smooth="yes"/>
      <point x="463" y="481"/>
      <point x="455" y="488"/>
      <point x="441" y="488" type="curve" smooth="yes"/>
      <point x="428" y="488"/>
      <point x="421" y="481"/>
      <point x="421" y="466" type="curve" smooth="yes"/>
      <point x="421" y="454"/>
      <point x="428" y="447"/>
    </contour>
    <contour>
      <point x="933" y="447" type="curve" smooth="yes"/>
      <point x="948" y="447"/>
      <point x="955" y="454"/>
      <point x="955" y="466" type="curve" smooth="yes"/>
      <point x="955" y="481"/>
      <point x="948" y="488"/>
      <point x="933" y="488" type="curve" smooth="yes"/>
      <point x="921" y="488"/>
      <point x="914" y="481"/>
      <point x="914" y="466" type="curve" smooth="yes"/>
      <point x="914" y="454"/>
      <point x="921" y="447"/>
    </contour>
    <contour>
      <point x="660" y="365" type="curve" smooth="yes"/>
      <point x="675" y="365"/>
      <point x="682" y="371"/>
      <point x="682" y="384" type="curve" smooth="yes"/>
      <point x="682" y="399"/>
      <point x="675" y="406"/>
      <point x="660" y="406" type="curve" smooth="yes"/>
      <point x="648" y="406"/>
      <point x="641" y="399"/>
      <point x="641" y="384" type="curve" smooth="yes"/>
      <point x="641" y="371"/>
      <point x="648" y="365"/>
    </contour>
    <contour>
      <point x="796" y="343" type="curve" smooth="yes"/>
      <point x="810" y="343"/>
      <point x="817" y="350"/>
      <point x="817" y="365" type="curve" smooth="yes"/>
      <point x="817" y="378"/>
      <point x="810" y="384"/>
      <point x="796" y="384" type="curve" smooth="yes"/>
      <point x="783" y="384"/>
      <point x="776" y="378"/>
      <point x="776" y="365" type="curve" smooth="yes"/>
      <point x="776" y="350"/>
      <point x="783" y="343"/>
    </contour>
    <contour>
      <point x="349" y="324" type="curve" smooth="yes"/>
      <point x="362" y="324"/>
      <point x="368" y="330"/>
      <point x="368" y="343" type="curve" smooth="yes"/>
      <point x="368" y="358"/>
      <point x="362" y="365"/>
      <point x="349" y="365" type="curve" smooth="yes"/>
      <point x="335" y="365"/>
      <point x="327" y="358"/>
      <point x="327" y="343" type="curve" smooth="yes"/>
      <point x="327" y="330"/>
      <point x="335" y="324"/>
    </contour>
    <contour>
      <point x="508" y="302" type="curve" smooth="yes"/>
      <point x="521" y="302"/>
      <point x="528" y="309"/>
      <point x="528" y="324" type="curve" smooth="yes"/>
      <point x="528" y="336"/>
      <point x="521" y="343"/>
      <point x="508" y="343" type="curve" smooth="yes"/>
      <point x="494" y="343"/>
      <point x="487" y="336"/>
      <point x="487" y="324" type="curve" smooth="yes"/>
      <point x="487" y="309"/>
      <point x="494" y="302"/>
    </contour>
    <contour>
      <point x="238" y="261" type="curve" smooth="yes"/>
      <point x="251" y="261"/>
      <point x="257" y="268"/>
      <point x="257" y="283" type="curve" smooth="yes"/>
      <point x="257" y="295"/>
      <point x="251" y="302"/>
      <point x="238" y="302" type="curve" smooth="yes"/>
      <point x="223" y="302"/>
      <point x="216" y="295"/>
      <point x="216" y="283" type="curve" smooth="yes"/>
      <point x="216" y="268"/>
      <point x="223" y="261"/>
    </contour>
    <contour>
      <point x="660" y="205" type="curve" smooth="yes"/>
      <point x="675" y="205"/>
      <point x="682" y="212"/>
      <point x="682" y="225" type="curve" smooth="yes"/>
      <point x="682" y="239"/>
      <point x="675" y="247"/>
      <point x="660" y="247" type="curve" smooth="yes"/>
      <point x="648" y="247"/>
      <point x="641" y="239"/>
      <point x="641" y="225" type="curve" smooth="yes"/>
      <point x="641" y="212"/>
      <point x="648" y="205"/>
    </contour>
  </outline>
</glyph>
<glyph name="uniE202" format="2">
  <advance width="1200"/>
  <unicode hex="E202"/>
  <note>
uniE202
</note>
  <outline>
    <contour>
      <point x="484" y="131" type="curve"/>
      <point x="496" y="126" type="line"/>
      <point x="704" y="126" type="line"/>
      <point x="738" y="131"/>
      <point x="760" y="155"/>
      <point x="769" y="201" type="curve" smooth="yes"/>
      <point x="773" y="217"/>
      <point x="775" y="234"/>
      <point x="775" y="253" type="curve" smooth="yes"/>
      <point x="775" y="285"/>
      <point x="770" y="320"/>
      <point x="760" y="358" type="curve"/>
      <point x="758" y="367"/>
      <point x="757" y="378"/>
      <point x="757" y="389" type="curve" smooth="yes"/>
      <point x="757" y="416"/>
      <point x="761" y="447"/>
      <point x="769" y="483" type="curve" smooth="yes"/>
      <point x="782" y="551"/>
      <point x="788" y="621"/>
      <point x="788" y="690" type="curve" smooth="yes"/>
      <point x="788" y="745"/>
      <point x="784" y="799"/>
      <point x="776" y="855" type="curve" smooth="yes"/>
      <point x="770" y="906"/>
      <point x="754" y="947"/>
      <point x="727" y="995" type="curve" smooth="yes"/>
      <point x="713" y="1019"/>
      <point x="706" y="1033"/>
      <point x="704" y="1036" type="curve" smooth="yes"/>
      <point x="685" y="1075"/>
      <point x="673" y="1135"/>
      <point x="673" y="1164" type="curve"/>
      <point x="670" y="1188" type="line"/>
      <point x="687" y="1188" type="line"/>
      <point x="687" y="1220" type="line"/>
      <point x="682" y="1224" type="line"/>
      <point x="682" y="1290" type="line"/>
      <point x="600" y="1294" type="line"/>
      <point x="518" y="1290" type="line"/>
      <point x="518" y="1224" type="line"/>
      <point x="513" y="1220" type="line"/>
      <point x="513" y="1188" type="line"/>
      <point x="530" y="1188" type="line"/>
      <point x="530" y="1132"/>
      <point x="519" y="1081"/>
      <point x="496" y="1036" type="curve" smooth="yes"/>
      <point x="487" y="1017"/>
      <point x="458" y="972"/>
      <point x="441" y="926" type="curve" smooth="yes"/>
      <point x="433" y="904"/>
      <point x="427" y="881"/>
      <point x="424" y="855" type="curve" smooth="yes"/>
      <point x="416" y="799"/>
      <point x="412" y="745"/>
      <point x="412" y="690" type="curve" smooth="yes"/>
      <point x="412" y="621"/>
      <point x="418" y="551"/>
      <point x="431" y="483" type="curve" smooth="yes"/>
      <point x="439" y="447"/>
      <point x="443" y="416"/>
      <point x="443" y="390" type="curve" smooth="yes"/>
      <point x="443" y="379"/>
      <point x="442" y="369"/>
      <point x="441" y="360" type="curve"/>
      <point x="432" y="318"/>
      <point x="427" y="282"/>
      <point x="427" y="250" type="curve" smooth="yes"/>
      <point x="427" y="232"/>
      <point x="428" y="216"/>
      <point x="431" y="201" type="curve" smooth="yes"/>
      <point x="441" y="162"/>
      <point x="465" y="134"/>
    </contour>
  </outline>
</glyph>
<glyph name="uniE203" format="2">
  <advance width="1200"/>
  <unicode hex="E203"/>
  <note>
uniE203
</note>
  <outline>
    <contour>
      <point x="243" y="671" type="curve" smooth="yes"/>
      <point x="243" y="645" type="line"/>
      <point x="957" y="645" type="line"/>
      <point x="957" y="671" type="line" smooth="yes"/>
      <point x="957" y="723"/>
      <point x="994" y="763"/>
      <point x="1069" y="792" type="curve"/>
      <point x="1069" y="879" type="line" smooth="yes"/>
      <point x="1069" y="950"/>
      <point x="982" y="1006"/>
      <point x="873" y="1010" type="curve"/>
      <point x="873" y="1012" type="line"/>
      <point x="337" y="1012" type="line" smooth="yes"/>
      <point x="224" y="1012"/>
      <point x="132" y="953"/>
      <point x="132" y="879" type="curve" smooth="yes"/>
      <point x="132" y="792" type="line"/>
      <point x="206" y="763"/>
      <point x="243" y="723"/>
    </contour>
    <contour>
      <point x="11" y="754" type="curve" smooth="yes"/>
      <point x="11" y="408" type="line"/>
      <point x="204" y="408" type="line"/>
      <point x="204" y="671" type="line" smooth="yes"/>
      <point x="204" y="729"/>
      <point x="136" y="778"/>
      <point x="42" y="787" type="curve"/>
      <point x="21" y="783"/>
      <point x="11" y="771"/>
    </contour>
    <contour>
      <point x="996" y="671" type="curve" smooth="yes"/>
      <point x="996" y="408" type="line"/>
      <point x="1189" y="408" type="line"/>
      <point x="1189" y="754" type="line" smooth="yes"/>
      <point x="1189" y="771"/>
      <point x="1179" y="783"/>
      <point x="1158" y="787" type="curve"/>
      <point x="1064" y="778"/>
      <point x="996" y="729"/>
    </contour>
    <contour>
      <point x="240" y="541" type="curve" smooth="yes"/>
      <point x="240" y="408" type="line"/>
      <point x="960" y="408" type="line"/>
      <point x="960" y="541" type="line" smooth="yes"/>
      <point x="960" y="591"/>
      <point x="926" y="616"/>
      <point x="858" y="616" type="curve" smooth="yes"/>
      <point x="342" y="616" type="line" smooth="yes"/>
      <point x="274" y="616"/>
      <point x="240" y="591"/>
    </contour>
  </outline>
</glyph>
<glyph name="uniE204" format="2">
  <advance width="1200"/>
  <unicode hex="E204"/>
  <note>
uniE204
</note>
  <outline>
    <contour>
      <point x="407" y="990" type="curve"/>
      <point x="411" y="990" type="line"/>
      <point x="411" y="995" type="line"/>
      <point x="410" y="997"/>
      <point x="409" y="1000"/>
      <point x="409" y="1007" type="curve" smooth="yes"/>
      <point x="409" y="1024" type="line" smooth="yes"/>
      <point x="409" y="1031"/>
      <point x="411" y="1037"/>
      <point x="414" y="1043" type="curve"/>
      <point x="414" y="1048" type="line"/>
      <point x="416" y="1051" type="line" smooth="yes"/>
      <point x="418" y="1052"/>
      <point x="419" y="1054"/>
      <point x="419" y="1055" type="curve"/>
      <point x="426" y="1063" type="line" smooth="yes"/>
      <point x="429" y="1066"/>
      <point x="431" y="1067"/>
      <point x="433" y="1067" type="curve"/>
      <point x="436" y="1070"/>
      <point x="438" y="1073"/>
      <point x="438" y="1075" type="curve"/>
      <point x="440" y="1075"/>
      <point x="442" y="1077"/>
      <point x="445" y="1080" type="curve"/>
      <point x="448" y="1080" type="line"/>
      <point x="450" y="1082" type="line" smooth="yes"/>
      <point x="453" y="1085"/>
      <point x="455" y="1087"/>
      <point x="457" y="1087" type="curve"/>
      <point x="462" y="1092" type="line"/>
      <point x="472" y="1099" type="line" smooth="yes"/>
      <point x="484" y="1109"/>
      <point x="494" y="1120"/>
      <point x="501" y="1133" type="curve" smooth="yes"/>
      <point x="510" y="1149"/>
      <point x="516" y="1163"/>
      <point x="518" y="1176" type="curve" smooth="yes"/>
      <point x="519" y="1184"/>
      <point x="520" y="1191"/>
      <point x="520" y="1198" type="curve" smooth="yes"/>
      <point x="520" y="1233"/>
      <point x="501" y="1259"/>
      <point x="469" y="1285" type="curve"/>
      <point x="466" y="1285"/>
      <point x="460" y="1289"/>
      <point x="457" y="1292" type="curve"/>
      <point x="455" y="1292" type="line" smooth="yes"/>
      <point x="453" y="1292"/>
      <point x="452" y="1290"/>
      <point x="452" y="1287" type="curve" smooth="yes"/>
      <point x="452" y="1275" type="line" smooth="yes"/>
      <point x="452" y="1268"/>
      <point x="451" y="1256"/>
      <point x="448" y="1236" type="curve"/>
      <point x="448" y="1230"/>
      <point x="446" y="1224"/>
      <point x="443" y="1217" type="curve" smooth="yes"/>
      <point x="441" y="1214"/>
      <point x="439" y="1211"/>
      <point x="437" y="1207" type="curve" smooth="yes"/>
      <point x="434" y="1204"/>
      <point x="433" y="1202"/>
      <point x="433" y="1200" type="curve"/>
      <point x="421" y="1188" type="line"/>
      <point x="418" y="1183"/>
      <point x="413" y="1179"/>
      <point x="407" y="1174" type="curve"/>
      <point x="402" y="1171" type="line"/>
      <point x="402" y="1169" type="line"/>
      <point x="399" y="1166" type="line"/>
      <point x="397" y="1166" type="line"/>
      <point x="382" y="1152" type="line" smooth="yes"/>
      <point x="379" y="1149"/>
      <point x="375" y="1142"/>
      <point x="368" y="1133" type="curve"/>
      <point x="361" y="1128"/>
      <point x="358" y="1121"/>
      <point x="356" y="1113" type="curve"/>
      <point x="354" y="1112"/>
      <point x="353" y="1110"/>
      <point x="353" y="1109" type="curve"/>
      <point x="352" y="1105"/>
      <point x="351" y="1103"/>
      <point x="351" y="1101" type="curve"/>
      <point x="349" y="1096" type="line"/>
      <point x="349" y="1092" type="line" smooth="yes"/>
      <point x="349" y="1087"/>
      <point x="348" y="1083"/>
      <point x="346" y="1080" type="curve"/>
      <point x="346" y="1070" type="line" smooth="yes"/>
      <point x="346" y="1065"/>
      <point x="348" y="1058"/>
      <point x="351" y="1048" type="curve"/>
      <point x="351" y="1043"/>
      <point x="352" y="1040"/>
      <point x="353" y="1038" type="curve"/>
      <point x="353" y="1036" type="line"/>
      <point x="355" y="1034"/>
      <point x="356" y="1033"/>
      <point x="356" y="1031" type="curve"/>
      <point x="358" y="1029"/>
      <point x="359" y="1027"/>
      <point x="361" y="1024" type="curve" smooth="yes"/>
      <point x="362" y="1021"/>
      <point x="364" y="1019"/>
      <point x="366" y="1017" type="curve" smooth="yes"/>
      <point x="375" y="1007" type="line" smooth="yes"/>
      <point x="377" y="1005"/>
      <point x="380" y="1003"/>
      <point x="385" y="1000" type="curve"/>
      <point x="387" y="1000"/>
      <point x="387" y="999"/>
      <point x="387" y="997" type="curve"/>
      <point x="392" y="995" type="line"/>
      <point x="392" y="995"/>
      <point x="397" y="993"/>
    </contour>
    <contour>
      <point x="597" y="990" type="curve" smooth="yes"/>
      <point x="602" y="990" type="line"/>
      <point x="602" y="992"/>
      <point x="602" y="993"/>
      <point x="600" y="995" type="curve"/>
      <point x="600" y="1024" type="line" smooth="yes"/>
      <point x="600" y="1031"/>
      <point x="602" y="1037"/>
      <point x="605" y="1043" type="curve"/>
      <point x="605" y="1048" type="line"/>
      <point x="607" y="1051" type="line"/>
      <point x="607" y="1052"/>
      <point x="608" y="1054"/>
      <point x="609" y="1055" type="curve"/>
      <point x="609" y="1057"/>
      <point x="610" y="1058"/>
      <point x="612" y="1058" type="curve"/>
      <point x="612" y="1060"/>
      <point x="612" y="1060"/>
      <point x="614" y="1060" type="curve"/>
      <point x="629" y="1075" type="line"/>
      <point x="631" y="1075"/>
      <point x="633" y="1077"/>
      <point x="636" y="1080" type="curve"/>
      <point x="638" y="1080" type="line"/>
      <point x="641" y="1082" type="line" smooth="yes"/>
      <point x="644" y="1085"/>
      <point x="646" y="1087"/>
      <point x="648" y="1087" type="curve"/>
      <point x="653" y="1092" type="line"/>
      <point x="662" y="1099" type="line" smooth="yes"/>
      <point x="670" y="1105"/>
      <point x="680" y="1116"/>
      <point x="691" y="1133" type="curve" smooth="yes"/>
      <point x="701" y="1149"/>
      <point x="707" y="1163"/>
      <point x="708" y="1176" type="curve" smooth="yes"/>
      <point x="710" y="1183"/>
      <point x="710" y="1189"/>
      <point x="710" y="1194" type="curve" smooth="yes"/>
      <point x="710" y="1203"/>
      <point x="709" y="1211"/>
      <point x="706" y="1217" type="curve"/>
      <point x="704" y="1229"/>
      <point x="701" y="1239"/>
      <point x="694" y="1251" type="curve" smooth="yes"/>
      <point x="689" y="1261"/>
      <point x="678" y="1272"/>
      <point x="660" y="1285" type="curve"/>
      <point x="653" y="1288"/>
      <point x="650" y="1290"/>
      <point x="648" y="1292" type="curve"/>
      <point x="643" y="1292" type="line"/>
      <point x="643" y="1275" type="line" smooth="yes"/>
      <point x="643" y="1268"/>
      <point x="641" y="1256"/>
      <point x="638" y="1236" type="curve"/>
      <point x="635" y="1225"/>
      <point x="633" y="1219"/>
      <point x="631" y="1217" type="curve"/>
      <point x="629" y="1212"/>
      <point x="627" y="1207"/>
      <point x="624" y="1200" type="curve"/>
      <point x="597" y="1174" type="line"/>
      <point x="592" y="1171" type="line"/>
      <point x="592" y="1169" type="line"/>
      <point x="590" y="1166" type="line"/>
      <point x="588" y="1166" type="line"/>
      <point x="585" y="1164" type="line" smooth="yes"/>
      <point x="582" y="1161"/>
      <point x="580" y="1159"/>
      <point x="578" y="1159" type="curve"/>
      <point x="576" y="1154" type="line"/>
      <point x="574" y="1154"/>
      <point x="573" y="1154"/>
      <point x="573" y="1152" type="curve"/>
      <point x="568" y="1149"/>
      <point x="563" y="1142"/>
      <point x="556" y="1133" type="curve"/>
      <point x="547" y="1113" type="line"/>
      <point x="545" y="1112"/>
      <point x="544" y="1110"/>
      <point x="544" y="1109" type="curve"/>
      <point x="542" y="1105"/>
      <point x="542" y="1103"/>
      <point x="542" y="1101" type="curve" smooth="yes"/>
      <point x="542" y="1096" type="line"/>
      <point x="539" y="1094"/>
      <point x="537" y="1082"/>
      <point x="537" y="1080" type="curve" smooth="yes"/>
      <point x="537" y="1070" type="line" smooth="yes"/>
      <point x="537" y="1060"/>
      <point x="538" y="1053"/>
      <point x="539" y="1048" type="curve"/>
      <point x="541" y="1048"/>
      <point x="542" y="1046"/>
      <point x="542" y="1043" type="curve" smooth="yes"/>
      <point x="542" y="1040"/>
      <point x="542" y="1038"/>
      <point x="544" y="1038" type="curve"/>
      <point x="547" y="1036" type="line"/>
      <point x="547" y="1028"/>
      <point x="550" y="1023"/>
      <point x="556" y="1017" type="curve" smooth="yes"/>
      <point x="566" y="1007" type="line" smooth="yes"/>
      <point x="569" y="1004"/>
      <point x="573" y="1002"/>
      <point x="576" y="1000" type="curve"/>
      <point x="578" y="997" type="line" smooth="yes"/>
      <point x="580" y="996"/>
      <point x="595" y="990"/>
    </contour>
    <contour>
      <point x="600" y="292" type="curve" smooth="yes"/>
      <point x="925" y="292"/>
      <point x="1186" y="556"/>
      <point x="1186" y="882" type="curve"/>
      <point x="13" y="882" type="line"/>
      <point x="13" y="556"/>
      <point x="274" y="292"/>
    </contour>
    <contour>
      <point x="13" y="227" type="line"/>
      <point x="13" y="128" type="line"/>
      <point x="1186" y="128" type="line"/>
      <point x="1186" y="227" type="line"/>
    </contour>
  </outline>
</glyph>
<glyph name="uniE205" format="2">
  <advance width="1200"/>
  <unicode hex="E205"/>
  <note>
uniE205
</note>
  <outline>
    <contour>
      <point x="1089" y="123" type="curve" smooth="yes"/>
      <point x="1097" y="123"/>
      <point x="1101" y="128"/>
      <point x="1104" y="137" type="curve"/>
      <point x="1104" y="139" type="line" smooth="yes"/>
      <point x="1104" y="150"/>
      <point x="1099" y="156"/>
      <point x="1089" y="158" type="curve" smooth="yes"/>
      <point x="1031" y="171"/>
      <point x="981" y="230"/>
      <point x="978" y="291" type="curve" smooth="yes"/>
      <point x="975" y="365"/>
      <point x="915" y="441"/>
      <point x="841" y="458" type="curve"/>
      <point x="838" y="460" type="line"/>
      <point x="806" y="468"/>
      <point x="780" y="484"/>
      <point x="761" y="508" type="curve" smooth="yes"/>
      <point x="739" y="537"/>
      <point x="727" y="566"/>
      <point x="727" y="593" type="curve" smooth="yes"/>
      <point x="724" y="653"/>
      <point x="695" y="700"/>
      <point x="640" y="735" type="curve"/>
      <point x="637" y="738"/>
      <point x="632" y="742"/>
      <point x="626" y="745" type="curve" smooth="yes"/>
      <point x="611" y="753"/>
      <point x="597" y="758"/>
      <point x="585" y="760" type="curve"/>
      <point x="527" y="776"/>
      <point x="477" y="834"/>
      <point x="474" y="895" type="curve"/>
      <point x="471" y="917"/>
      <point x="466" y="936"/>
      <point x="459" y="953" type="curve" smooth="yes"/>
      <point x="438" y="998"/>
      <point x="408" y="1030"/>
      <point x="367" y="1049" type="curve"/>
      <point x="367" y="1052"/>
      <point x="368" y="1055"/>
      <point x="370" y="1056" type="curve"/>
      <point x="387" y="1079"/>
      <point x="395" y="1101"/>
      <point x="395" y="1123" type="curve" smooth="yes"/>
      <point x="395" y="1155"/>
      <point x="378" y="1188"/>
      <point x="346" y="1221" type="curve" smooth="yes"/>
      <point x="299" y="1268"/>
      <point x="232" y="1297"/>
      <point x="177" y="1297" type="curve" smooth="yes"/>
      <point x="154" y="1297"/>
      <point x="132" y="1291"/>
      <point x="116" y="1279" type="curve"/>
      <point x="102" y="1262"/>
      <point x="96" y="1240"/>
      <point x="96" y="1215" type="curve" smooth="yes"/>
      <point x="96" y="1162"/>
      <point x="125" y="1095"/>
      <point x="172" y="1047" type="curve" smooth="yes"/>
      <point x="204" y="1016"/>
      <point x="236" y="1000"/>
      <point x="267" y="1000" type="curve" smooth="yes"/>
      <point x="285" y="1000"/>
      <point x="303" y="1006"/>
      <point x="322" y="1015" type="curve"/>
      <point x="343" y="1023" type="line"/>
      <point x="382" y="1008"/>
      <point x="410" y="981"/>
      <point x="428" y="941" type="curve"/>
      <point x="433" y="933"/>
      <point x="437" y="917"/>
      <point x="440" y="895" type="curve" smooth="yes"/>
      <point x="440" y="892" type="line" smooth="yes"/>
      <point x="443" y="818"/>
      <point x="503" y="742"/>
      <point x="578" y="726" type="curve" smooth="yes"/>
      <point x="589" y="724"/>
      <point x="600" y="720"/>
      <point x="611" y="714" type="curve" smooth="yes"/>
      <point x="616" y="711" type="line" smooth="yes"/>
      <point x="619" y="709"/>
      <point x="623" y="707"/>
      <point x="626" y="704" type="curve" smooth="yes"/>
      <point x="629" y="701"/>
      <point x="635" y="697"/>
      <point x="638" y="697" type="curve"/>
      <point x="643" y="692" type="line" smooth="yes"/>
      <point x="672" y="663"/>
      <point x="688" y="630"/>
      <point x="691" y="593" type="curve" smooth="yes"/>
      <point x="694" y="551"/>
      <point x="708" y="516"/>
      <point x="734" y="487" type="curve"/>
      <point x="759" y="456"/>
      <point x="791" y="435"/>
      <point x="831" y="424" type="curve"/>
      <point x="892" y="411"/>
      <point x="941" y="352"/>
      <point x="945" y="291" type="curve" smooth="yes"/>
      <point x="948" y="214"/>
      <point x="1008" y="141"/>
      <point x="1082" y="124" type="curve" smooth="yes"/>
      <point x="1085" y="124"/>
      <point x="1087" y="123"/>
    </contour>
  </outline>
</glyph>
<glyph name="uniE206" format="2">
  <advance width="1200"/>
  <unicode hex="E206"/>
  <note>
uniE206
</note>
  <outline>
    <contour>
      <point x="556" y="121" type="curve"/>
      <point x="289" y="163"/>
      <point x="88" y="394"/>
      <point x="88" y="667" type="curve" smooth="yes"/>
      <point x="88" y="957"/>
      <point x="310" y="1195"/>
      <point x="597" y="1218" type="curve" smooth="yes"/>
      <point x="600" y="1218" type="line"/>
      <point x="602" y="1220" type="line"/>
      <point x="628" y="1220"/>
      <point x="641" y="1233"/>
      <point x="641" y="1259" type="curve" smooth="yes"/>
      <point x="641" y="1261" type="line" smooth="yes"/>
      <point x="641" y="1283"/>
      <point x="622" y="1302"/>
      <point x="600" y="1302" type="curve"/>
      <point x="597" y="1300" type="line"/>
      <point x="592" y="1300" type="line" smooth="yes"/>
      <point x="267" y="1293"/>
      <point x="8" y="1032"/>
      <point x="8" y="711" type="curve" smooth="yes"/>
      <point x="8" y="402"/>
      <point x="247" y="144"/>
    </contour>
    <contour>
      <point x="600" y="119" type="curve" smooth="yes"/>
      <point x="925" y="119"/>
      <point x="1191" y="385"/>
      <point x="1191" y="711" type="curve" smooth="yes"/>
      <point x="1191" y="1020"/>
      <point x="952" y="1274"/>
      <point x="643" y="1300" type="curve"/>
      <point x="910" y="1258"/>
      <point x="1111" y="1029"/>
      <point x="1111" y="752" type="curve" smooth="yes"/>
      <point x="1111" y="462"/>
      <point x="889" y="223"/>
      <point x="602" y="201" type="curve" smooth="yes"/>
      <point x="597" y="201" type="line"/>
      <point x="571" y="198"/>
      <point x="559" y="184"/>
      <point x="559" y="160" type="curve" smooth="yes"/>
      <point x="559" y="138"/>
      <point x="577" y="119"/>
    </contour>
  </outline>
</glyph>
<glyph name="uniE207" format="2">
  <advance width="1200"/>
  <unicode hex="E207"/>
  <note>
uniE207
</note>
  <outline>
    <contour>
      <point x="252" y="121" type="curve" smooth="yes"/>
      <point x="268" y="121"/>
      <point x="281" y="126"/>
      <point x="293" y="135" type="curve" smooth="yes"/>
      <point x="312" y="152"/>
      <point x="322" y="169"/>
      <point x="322" y="187" type="curve" smooth="yes"/>
      <point x="322" y="201"/>
      <point x="316" y="215"/>
      <point x="305" y="230" type="curve" smooth="yes"/>
      <point x="272" y="270"/>
      <point x="255" y="326"/>
      <point x="255" y="356" type="curve" smooth="yes"/>
      <point x="255" y="364"/>
      <point x="256" y="371"/>
      <point x="259" y="374" type="curve"/>
      <point x="275" y="374"/>
      <point x="288" y="373"/>
      <point x="300" y="370" type="curve" smooth="yes"/>
      <point x="324" y="363"/>
      <point x="363" y="356"/>
      <point x="418" y="348" type="curve"/>
      <point x="444" y="340"/>
      <point x="496" y="333"/>
      <point x="575" y="329" type="curve" smooth="yes"/>
      <point x="582" y="328"/>
      <point x="588" y="328"/>
      <point x="595" y="328" type="curve" smooth="yes"/>
      <point x="828" y="328"/>
      <point x="1027" y="550"/>
      <point x="1068" y="840" type="curve" smooth="yes"/>
      <point x="1072" y="872"/>
      <point x="1075" y="903"/>
      <point x="1075" y="933" type="curve" smooth="yes"/>
      <point x="1075" y="1157"/>
      <point x="940" y="1299"/>
      <point x="763" y="1299" type="curve" smooth="yes"/>
      <point x="584" y="1299"/>
      <point x="451" y="1232"/>
      <point x="451" y="1045" type="curve" smooth="yes"/>
      <point x="451" y="1034"/>
      <point x="451" y="1023"/>
      <point x="452" y="1012" type="curve"/>
      <point x="389" y="1034"/>
      <point x="350" y="1078"/>
      <point x="334" y="1142" type="curve" smooth="yes"/>
      <point x="324" y="1176"/>
      <point x="303" y="1192"/>
      <point x="272" y="1192" type="curve" smooth="yes"/>
      <point x="265" y="1192"/>
      <point x="259" y="1192"/>
      <point x="252" y="1191" type="curve"/>
      <point x="222" y="1183"/>
      <point x="203" y="1156"/>
      <point x="203" y="1127" type="curve" smooth="yes"/>
      <point x="203" y="1121"/>
      <point x="204" y="1115"/>
      <point x="206" y="1109" type="curve" smooth="yes"/>
      <point x="244" y="961"/>
      <point x="362" y="889"/>
      <point x="481" y="867" type="curve"/>
      <point x="495" y="820"/>
      <point x="502" y="774"/>
      <point x="502" y="729" type="curve" smooth="yes"/>
      <point x="502" y="692"/>
      <point x="498" y="656"/>
      <point x="488" y="621" type="curve"/>
      <point x="486" y="616" type="line"/>
      <point x="486" y="614" type="line"/>
      <point x="468" y="554"/>
      <point x="413" y="517"/>
      <point x="319" y="502" type="curve"/>
      <point x="300" y="507"/>
      <point x="282" y="509"/>
      <point x="265" y="509" type="curve" smooth="yes"/>
      <point x="214" y="509"/>
      <point x="176" y="489"/>
      <point x="150" y="447" type="curve" smooth="yes"/>
      <point x="133" y="417"/>
      <point x="125" y="383"/>
      <point x="125" y="347" type="curve" smooth="yes"/>
      <point x="125" y="279"/>
      <point x="154" y="205"/>
      <point x="201" y="148" type="curve"/>
      <point x="214" y="130"/>
      <point x="230" y="121"/>
    </contour>
  </outline>
</glyph>
<glyph name="uniE208" format="2">
  <advance width="1200"/>
  <unicode hex="E208"/>
  <note>
uniE208
</note>
  <outline>
    <contour>
      <point x="175" y="682" type="curve" smooth="yes"/>
      <point x="940" y="682" type="line" smooth="yes"/>
      <point x="1053" y="682"/>
      <point x="1143" y="772"/>
      <point x="1143" y="885" type="curve" smooth="yes"/>
      <point x="1143" y="998"/>
      <point x="1053" y="1090"/>
      <point x="940" y="1090" type="curve" smooth="yes"/>
      <point x="921" y="1090"/>
      <point x="897" y="1086"/>
      <point x="868" y="1076" type="curve"/>
      <point x="848" y="1201"/>
      <point x="740" y="1293"/>
      <point x="614" y="1293" type="curve" smooth="yes"/>
      <point x="472" y="1293"/>
      <point x="356" y="1177"/>
      <point x="356" y="1035" type="curve"/>
      <point x="358" y="1032" type="line"/>
      <point x="358" y="1025" type="line"/>
      <point x="355" y="1027"/>
      <point x="352" y="1028"/>
      <point x="349" y="1028" type="curve" smooth="yes"/>
      <point x="271" y="1028"/>
      <point x="209" y="965"/>
      <point x="209" y="888" type="curve" smooth="yes"/>
      <point x="209" y="885" type="line"/>
      <point x="199" y="890"/>
      <point x="187" y="892"/>
      <point x="175" y="892" type="curve" smooth="yes"/>
      <point x="110" y="892"/>
      <point x="57" y="839"/>
      <point x="57" y="772" type="curve" smooth="yes"/>
      <point x="57" y="712"/>
      <point x="96" y="682"/>
    </contour>
    <contour>
      <point x="385" y="129" type="line"/>
      <point x="387" y="127" type="line"/>
      <point x="718" y="530" type="line" smooth="yes"/>
      <point x="720" y="533"/>
      <point x="722" y="535"/>
      <point x="722" y="536" type="curve" smooth="yes"/>
      <point x="722" y="539"/>
      <point x="719" y="540"/>
      <point x="713" y="540" type="curve" smooth="yes"/>
      <point x="655" y="540" type="line" smooth="yes"/>
      <point x="649" y="540"/>
      <point x="647" y="542"/>
      <point x="647" y="546" type="curve" smooth="yes"/>
      <point x="647" y="548"/>
      <point x="647" y="550"/>
      <point x="648" y="552" type="curve" smooth="yes"/>
      <point x="682" y="624" type="line"/>
      <point x="685" y="627"/>
      <point x="687" y="630"/>
      <point x="687" y="632" type="curve" smooth="yes"/>
      <point x="687" y="635"/>
      <point x="682" y="636"/>
      <point x="675" y="636" type="curve" smooth="yes"/>
      <point x="525" y="636" type="line" smooth="yes"/>
      <point x="517" y="636"/>
      <point x="510" y="632"/>
      <point x="506" y="624" type="curve"/>
      <point x="409" y="429" type="line"/>
      <point x="407" y="426"/>
      <point x="407" y="424"/>
      <point x="407" y="422" type="curve" smooth="yes"/>
      <point x="407" y="419"/>
      <point x="410" y="417"/>
      <point x="416" y="417" type="curve" smooth="yes"/>
      <point x="486" y="417" type="line" smooth="yes"/>
      <point x="492" y="417"/>
      <point x="495" y="415"/>
      <point x="495" y="411" type="curve" smooth="yes"/>
      <point x="495" y="409"/>
      <point x="495" y="407"/>
      <point x="494" y="405" type="curve" smooth="yes"/>
    </contour>
  </outline>
</glyph>
<glyph name="uniE209" format="2">
  <advance width="1200"/>
  <unicode hex="E209"/>
  <note>
uniE209
</note>
  <outline>
    <contour>
      <point x="702" y="114" type="curve" smooth="yes"/>
      <point x="725" y="114"/>
      <point x="746" y="135"/>
      <point x="746" y="157" type="curve" smooth="yes"/>
      <point x="746" y="541" type="line"/>
      <point x="770" y="548" type="line"/>
      <point x="961" y="174" type="line" smooth="yes"/>
      <point x="969" y="158"/>
      <point x="983" y="150"/>
      <point x="1002" y="150" type="curve" smooth="yes"/>
      <point x="1005" y="150"/>
      <point x="1012" y="152"/>
      <point x="1021" y="155" type="curve"/>
      <point x="1039" y="164"/>
      <point x="1048" y="176"/>
      <point x="1048" y="190" type="curve" smooth="yes"/>
      <point x="1048" y="198"/>
      <point x="1045" y="206"/>
      <point x="1040" y="215" type="curve" smooth="yes"/>
      <point x="850" y="592" type="line"/>
      <point x="874" y="611"/>
      <point x="893" y="635"/>
      <point x="908" y="664" type="curve"/>
      <point x="913" y="663"/>
      <point x="919" y="662"/>
      <point x="925" y="662" type="curve" smooth="yes"/>
      <point x="954" y="662"/>
      <point x="982" y="680"/>
      <point x="1009" y="715" type="curve"/>
      <point x="1115" y="679" type="line" smooth="yes"/>
      <point x="1120" y="678"/>
      <point x="1125" y="677"/>
      <point x="1129" y="677" type="curve" smooth="yes"/>
      <point x="1152" y="677"/>
      <point x="1168" y="693"/>
      <point x="1181" y="727" type="curve" smooth="yes"/>
      <point x="1187" y="743"/>
      <point x="1190" y="757"/>
      <point x="1190" y="768" type="curve" smooth="yes"/>
      <point x="1190" y="787"/>
      <point x="1181" y="801"/>
      <point x="1164" y="809" type="curve"/>
      <point x="1057" y="848" type="line"/>
      <point x="1060" y="904"/>
      <point x="1044" y="940"/>
      <point x="1007" y="956" type="curve"/>
      <point x="326" y="1207" type="line"/>
      <point x="313" y="1254"/>
      <point x="287" y="1285"/>
      <point x="246" y="1299" type="curve" smooth="yes"/>
      <point x="233" y="1304"/>
      <point x="220" y="1306"/>
      <point x="205" y="1306" type="curve" smooth="yes"/>
      <point x="134" y="1306"/>
      <point x="61" y="1242"/>
      <point x="29" y="1152" type="curve" smooth="yes"/>
      <point x="16" y="1118"/>
      <point x="10" y="1084"/>
      <point x="10" y="1053" type="curve" smooth="yes"/>
      <point x="10" y="979"/>
      <point x="43" y="919"/>
      <point x="99" y="898" type="curve" smooth="yes"/>
      <point x="112" y="894"/>
      <point x="125" y="891"/>
      <point x="140" y="891" type="curve" smooth="yes"/>
      <point x="169" y="891"/>
      <point x="195" y="899"/>
      <point x="217" y="915" type="curve"/>
      <point x="478" y="821" type="line"/>
      <point x="473" y="805"/>
      <point x="471" y="787"/>
      <point x="471" y="768" type="curve" smooth="yes"/>
      <point x="471" y="696"/>
      <point x="498" y="637"/>
      <point x="553" y="592" type="curve"/>
      <point x="362" y="215" type="line" smooth="yes"/>
      <point x="358" y="207"/>
      <point x="357" y="199"/>
      <point x="357" y="192" type="curve" smooth="yes"/>
      <point x="357" y="177"/>
      <point x="365" y="164"/>
      <point x="381" y="155" type="curve"/>
      <point x="391" y="152"/>
      <point x="398" y="150"/>
      <point x="403" y="150" type="curve" smooth="yes"/>
      <point x="421" y="150"/>
      <point x="434" y="158"/>
      <point x="442" y="174" type="curve" smooth="yes"/>
      <point x="632" y="548" type="line"/>
      <point x="635" y="545"/>
      <point x="654" y="541"/>
      <point x="657" y="541" type="curve"/>
      <point x="657" y="157" type="line" smooth="yes"/>
      <point x="657" y="135"/>
      <point x="677" y="114"/>
    </contour>
    <contour>
      <point x="139" y="979" type="curve" smooth="yes"/>
      <point x="136" y="979"/>
      <point x="133" y="979"/>
      <point x="130" y="981" type="curve" smooth="yes"/>
      <point x="110" y="988"/>
      <point x="99" y="1014"/>
      <point x="99" y="1048" type="curve" smooth="yes"/>
      <point x="99" y="1070"/>
      <point x="104" y="1095"/>
      <point x="113" y="1121" type="curve" smooth="yes"/>
      <point x="133" y="1179"/>
      <point x="176" y="1217"/>
      <point x="205" y="1217" type="curve" smooth="yes"/>
      <point x="215" y="1217" type="line"/>
      <point x="233" y="1209"/>
      <point x="246" y="1181"/>
      <point x="246" y="1144" type="curve" smooth="yes"/>
      <point x="246" y="1124"/>
      <point x="242" y="1101"/>
      <point x="234" y="1077" type="curve"/>
      <point x="211" y="1019"/>
      <point x="168" y="979"/>
    </contour>
    <contour>
      <point x="771" y="625" type="curve" smooth="yes"/>
      <point x="767" y="625"/>
      <point x="764" y="625"/>
      <point x="760" y="626" type="curve" smooth="yes"/>
      <point x="718" y="629"/>
      <point x="699" y="668"/>
      <point x="699" y="711" type="curve" smooth="yes"/>
      <point x="699" y="765"/>
      <point x="728" y="824"/>
      <point x="777" y="824" type="curve" smooth="yes"/>
      <point x="780" y="824"/>
      <point x="784" y="824"/>
      <point x="787" y="824" type="curve" smooth="yes"/>
      <point x="827" y="817"/>
      <point x="845" y="777"/>
      <point x="845" y="734" type="curve" smooth="yes"/>
      <point x="845" y="682"/>
      <point x="817" y="625"/>
    </contour>
  </outline>
</glyph>
<glyph name="uniE20A" format="2">
  <advance width="1200"/>
  <unicode hex="E20A"/>
  <note>
uniE20A
</note>
  <outline>
    <contour>
      <point x="600" y="121" type="curve" smooth="yes"/>
      <point x="709" y="121"/>
      <point x="796" y="204"/>
      <point x="796" y="317" type="curve" smooth="yes"/>
      <point x="796" y="382"/>
      <point x="770" y="434"/>
      <point x="718" y="474" type="curve"/>
      <point x="718" y="1184" type="line" smooth="yes"/>
      <point x="718" y="1261"/>
      <point x="659" y="1299"/>
      <point x="600" y="1299" type="curve" smooth="yes"/>
      <point x="541" y="1299"/>
      <point x="482" y="1261"/>
      <point x="482" y="1184" type="curve" smooth="yes"/>
      <point x="482" y="474" type="line"/>
      <point x="431" y="435"/>
      <point x="405" y="383"/>
      <point x="405" y="317" type="curve" smooth="yes"/>
      <point x="405" y="204"/>
      <point x="491" y="121"/>
    </contour>
    <contour>
      <point x="600" y="160" type="curve" smooth="yes"/>
      <point x="513" y="160"/>
      <point x="443" y="230"/>
      <point x="443" y="317" type="curve" smooth="yes"/>
      <point x="443" y="378"/>
      <point x="469" y="424"/>
      <point x="520" y="455" type="curve"/>
      <point x="520" y="1184" type="line" smooth="yes"/>
      <point x="520" y="1235"/>
      <point x="560" y="1260"/>
      <point x="600" y="1260" type="curve" smooth="yes"/>
      <point x="640" y="1260"/>
      <point x="680" y="1235"/>
      <point x="680" y="1184" type="curve" smooth="yes"/>
      <point x="680" y="455" type="line"/>
      <point x="731" y="424"/>
      <point x="757" y="378"/>
      <point x="757" y="317" type="curve" smooth="yes"/>
      <point x="757" y="230"/>
      <point x="687" y="160"/>
    </contour>
    <contour>
      <point x="600" y="199" type="curve" smooth="yes"/>
      <point x="659" y="199"/>
      <point x="718" y="239"/>
      <point x="718" y="317" type="curve" smooth="yes"/>
      <point x="718" y="372"/>
      <point x="692" y="409"/>
      <point x="639" y="428" type="curve"/>
      <point x="639" y="829" type="line" smooth="yes"/>
      <point x="639" y="855"/>
      <point x="626" y="868"/>
      <point x="600" y="868" type="curve" smooth="yes"/>
      <point x="574" y="868"/>
      <point x="562" y="855"/>
      <point x="562" y="829" type="curve" smooth="yes"/>
      <point x="562" y="428" type="line"/>
      <point x="508" y="409"/>
      <point x="482" y="372"/>
      <point x="482" y="317" type="curve" smooth="yes"/>
      <point x="482" y="239"/>
      <point x="541" y="199"/>
    </contour>
  </outline>
</glyph>
<glyph name="uniE20B" format="2">
  <advance width="1200"/>
  <unicode hex="E20B"/>
  <note>
uniE20B
</note>
  <outline>
    <contour>
      <point x="600" y="121" type="curve" smooth="yes"/>
      <point x="709" y="121"/>
      <point x="796" y="208"/>
      <point x="796" y="317" type="curve" smooth="yes"/>
      <point x="796" y="383"/>
      <point x="770" y="435"/>
      <point x="718" y="474" type="curve"/>
      <point x="718" y="1181" type="line" smooth="yes"/>
      <point x="718" y="1261"/>
      <point x="661" y="1299"/>
      <point x="602" y="1299" type="curve" smooth="yes"/>
      <point x="542" y="1299"/>
      <point x="482" y="1259"/>
      <point x="482" y="1181" type="curve" smooth="yes"/>
      <point x="482" y="474" type="line"/>
      <point x="431" y="435"/>
      <point x="405" y="383"/>
      <point x="405" y="317" type="curve" smooth="yes"/>
      <point x="405" y="208"/>
      <point x="491" y="121"/>
    </contour>
    <contour>
      <point x="600" y="160" type="curve" smooth="yes"/>
      <point x="513" y="160"/>
      <point x="443" y="233"/>
      <point x="443" y="317" type="curve" smooth="yes"/>
      <point x="443" y="378"/>
      <point x="469" y="424"/>
      <point x="520" y="455" type="curve"/>
      <point x="520" y="1181" type="line" smooth="yes"/>
      <point x="520" y="1223"/>
      <point x="555" y="1261"/>
      <point x="600" y="1261" type="curve" smooth="yes"/>
      <point x="642" y="1261"/>
      <point x="677" y="1227"/>
      <point x="677" y="1181" type="curve" smooth="yes"/>
      <point x="677" y="455" type="line"/>
      <point x="731" y="426"/>
      <point x="757" y="380"/>
      <point x="757" y="317" type="curve" smooth="yes"/>
      <point x="757" y="233"/>
      <point x="687" y="160"/>
    </contour>
    <contour>
      <point x="600" y="202" type="curve" smooth="yes"/>
      <point x="659" y="202"/>
      <point x="718" y="240"/>
      <point x="718" y="317" type="curve" smooth="yes"/>
      <point x="718" y="372"/>
      <point x="692" y="409"/>
      <point x="639" y="428" type="curve"/>
      <point x="639" y="1090" type="line" smooth="yes"/>
      <point x="639" y="1117"/>
      <point x="626" y="1131"/>
      <point x="600" y="1131" type="curve" smooth="yes"/>
      <point x="574" y="1131"/>
      <point x="562" y="1117"/>
      <point x="562" y="1090" type="curve" smooth="yes"/>
      <point x="562" y="428" type="line"/>
      <point x="508" y="409"/>
      <point x="482" y="372"/>
      <point x="482" y="317" type="curve" smooth="yes"/>
      <point x="482" y="240"/>
      <point x="541" y="202"/>
    </contour>
  </outline>
</glyph>
<glyph name="uniE20C" format="2">
  <advance width="1200"/>
  <unicode hex="E20C"/>
  <note>
uniE20C
</note>
  <outline>
    <contour>
      <point x="600" y="117" type="curve" smooth="yes"/>
      <point x="709" y="117"/>
      <point x="798" y="205"/>
      <point x="798" y="315" type="curve" smooth="yes"/>
      <point x="798" y="382"/>
      <point x="772" y="435"/>
      <point x="718" y="472" type="curve"/>
      <point x="718" y="1186" type="line" smooth="yes"/>
      <point x="718" y="1265"/>
      <point x="661" y="1303"/>
      <point x="602" y="1303" type="curve" smooth="yes"/>
      <point x="542" y="1303"/>
      <point x="482" y="1264"/>
      <point x="482" y="1186" type="curve" smooth="yes"/>
      <point x="482" y="474" type="line"/>
      <point x="429" y="434"/>
      <point x="402" y="380"/>
      <point x="402" y="315" type="curve" smooth="yes"/>
      <point x="402" y="205"/>
      <point x="491" y="117"/>
    </contour>
    <contour>
      <point x="600" y="155" type="curve" smooth="yes"/>
      <point x="513" y="155"/>
      <point x="441" y="228"/>
      <point x="441" y="315" type="curve" smooth="yes"/>
      <point x="441" y="376"/>
      <point x="467" y="421"/>
      <point x="520" y="452" type="curve"/>
      <point x="520" y="1186" type="line" smooth="yes"/>
      <point x="520" y="1239"/>
      <point x="560" y="1265"/>
      <point x="600" y="1265" type="curve" smooth="yes"/>
      <point x="640" y="1265"/>
      <point x="680" y="1239"/>
      <point x="680" y="1186" type="curve" smooth="yes"/>
      <point x="680" y="452" type="line"/>
      <point x="731" y="421"/>
      <point x="757" y="376"/>
      <point x="757" y="315" type="curve" smooth="yes"/>
      <point x="760" y="228"/>
      <point x="687" y="155"/>
    </contour>
    <contour>
      <point x="600" y="197" type="curve" smooth="yes"/>
      <point x="659" y="197"/>
      <point x="718" y="236"/>
      <point x="718" y="315" type="curve" smooth="yes"/>
      <point x="718" y="370"/>
      <point x="692" y="406"/>
      <point x="639" y="426" type="curve"/>
      <point x="639" y="571" type="line" smooth="yes"/>
      <point x="639" y="597"/>
      <point x="626" y="609"/>
      <point x="600" y="609" type="curve" smooth="yes"/>
      <point x="574" y="609"/>
      <point x="562" y="597"/>
      <point x="562" y="571" type="curve" smooth="yes"/>
      <point x="562" y="426" type="line"/>
      <point x="508" y="406"/>
      <point x="482" y="370"/>
      <point x="482" y="315" type="curve" smooth="yes"/>
      <point x="482" y="236"/>
      <point x="541" y="197"/>
    </contour>
  </outline>
</glyph>
<glyph name="uniE20D" format="2">
  <advance width="1200"/>
  <unicode hex="E20D"/>
  <note>
uniE20D
</note>
  <outline>
    <contour>
      <point x="1129" y="117" type="curve" smooth="yes"/>
      <point x="1162" y="117"/>
      <point x="1192" y="148"/>
      <point x="1192" y="181" type="curve" smooth="yes"/>
      <point x="1192" y="195"/>
      <point x="1187" y="210"/>
      <point x="1174" y="222" type="curve" smooth="yes"/>
      <point x="689" y="710" type="line"/>
      <point x="1174" y="1195" type="line"/>
      <point x="1186" y="1209"/>
      <point x="1192" y="1224"/>
      <point x="1192" y="1238" type="curve" smooth="yes"/>
      <point x="1192" y="1273"/>
      <point x="1161" y="1302"/>
      <point x="1129" y="1302" type="curve" smooth="yes"/>
      <point x="1114" y="1302"/>
      <point x="1100" y="1297"/>
      <point x="1087" y="1282" type="curve"/>
      <point x="602" y="797" type="line"/>
      <point x="117" y="1282" type="line"/>
      <point x="104" y="1297"/>
      <point x="89" y="1303"/>
      <point x="74" y="1303" type="curve" smooth="yes"/>
      <point x="41" y="1303"/>
      <point x="9" y="1271"/>
      <point x="9" y="1238" type="curve" smooth="yes"/>
      <point x="9" y="1223"/>
      <point x="14" y="1209"/>
      <point x="27" y="1195" type="curve" smooth="yes"/>
      <point x="513" y="710" type="line"/>
      <point x="27" y="222" type="line"/>
      <point x="15" y="211"/>
      <point x="8" y="196"/>
      <point x="8" y="179" type="curve" smooth="yes"/>
      <point x="8" y="161"/>
      <point x="15" y="147"/>
      <point x="27" y="135" type="curve" smooth="yes"/>
      <point x="39" y="124"/>
      <point x="53" y="119"/>
      <point x="71" y="119" type="curve" smooth="yes"/>
      <point x="90" y="119"/>
      <point x="105" y="124"/>
      <point x="117" y="135" type="curve" smooth="yes"/>
      <point x="602" y="621" type="line"/>
      <point x="1087" y="135" type="line" smooth="yes"/>
      <point x="1100" y="123"/>
      <point x="1114" y="117"/>
    </contour>
  </outline>
</glyph>
<glyph name="uniE20E" format="2">
  <advance width="1200"/>
  <unicode hex="E20E"/>
  <note>
uniE20E
</note>
  <outline>
    <contour>
      <point x="315" y="1128" type="curve" smooth="yes"/>
      <point x="315" y="865" type="line"/>
      <point x="885" y="865" type="line"/>
      <point x="885" y="1128" type="line" smooth="yes"/>
      <point x="885" y="1227"/>
      <point x="805" y="1306"/>
      <point x="709" y="1306" type="curve" smooth="yes"/>
      <point x="491" y="1306" type="line" smooth="yes"/>
      <point x="392" y="1306"/>
      <point x="315" y="1227"/>
    </contour>
    <contour>
      <point x="354" y="114" type="curve" smooth="yes"/>
      <point x="846" y="114" type="line" smooth="yes"/>
      <point x="859" y="114"/>
      <point x="870" y="119"/>
      <point x="878" y="128" type="curve"/>
      <point x="882" y="136"/>
      <point x="885" y="144"/>
      <point x="885" y="151" type="curve" smooth="yes"/>
      <point x="885" y="156"/>
      <point x="884" y="160"/>
      <point x="882" y="164" type="curve" smooth="yes"/>
      <point x="861" y="222"/>
      <point x="823" y="266"/>
      <point x="767" y="295" type="curve"/>
      <point x="767" y="401" type="line"/>
      <point x="896" y="428"/>
      <point x="936" y="524"/>
      <point x="989" y="635" type="curve"/>
      <point x="1013" y="635" type="line" smooth="yes"/>
      <point x="1051" y="635"/>
      <point x="1080" y="664"/>
      <point x="1080" y="703" type="curve" smooth="yes"/>
      <point x="1080" y="742"/>
      <point x="1063" y="763"/>
      <point x="1027" y="768" type="curve"/>
      <point x="173" y="768" type="line"/>
      <point x="137" y="763"/>
      <point x="120" y="742"/>
      <point x="120" y="703" type="curve" smooth="yes"/>
      <point x="120" y="664"/>
      <point x="149" y="635"/>
      <point x="185" y="635" type="curve" smooth="yes"/>
      <point x="211" y="635" type="line"/>
      <point x="257" y="536"/>
      <point x="272" y="503"/>
      <point x="330" y="452" type="curve" smooth="yes"/>
      <point x="359" y="426"/>
      <point x="393" y="408"/>
      <point x="433" y="399" type="curve"/>
      <point x="433" y="295" type="line"/>
      <point x="377" y="266"/>
      <point x="339" y="222"/>
      <point x="317" y="164" type="curve" smooth="yes"/>
      <point x="316" y="160"/>
      <point x="315" y="156"/>
      <point x="315" y="151" type="curve" smooth="yes"/>
      <point x="315" y="144"/>
      <point x="317" y="136"/>
      <point x="322" y="128" type="curve"/>
      <point x="330" y="119"/>
      <point x="341" y="114"/>
    </contour>
  </outline>
</glyph>
<glyph name="uniE20F" format="2">
  <advance width="1200"/>
  <unicode hex="E20F"/>
  <note>
uniE20F
</note>
  <outline>
    <contour>
      <point x="1027" y="125" type="curve" smooth="yes"/>
      <point x="1072" y="125"/>
      <point x="1111" y="141"/>
      <point x="1143" y="173" type="curve" smooth="yes"/>
      <point x="1174" y="205"/>
      <point x="1189" y="243"/>
      <point x="1189" y="286" type="curve" smooth="yes"/>
      <point x="1189" y="330"/>
      <point x="1174" y="368"/>
      <point x="1143" y="400" type="curve" smooth="yes"/>
      <point x="559" y="984" type="line"/>
      <point x="561" y="993"/>
      <point x="561" y="1004"/>
      <point x="561" y="1017" type="curve" smooth="yes"/>
      <point x="561" y="1031"/>
      <point x="561" y="1046"/>
      <point x="559" y="1064" type="curve"/>
      <point x="547" y="1125"/>
      <point x="522" y="1176"/>
      <point x="481" y="1216" type="curve" smooth="yes"/>
      <point x="425" y="1270"/>
      <point x="359" y="1296"/>
      <point x="285" y="1296" type="curve" smooth="yes"/>
      <point x="279" y="1296"/>
      <point x="273" y="1296"/>
      <point x="267" y="1296" type="curve" smooth="yes"/>
      <point x="241" y="1294"/>
      <point x="228" y="1279"/>
      <point x="228" y="1261" type="curve" smooth="yes"/>
      <point x="228" y="1250"/>
      <point x="233" y="1237"/>
      <point x="245" y="1226" type="curve" smooth="yes"/>
      <point x="349" y="1122" type="line" smooth="yes"/>
      <point x="361" y="1109"/>
      <point x="368" y="1094"/>
      <point x="368" y="1077" type="curve" smooth="yes"/>
      <point x="368" y="1060"/>
      <point x="361" y="1045"/>
      <point x="349" y="1032" type="curve" smooth="yes"/>
      <point x="283" y="965" type="line" smooth="yes"/>
      <point x="271" y="952"/>
      <point x="256" y="946"/>
      <point x="239" y="946" type="curve" smooth="yes"/>
      <point x="222" y="946"/>
      <point x="207" y="952"/>
      <point x="194" y="965" type="curve" smooth="yes"/>
      <point x="85" y="1073" type="line" smooth="yes"/>
      <point x="73" y="1086"/>
      <point x="60" y="1091"/>
      <point x="47" y="1091" type="curve" smooth="yes"/>
      <point x="30" y="1091"/>
      <point x="15" y="1079"/>
      <point x="13" y="1054" type="curve" smooth="yes"/>
      <point x="11" y="1041"/>
      <point x="11" y="1028"/>
      <point x="11" y="1016" type="curve" smooth="yes"/>
      <point x="11" y="943"/>
      <point x="38" y="880"/>
      <point x="93" y="825" type="curve" smooth="yes"/>
      <point x="139" y="778"/>
      <point x="196" y="752"/>
      <point x="262" y="748" type="curve" smooth="yes"/>
      <point x="273" y="746"/>
      <point x="283" y="746"/>
      <point x="293" y="746" type="curve" smooth="yes"/>
      <point x="309" y="746"/>
      <point x="323" y="747"/>
      <point x="337" y="750" type="curve"/>
      <point x="914" y="173" type="line" smooth="yes"/>
      <point x="946" y="141"/>
      <point x="984" y="125"/>
    </contour>
    <contour>
      <point x="723" y="900" type="line"/>
      <point x="788" y="834" type="line"/>
      <point x="967" y="1013" type="line"/>
      <point x="1005" y="1020" type="line" smooth="yes"/>
      <point x="1033" y="1025"/>
      <point x="1060" y="1049"/>
      <point x="1087" y="1093" type="curve" smooth="yes"/>
      <point x="1148" y="1185" type="line" smooth="yes"/>
      <point x="1170" y="1216"/>
      <point x="1180" y="1238"/>
      <point x="1180" y="1252" type="curve" smooth="yes"/>
      <point x="1180" y="1256"/>
      <point x="1179" y="1259"/>
      <point x="1177" y="1262" type="curve" smooth="yes"/>
      <point x="1162" y="1274" type="line"/>
      <point x="1150" y="1288" type="line"/>
      <point x="1147" y="1291"/>
      <point x="1144" y="1292"/>
      <point x="1139" y="1292" type="curve" smooth="yes"/>
      <point x="1125" y="1292"/>
      <point x="1103" y="1281"/>
      <point x="1073" y="1259" type="curve" smooth="yes"/>
      <point x="981" y="1199" type="line" smooth="yes"/>
      <point x="940" y="1172"/>
      <point x="915" y="1145"/>
      <point x="909" y="1119" type="curve"/>
      <point x="902" y="1078" type="line"/>
    </contour>
    <contour>
      <point x="146" y="125" type="curve" smooth="yes"/>
      <point x="181" y="125"/>
      <point x="217" y="138"/>
      <point x="242" y="163" type="curve" smooth="yes"/>
      <point x="542" y="463" type="line"/>
      <point x="544" y="463"/>
      <point x="544" y="463"/>
      <point x="544" y="465" type="curve"/>
      <point x="397" y="612" type="line"/>
      <point x="351" y="656" type="line"/>
      <point x="351" y="654"/>
      <point x="350" y="653"/>
      <point x="349" y="653" type="curve"/>
      <point x="49" y="354" type="line" smooth="yes"/>
      <point x="24" y="327"/>
      <point x="11" y="292"/>
      <point x="11" y="257" type="curve" smooth="yes"/>
      <point x="11" y="223"/>
      <point x="23" y="189"/>
      <point x="49" y="163" type="curve" smooth="yes"/>
      <point x="75" y="138"/>
      <point x="110" y="125"/>
    </contour>
  </outline>
</glyph>
<glyph name="uniE210" format="2">
  <advance width="1200"/>
  <unicode hex="E210"/>
  <note>
uniE210
</note>
  <outline>
    <contour>
      <point x="786" y="116" type="curve" smooth="yes"/>
      <point x="801" y="116"/>
      <point x="821" y="125"/>
      <point x="841" y="141" type="curve" smooth="yes"/>
      <point x="882" y="175" type="line" smooth="yes"/>
      <point x="972" y="248"/>
      <point x="1008" y="390"/>
      <point x="1008" y="502" type="curve" smooth="yes"/>
      <point x="1008" y="528"/>
      <point x="1007" y="552"/>
      <point x="1003" y="573" type="curve" smooth="yes"/>
      <point x="988" y="660" type="line"/>
      <point x="1051" y="740"/>
      <point x="1084" y="840"/>
      <point x="1084" y="935" type="curve" smooth="yes"/>
      <point x="1084" y="1000"/>
      <point x="1068" y="1064"/>
      <point x="1037" y="1116" type="curve" smooth="yes"/>
      <point x="996" y="1189"/>
      <point x="947" y="1245"/>
      <point x="887" y="1285" type="curve"/>
      <point x="866" y="1298"/>
      <point x="845" y="1305"/>
      <point x="825" y="1305" type="curve" smooth="yes"/>
      <point x="806" y="1305"/>
      <point x="786" y="1298"/>
      <point x="766" y="1285" type="curve" smooth="yes"/>
      <point x="670" y="1227" type="line" smooth="yes"/>
      <point x="647" y="1215"/>
      <point x="624" y="1208"/>
      <point x="600" y="1208" type="curve" smooth="yes"/>
      <point x="576" y="1208"/>
      <point x="552" y="1215"/>
      <point x="530" y="1227" type="curve" smooth="yes"/>
      <point x="433" y="1285" type="line" smooth="yes"/>
      <point x="414" y="1298"/>
      <point x="394" y="1305"/>
      <point x="374" y="1305" type="curve" smooth="yes"/>
      <point x="354" y="1305"/>
      <point x="334" y="1298"/>
      <point x="312" y="1285" type="curve"/>
      <point x="253" y="1245"/>
      <point x="203" y="1189"/>
      <point x="163" y="1116" type="curve" smooth="yes"/>
      <point x="131" y="1064"/>
      <point x="116" y="1000"/>
      <point x="116" y="935" type="curve" smooth="yes"/>
      <point x="116" y="840"/>
      <point x="148" y="740"/>
      <point x="211" y="660" type="curve"/>
      <point x="202" y="605"/>
      <point x="200" y="610"/>
      <point x="195" y="534" type="curve" smooth="yes"/>
      <point x="195" y="520"/>
      <point x="194" y="505"/>
      <point x="194" y="491" type="curve" smooth="yes"/>
      <point x="194" y="464"/>
      <point x="196" y="437"/>
      <point x="199" y="411" type="curve" smooth="yes"/>
      <point x="209" y="334"/>
      <point x="250" y="233"/>
      <point x="317" y="175" type="curve"/>
      <point x="384" y="141"/>
      <point x="339" y="138"/>
      <point x="413" y="119" type="curve" smooth="yes"/>
      <point x="416" y="118"/>
      <point x="419" y="118"/>
      <point x="422" y="118" type="curve" smooth="yes"/>
      <point x="438" y="118"/>
      <point x="442" y="135"/>
      <point x="446" y="161" type="curve" smooth="yes"/>
      <point x="447" y="164"/>
      <point x="447" y="168"/>
      <point x="447" y="172" type="curve" smooth="yes"/>
      <point x="447" y="187"/>
      <point x="443" y="207"/>
      <point x="436" y="233" type="curve"/>
      <point x="429" y="246"/>
      <point x="426" y="269"/>
      <point x="426" y="297" type="curve" smooth="yes"/>
      <point x="426" y="340"/>
      <point x="433" y="394"/>
      <point x="443" y="444" type="curve" smooth="yes"/>
      <point x="459" y="526"/>
      <point x="519" y="603"/>
      <point x="600" y="609" type="curve"/>
      <point x="680" y="603"/>
      <point x="740" y="526"/>
      <point x="757" y="444" type="curve" smooth="yes"/>
      <point x="766" y="394"/>
      <point x="773" y="340"/>
      <point x="773" y="297" type="curve" smooth="yes"/>
      <point x="773" y="269"/>
      <point x="770" y="246"/>
      <point x="764" y="233" type="curve"/>
      <point x="756" y="204"/>
      <point x="753" y="182"/>
      <point x="753" y="164" type="curve" smooth="yes"/>
      <point x="753" y="131"/>
      <point x="766" y="116"/>
    </contour>
  </outline>
</glyph>
<glyph name="uniE211" format="2">
  <advance width="1200"/>
  <unicode hex="E211"/>
  <note>
uniE211
</note>
  <outline>
    <contour>
      <point x="567" y="260" type="curve" smooth="yes"/>
      <point x="573" y="260"/>
      <point x="579" y="264"/>
      <point x="584" y="273" type="curve"/>
      <point x="590" y="278"/>
      <point x="596" y="280"/>
      <point x="600" y="280" type="curve"/>
      <point x="617" y="273" type="line"/>
      <point x="622" y="265"/>
      <point x="628" y="261"/>
      <point x="633" y="261" type="curve" smooth="yes"/>
      <point x="638" y="261"/>
      <point x="644" y="263"/>
      <point x="649" y="266" type="curve"/>
      <point x="654" y="273" type="line" smooth="yes"/>
      <point x="680" y="309"/>
      <point x="692" y="387"/>
      <point x="692" y="435" type="curve"/>
      <point x="695" y="471" type="line" smooth="yes"/>
      <point x="696" y="491"/>
      <point x="697" y="509"/>
      <point x="697" y="525" type="curve" smooth="yes"/>
      <point x="697" y="566"/>
      <point x="692" y="595"/>
      <point x="685" y="614" type="curve" smooth="yes"/>
      <point x="678" y="630" type="line" smooth="yes"/>
      <point x="673" y="642"/>
      <point x="670" y="653"/>
      <point x="670" y="664" type="curve" smooth="yes"/>
      <point x="670" y="676"/>
      <point x="673" y="686"/>
      <point x="678" y="696" type="curve" smooth="yes"/>
      <point x="683" y="708" type="line"/>
      <point x="708" y="734"/>
      <point x="736" y="775"/>
      <point x="745" y="797" type="curve"/>
      <point x="755" y="812" type="line" smooth="yes"/>
      <point x="777" y="840"/>
      <point x="791" y="907"/>
      <point x="794" y="949" type="curve" smooth="yes"/>
      <point x="796" y="981" type="line" smooth="yes"/>
      <point x="803" y="1035"/>
      <point x="881" y="1072"/>
      <point x="938" y="1082" type="curve"/>
      <point x="984" y="1087" type="line"/>
      <point x="1021" y="1087"/>
      <point x="1051" y="1081"/>
      <point x="1072" y="1069" type="curve" smooth="yes"/>
      <point x="1094" y="1057"/>
      <point x="1106" y="1044"/>
      <point x="1107" y="1031" type="curve"/>
      <point x="1112" y="1012" type="line"/>
      <point x="1112" y="986"/>
      <point x="1090" y="974"/>
      <point x="1074" y="971" type="curve"/>
      <point x="1062" y="971" type="line"/>
      <point x="1047" y="975"/>
      <point x="1034" y="977"/>
      <point x="1024" y="977" type="curve" smooth="yes"/>
      <point x="1011" y="977"/>
      <point x="1002" y="974"/>
      <point x="996" y="971" type="curve"/>
      <point x="987" y="966" type="line"/>
      <point x="1050" y="937"/>
      <point x="1074" y="901"/>
      <point x="1074" y="871" type="curve" smooth="yes"/>
      <point x="1074" y="854"/>
      <point x="1067" y="840"/>
      <point x="1054" y="828" type="curve" smooth="yes"/>
      <point x="1028" y="804" type="line"/>
      <point x="1036" y="802"/>
      <point x="1044" y="802"/>
      <point x="1052" y="802" type="curve" smooth="yes"/>
      <point x="1101" y="802"/>
      <point x="1131" y="836"/>
      <point x="1136" y="869" type="curve"/>
      <point x="1139" y="898" type="line"/>
      <point x="1171" y="911"/>
      <point x="1187" y="945"/>
      <point x="1187" y="971" type="curve" smooth="yes"/>
      <point x="1187" y="988" type="line" smooth="yes"/>
      <point x="1187" y="1026"/>
      <point x="1167" y="1064"/>
      <point x="1151" y="1077" type="curve"/>
      <point x="1141" y="1089" type="line" smooth="yes"/>
      <point x="1103" y="1137"/>
      <point x="1040" y="1159"/>
      <point x="1001" y="1159" type="curve" smooth="yes"/>
      <point x="975" y="1159" type="line" smooth="yes"/>
      <point x="914" y="1156"/>
      <point x="852" y="1138"/>
      <point x="830" y="1125" type="curve" smooth="yes"/>
      <point x="813" y="1116" type="line"/>
      <point x="794" y="1107"/>
      <point x="773" y="1104"/>
      <point x="756" y="1104" type="curve" smooth="yes"/>
      <point x="748" y="1104"/>
      <point x="741" y="1105"/>
      <point x="736" y="1106" type="curve" smooth="yes"/>
      <point x="724" y="1109" type="line"/>
      <point x="704" y="1118"/>
      <point x="657" y="1123"/>
      <point x="625" y="1123" type="curve" smooth="yes"/>
      <point x="600" y="1123" type="line" smooth="yes"/>
      <point x="539" y="1123"/>
      <point x="498" y="1118"/>
      <point x="477" y="1109" type="curve"/>
      <point x="467" y="1105"/>
      <point x="456" y="1104"/>
      <point x="445" y="1104" type="curve" smooth="yes"/>
      <point x="427" y="1104"/>
      <point x="408" y="1108"/>
      <point x="388" y="1116" type="curve"/>
      <point x="349" y="1140"/>
      <point x="296" y="1154"/>
      <point x="226" y="1159" type="curve" smooth="yes"/>
      <point x="219" y="1160"/>
      <point x="211" y="1160"/>
      <point x="204" y="1160" type="curve" smooth="yes"/>
      <point x="145" y="1160"/>
      <point x="97" y="1136"/>
      <point x="60" y="1089" type="curve"/>
      <point x="28" y="1061"/>
      <point x="13" y="1023"/>
      <point x="13" y="977" type="curve" smooth="yes"/>
      <point x="13" y="938"/>
      <point x="29" y="912"/>
      <point x="62" y="898" type="curve"/>
      <point x="62" y="874"/>
      <point x="66" y="851"/>
      <point x="97" y="821" type="curve" smooth="yes"/>
      <point x="110" y="808"/>
      <point x="128" y="802"/>
      <point x="149" y="802" type="curve" smooth="yes"/>
      <point x="156" y="802"/>
      <point x="165" y="802"/>
      <point x="173" y="804" type="curve"/>
      <point x="160" y="811"/>
      <point x="128" y="850"/>
      <point x="128" y="879" type="curve" smooth="yes"/>
      <point x="128" y="904"/>
      <point x="155" y="938"/>
      <point x="214" y="966" type="curve"/>
      <point x="209" y="971"/>
      <point x="192" y="976"/>
      <point x="172" y="976" type="curve" smooth="yes"/>
      <point x="162" y="976"/>
      <point x="150" y="974"/>
      <point x="139" y="971" type="curve"/>
      <point x="108" y="971"/>
      <point x="92" y="985"/>
      <point x="89" y="1012" type="curve"/>
      <point x="89" y="1022"/>
      <point x="99" y="1048"/>
      <point x="118" y="1063" type="curve" smooth="yes"/>
      <point x="134" y="1075"/>
      <point x="171" y="1087"/>
      <point x="217" y="1087" type="curve" smooth="yes"/>
      <point x="223" y="1087"/>
      <point x="251" y="1081"/>
      <point x="279" y="1075" type="curve" smooth="yes"/>
      <point x="300" y="1070"/>
      <point x="319" y="1064"/>
      <point x="335" y="1058" type="curve" smooth="yes"/>
      <point x="367" y="1045"/>
      <point x="402" y="1016"/>
      <point x="405" y="981" type="curve"/>
      <point x="408" y="900"/>
      <point x="422" y="844"/>
      <point x="446" y="812" type="curve"/>
      <point x="465" y="773"/>
      <point x="489" y="738"/>
      <point x="518" y="708" type="curve"/>
      <point x="523" y="699"/>
      <point x="531" y="675"/>
      <point x="531" y="655" type="curve" smooth="yes"/>
      <point x="531" y="645"/>
      <point x="529" y="636"/>
      <point x="523" y="630" type="curve"/>
      <point x="517" y="618"/>
      <point x="510" y="598"/>
      <point x="504" y="560" type="curve" smooth="yes"/>
      <point x="502" y="549"/>
      <point x="501" y="536"/>
      <point x="501" y="524" type="curve" smooth="yes"/>
      <point x="501" y="507"/>
      <point x="503" y="489"/>
      <point x="506" y="471" type="curve"/>
      <point x="506" y="379"/>
      <point x="520" y="314"/>
      <point x="547" y="273" type="curve"/>
      <point x="555" y="264"/>
      <point x="561" y="260"/>
    </contour>
    <contour>
      <point x="581" y="295" type="curve"/>
      <point x="581" y="292" type="line"/>
      <point x="558" y="312"/>
      <point x="547" y="422"/>
      <point x="547" y="516" type="curve" smooth="yes"/>
      <point x="547" y="528"/>
      <point x="547" y="540"/>
      <point x="547" y="551" type="curve" smooth="yes"/>
      <point x="547" y="623" type="line"/>
      <point x="554" y="621"/>
      <point x="560" y="620"/>
      <point x="565" y="620" type="curve" smooth="yes"/>
      <point x="584" y="620"/>
      <point x="591" y="634"/>
      <point x="591" y="650" type="curve" smooth="yes"/>
      <point x="591" y="652"/>
      <point x="591" y="655"/>
      <point x="591" y="657" type="curve" smooth="yes"/>
      <point x="586" y="676" type="line"/>
      <point x="586" y="837"/>
      <point x="530" y="970"/>
      <point x="485" y="1012" type="curve" smooth="yes"/>
      <point x="453" y="1043" type="line"/>
      <point x="486" y="1033"/>
      <point x="529" y="1028"/>
      <point x="559" y="1028" type="curve" smooth="yes"/>
      <point x="566" y="1028"/>
      <point x="573" y="1028"/>
      <point x="579" y="1029" type="curve" smooth="yes"/>
      <point x="600" y="1029" type="line"/>
      <point x="615" y="1027"/>
      <point x="629" y="1026"/>
      <point x="644" y="1026" type="curve" smooth="yes"/>
      <point x="680" y="1026"/>
      <point x="715" y="1032"/>
      <point x="748" y="1043" type="curve"/>
      <point x="738" y="1037"/>
      <point x="726" y="1026"/>
      <point x="711" y="1010" type="curve" smooth="yes"/>
      <point x="683" y="978"/>
      <point x="615" y="837"/>
      <point x="615" y="676" type="curve"/>
      <point x="613" y="670"/>
      <point x="612" y="662"/>
      <point x="612" y="655" type="curve" smooth="yes"/>
      <point x="612" y="638"/>
      <point x="619" y="620"/>
      <point x="637" y="620" type="curve" smooth="yes"/>
      <point x="642" y="620"/>
      <point x="648" y="621"/>
      <point x="654" y="623" type="curve"/>
      <point x="654" y="594"/>
      <point x="655" y="566"/>
      <point x="655" y="541" type="curve" smooth="yes"/>
      <point x="655" y="397"/>
      <point x="643" y="314"/>
      <point x="620" y="292" type="curve"/>
      <point x="600" y="304" type="line"/>
      <point x="591" y="304"/>
      <point x="584" y="301"/>
    </contour>
    <contour>
      <point x="952" y="800" type="curve" smooth="yes"/>
      <point x="975" y="800"/>
      <point x="1001" y="807"/>
      <point x="1025" y="822" type="curve" smooth="yes"/>
      <point x="1047" y="837"/>
      <point x="1057" y="854"/>
      <point x="1057" y="871" type="curve" smooth="yes"/>
      <point x="1057" y="911"/>
      <point x="1008" y="950"/>
      <point x="951" y="950" type="curve" smooth="yes"/>
      <point x="927" y="950"/>
      <point x="901" y="943"/>
      <point x="877" y="926" type="curve" smooth="yes"/>
      <point x="855" y="912"/>
      <point x="846" y="894"/>
      <point x="846" y="877" type="curve" smooth="yes"/>
      <point x="846" y="837"/>
      <point x="894" y="800"/>
    </contour>
    <contour>
      <point x="250" y="799" type="curve" smooth="yes"/>
      <point x="274" y="799"/>
      <point x="300" y="806"/>
      <point x="324" y="822" type="curve" smooth="yes"/>
      <point x="346" y="837"/>
      <point x="355" y="854"/>
      <point x="355" y="872" type="curve" smooth="yes"/>
      <point x="355" y="911"/>
      <point x="306" y="949"/>
      <point x="249" y="949" type="curve" smooth="yes"/>
      <point x="226" y="949"/>
      <point x="200" y="942"/>
      <point x="175" y="926" type="curve" smooth="yes"/>
      <point x="154" y="912"/>
      <point x="144" y="894"/>
      <point x="144" y="877" type="curve" smooth="yes"/>
      <point x="144" y="837"/>
      <point x="193" y="799"/>
    </contour>
  </outline>
</glyph>
<glyph name="uniE212" format="2">
  <advance width="1200"/>
  <unicode hex="E212"/>
  <note>
uniE212
</note>
  <outline>
    <contour>
      <point x="603" y="143" type="curve" smooth="yes"/>
      <point x="610" y="143"/>
      <point x="615" y="144"/>
      <point x="617" y="146" type="curve"/>
      <point x="1163" y="353" type="line" smooth="yes"/>
      <point x="1171" y="356"/>
      <point x="1177" y="362"/>
      <point x="1182" y="370" type="curve" smooth="yes"/>
      <point x="1187" y="378"/>
      <point x="1189" y="385"/>
      <point x="1189" y="392" type="curve" smooth="yes"/>
      <point x="1189" y="1237" type="line" smooth="yes"/>
      <point x="1189" y="1250"/>
      <point x="1185" y="1259"/>
      <point x="1177" y="1266" type="curve"/>
      <point x="1171" y="1274"/>
      <point x="1161" y="1278"/>
      <point x="1148" y="1278" type="curve" smooth="yes"/>
      <point x="52" y="1278" type="line" smooth="yes"/>
      <point x="39" y="1278"/>
      <point x="30" y="1274"/>
      <point x="23" y="1266" type="curve" smooth="yes"/>
      <point x="15" y="1258"/>
      <point x="11" y="1248"/>
      <point x="11" y="1237" type="curve" smooth="yes"/>
      <point x="11" y="392" type="line" smooth="yes"/>
      <point x="11" y="385"/>
      <point x="13" y="378"/>
      <point x="18" y="370" type="curve" smooth="yes"/>
      <point x="21" y="365"/>
      <point x="28" y="360"/>
      <point x="38" y="353" type="curve"/>
      <point x="588" y="146" type="line"/>
      <point x="590" y="144"/>
      <point x="595" y="143"/>
    </contour>
    <contour>
      <point x="943" y="595" type="curve" smooth="yes"/>
      <point x="898" y="595"/>
      <point x="861" y="612"/>
      <point x="832" y="645" type="curve" smooth="yes"/>
      <point x="803" y="682"/>
      <point x="788" y="728"/>
      <point x="788" y="783" type="curve" smooth="yes"/>
      <point x="788" y="838"/>
      <point x="803" y="884"/>
      <point x="832" y="921" type="curve" smooth="yes"/>
      <point x="863" y="956"/>
      <point x="900" y="974"/>
      <point x="943" y="974" type="curve" smooth="yes"/>
      <point x="996" y="974"/>
      <point x="1037" y="945"/>
      <point x="1064" y="889" type="curve" smooth="yes"/>
      <point x="1066" y="885"/>
      <point x="1067" y="881"/>
      <point x="1067" y="877" type="curve" smooth="yes"/>
      <point x="1067" y="875"/>
      <point x="1067" y="874"/>
      <point x="1066" y="872" type="curve"/>
      <point x="1063" y="868"/>
      <point x="1059" y="863"/>
      <point x="1054" y="860" type="curve"/>
      <point x="1011" y="841" type="line"/>
      <point x="1008" y="839"/>
      <point x="1005" y="839"/>
      <point x="1002" y="839" type="curve" smooth="yes"/>
      <point x="999" y="839"/>
      <point x="996" y="839"/>
      <point x="994" y="841" type="curve"/>
      <point x="987" y="844"/>
      <point x="984" y="848"/>
      <point x="984" y="851" type="curve"/>
      <point x="970" y="872" type="line"/>
      <point x="962" y="880"/>
      <point x="953" y="884"/>
      <point x="943" y="884" type="curve" smooth="yes"/>
      <point x="925" y="884"/>
      <point x="912" y="875"/>
      <point x="902" y="855" type="curve"/>
      <point x="890" y="838"/>
      <point x="885" y="814"/>
      <point x="885" y="783" type="curve" smooth="yes"/>
      <point x="885" y="752"/>
      <point x="890" y="728"/>
      <point x="902" y="711" type="curve"/>
      <point x="910" y="693"/>
      <point x="924" y="684"/>
      <point x="943" y="684" type="curve" smooth="yes"/>
      <point x="956" y="684"/>
      <point x="965" y="688"/>
      <point x="972" y="696" type="curve"/>
      <point x="976" y="703"/>
      <point x="986" y="723"/>
      <point x="994" y="730" type="curve" smooth="yes"/>
      <point x="996" y="732"/>
      <point x="999" y="732"/>
      <point x="1002" y="732" type="curve" smooth="yes"/>
      <point x="1005" y="732"/>
      <point x="1008" y="732"/>
      <point x="1011" y="730" type="curve" smooth="yes"/>
      <point x="1054" y="708" type="line"/>
      <point x="1064" y="706"/>
      <point x="1067" y="699"/>
      <point x="1067" y="691" type="curve" smooth="yes"/>
      <point x="1067" y="688"/>
      <point x="1067" y="685"/>
      <point x="1066" y="682" type="curve"/>
      <point x="1039" y="624"/>
      <point x="998" y="595"/>
    </contour>
    <contour>
      <point x="636" y="595" type="curve" smooth="yes"/>
      <point x="610" y="595"/>
      <point x="587" y="600"/>
      <point x="566" y="609" type="curve"/>
      <point x="544" y="622"/>
      <point x="527" y="638"/>
      <point x="516" y="655" type="curve" smooth="yes"/>
      <point x="512" y="660"/>
      <point x="510" y="665"/>
      <point x="510" y="669" type="curve" smooth="yes"/>
      <point x="510" y="674"/>
      <point x="513" y="678"/>
      <point x="518" y="682" type="curve"/>
      <point x="552" y="715" type="line" smooth="yes"/>
      <point x="555" y="719"/>
      <point x="559" y="721"/>
      <point x="563" y="721" type="curve" smooth="yes"/>
      <point x="564" y="721"/>
      <point x="565" y="721"/>
      <point x="566" y="720" type="curve"/>
      <point x="573" y="720"/>
      <point x="578" y="718"/>
      <point x="583" y="713" type="curve"/>
      <point x="595" y="694"/>
      <point x="612" y="684"/>
      <point x="636" y="684" type="curve" smooth="yes"/>
      <point x="659" y="684"/>
      <point x="670" y="694"/>
      <point x="670" y="713" type="curve" smooth="yes"/>
      <point x="670" y="716"/>
      <point x="668" y="723"/>
      <point x="665" y="732" type="curve"/>
      <point x="660" y="739"/>
      <point x="649" y="742"/>
      <point x="632" y="742" type="curve" smooth="yes"/>
      <point x="607" y="742" type="line"/>
      <point x="605" y="741"/>
      <point x="603" y="740"/>
      <point x="600" y="740" type="curve" smooth="yes"/>
      <point x="596" y="740"/>
      <point x="593" y="743"/>
      <point x="590" y="747" type="curve"/>
      <point x="586" y="752"/>
      <point x="583" y="756"/>
      <point x="583" y="761" type="curve" smooth="yes"/>
      <point x="583" y="812" type="line" smooth="yes"/>
      <point x="583" y="817"/>
      <point x="586" y="822"/>
      <point x="590" y="827" type="curve" smooth="yes"/>
      <point x="593" y="830"/>
      <point x="600" y="831"/>
      <point x="607" y="831" type="curve" smooth="yes"/>
      <point x="632" y="831" type="line" smooth="yes"/>
      <point x="649" y="831"/>
      <point x="659" y="834"/>
      <point x="660" y="841" type="curve"/>
      <point x="660" y="853"/>
      <point x="664" y="854"/>
      <point x="664" y="859" type="curve" smooth="yes"/>
      <point x="664" y="862"/>
      <point x="663" y="865"/>
      <point x="660" y="872" type="curve" smooth="yes"/>
      <point x="657" y="880"/>
      <point x="648" y="884"/>
      <point x="634" y="884" type="curve" smooth="yes"/>
      <point x="615" y="884"/>
      <point x="598" y="875"/>
      <point x="586" y="855" type="curve"/>
      <point x="581" y="851"/>
      <point x="575" y="848"/>
      <point x="569" y="848" type="curve" smooth="yes"/>
      <point x="566" y="848"/>
      <point x="561" y="850"/>
      <point x="554" y="853" type="curve"/>
      <point x="520" y="884" type="line" smooth="yes"/>
      <point x="517" y="888"/>
      <point x="515" y="892"/>
      <point x="515" y="898" type="curve" smooth="yes"/>
      <point x="515" y="902"/>
      <point x="516" y="906"/>
      <point x="518" y="911" type="curve"/>
      <point x="547" y="951"/>
      <point x="586" y="971"/>
      <point x="636" y="971" type="curve" smooth="yes"/>
      <point x="711" y="971"/>
      <point x="759" y="930"/>
      <point x="759" y="863" type="curve" smooth="yes"/>
      <point x="759" y="851"/>
      <point x="756" y="838"/>
      <point x="750" y="822" type="curve"/>
      <point x="740" y="805"/>
      <point x="732" y="795"/>
      <point x="726" y="790" type="curve"/>
      <point x="735" y="781"/>
      <point x="744" y="769"/>
      <point x="752" y="756" type="curve"/>
      <point x="760" y="740"/>
      <point x="764" y="724"/>
      <point x="764" y="708" type="curve" smooth="yes"/>
      <point x="764" y="674"/>
      <point x="752" y="647"/>
      <point x="728" y="626" type="curve" smooth="yes"/>
      <point x="707" y="605"/>
      <point x="677" y="595"/>
    </contour>
    <contour>
      <point x="260" y="600" type="curve" smooth="yes"/>
      <point x="204" y="600" type="line" smooth="yes"/>
      <point x="191" y="600"/>
      <point x="184" y="605"/>
      <point x="182" y="616" type="curve"/>
      <point x="110" y="942" type="line"/>
      <point x="108" y="945"/>
      <point x="109" y="951"/>
      <point x="112" y="959" type="curve"/>
      <point x="117" y="964"/>
      <point x="123" y="967"/>
      <point x="129" y="967" type="curve" smooth="yes"/>
      <point x="187" y="967" type="line" smooth="yes"/>
      <point x="200" y="967"/>
      <point x="207" y="962"/>
      <point x="207" y="952" type="curve"/>
      <point x="236" y="807" type="line"/>
      <point x="265" y="952" type="line" smooth="yes"/>
      <point x="266" y="962"/>
      <point x="274" y="967"/>
      <point x="286" y="967" type="curve" smooth="yes"/>
      <point x="330" y="967" type="line" smooth="yes"/>
      <point x="339" y="967"/>
      <point x="346" y="962"/>
      <point x="349" y="952" type="curve"/>
      <point x="378" y="807" type="line"/>
      <point x="407" y="952" type="line"/>
      <point x="410" y="962"/>
      <point x="417" y="967"/>
      <point x="426" y="967" type="curve" smooth="yes"/>
      <point x="484" y="967" type="line" smooth="yes"/>
      <point x="491" y="967"/>
      <point x="496" y="964"/>
      <point x="499" y="959" type="curve"/>
      <point x="502" y="956"/>
      <point x="504" y="951"/>
      <point x="504" y="947" type="curve" smooth="yes"/>
      <point x="504" y="945"/>
      <point x="504" y="944"/>
      <point x="504" y="942" type="curve" smooth="yes"/>
      <point x="431" y="616" type="line"/>
      <point x="429" y="605"/>
      <point x="423" y="600"/>
      <point x="412" y="600" type="curve" smooth="yes"/>
      <point x="354" y="600" type="line" smooth="yes"/>
      <point x="342" y="600"/>
      <point x="336" y="605"/>
      <point x="335" y="616" type="curve" smooth="yes"/>
      <point x="308" y="749" type="line"/>
      <point x="279" y="616" type="line" smooth="yes"/>
      <point x="277" y="605"/>
      <point x="271" y="600"/>
    </contour>
  </outline>
</glyph>
<glyph name="uniE213" format="2">
  <advance width="1200"/>
  <unicode hex="E213"/>
  <note>
uniE213
</note>
  <outline>
    <contour>
      <point x="571" y="1111" type="curve" smooth="yes"/>
      <point x="623" y="1111"/>
      <point x="663" y="1162"/>
      <point x="663" y="1210" type="curve"/>
      <point x="660" y="1238"/>
      <point x="650" y="1259"/>
      <point x="634" y="1276" type="curve" smooth="yes"/>
      <point x="615" y="1295"/>
      <point x="592" y="1304"/>
      <point x="566" y="1302" type="curve" smooth="yes"/>
      <point x="540" y="1302"/>
      <point x="519" y="1293"/>
      <point x="501" y="1273" type="curve" smooth="yes"/>
      <point x="484" y="1252"/>
      <point x="475" y="1230"/>
      <point x="475" y="1206" type="curve" smooth="yes"/>
      <point x="475" y="1180"/>
      <point x="484" y="1157"/>
      <point x="504" y="1138" type="curve" smooth="yes"/>
      <point x="521" y="1121"/>
      <point x="544" y="1111"/>
    </contour>
    <contour>
      <point x="361" y="119" type="curve"/>
      <point x="385" y="119"/>
      <point x="404" y="131"/>
      <point x="417" y="155" type="curve"/>
      <point x="523" y="390" type="line"/>
      <point x="523" y="393"/>
      <point x="524" y="396"/>
      <point x="525" y="399" type="curve"/>
      <point x="525" y="401"/>
      <point x="527" y="405"/>
      <point x="530" y="411" type="curve"/>
      <point x="532" y="413"/>
      <point x="533" y="416"/>
      <point x="533" y="421" type="curve"/>
      <point x="545" y="527" type="line"/>
      <point x="549" y="522" type="line"/>
      <point x="612" y="421" type="line"/>
      <point x="673" y="189" type="line"/>
      <point x="679" y="176"/>
      <point x="684" y="168"/>
      <point x="687" y="165" type="curve"/>
      <point x="697" y="151"/>
      <point x="711" y="141"/>
      <point x="731" y="138" type="curve"/>
      <point x="747" y="138"/>
      <point x="760" y="143"/>
      <point x="769" y="151" type="curve" smooth="yes"/>
      <point x="772" y="153" type="line" smooth="yes"/>
      <point x="773" y="155"/>
      <point x="775" y="155"/>
      <point x="776" y="155" type="curve"/>
      <point x="792" y="168"/>
      <point x="799" y="184"/>
      <point x="799" y="203" type="curve" smooth="yes"/>
      <point x="799" y="208"/>
      <point x="799" y="213"/>
      <point x="798" y="218" type="curve" smooth="yes"/>
      <point x="735" y="452" type="line"/>
      <point x="731" y="464" type="line"/>
      <point x="729" y="471"/>
      <point x="728" y="475"/>
      <point x="728" y="476" type="curve"/>
      <point x="726" y="480"/>
      <point x="726" y="484"/>
      <point x="726" y="489" type="curve"/>
      <point x="726" y="489"/>
      <point x="724" y="492"/>
      <point x="721" y="498" type="curve"/>
      <point x="706" y="520" type="line"/>
      <point x="702" y="530" type="line"/>
      <point x="675" y="568" type="line"/>
      <point x="651" y="602" type="line"/>
      <point x="619" y="650" type="line"/>
      <point x="624" y="713" type="line"/>
      <point x="632" y="769" type="line"/>
      <point x="644" y="882" type="line"/>
      <point x="687" y="815" type="line"/>
      <point x="687" y="813"/>
      <point x="691" y="808"/>
      <point x="699" y="800" type="curve"/>
      <point x="846" y="718" type="line"/>
      <point x="866" y="713" type="line"/>
      <point x="878" y="713"/>
      <point x="889" y="718"/>
      <point x="897" y="728" type="curve" smooth="yes"/>
      <point x="905" y="735"/>
      <point x="909" y="746"/>
      <point x="909" y="759" type="curve" smooth="yes"/>
      <point x="909" y="773"/>
      <point x="903" y="785"/>
      <point x="890" y="793" type="curve"/>
      <point x="752" y="868" type="line"/>
      <point x="721" y="916" type="line"/>
      <point x="673" y="996" type="line"/>
      <point x="639" y="1049" type="line"/>
      <point x="618" y="1076"/>
      <point x="591" y="1090"/>
      <point x="557" y="1090" type="curve" smooth="yes"/>
      <point x="537" y="1090"/>
      <point x="516" y="1081"/>
      <point x="494" y="1063" type="curve"/>
      <point x="467" y="1034" type="line"/>
      <point x="323" y="889" type="line"/>
      <point x="319" y="883"/>
      <point x="316" y="875"/>
      <point x="313" y="865" type="curve"/>
      <point x="291" y="674" type="line"/>
      <point x="291" y="667" type="line" smooth="yes"/>
      <point x="291" y="656"/>
      <point x="295" y="646"/>
      <point x="303" y="638" type="curve"/>
      <point x="305" y="635"/>
      <point x="310" y="631"/>
      <point x="320" y="626" type="curve"/>
      <point x="322" y="626"/>
      <point x="324" y="626"/>
      <point x="327" y="625" type="curve" smooth="yes"/>
      <point x="330" y="624"/>
      <point x="333" y="624"/>
      <point x="335" y="624" type="curve" smooth="yes"/>
      <point x="344" y="624"/>
      <point x="354" y="629"/>
      <point x="364" y="638" type="curve" smooth="yes"/>
      <point x="371" y="646"/>
      <point x="376" y="655"/>
      <point x="376" y="665" type="curve"/>
      <point x="380" y="694" type="line"/>
      <point x="388" y="776" type="line"/>
      <point x="395" y="831" type="line"/>
      <point x="455" y="892" type="line"/>
      <point x="431" y="706" type="line"/>
      <point x="422" y="626" type="line"/>
      <point x="409" y="522" type="line"/>
      <point x="400" y="428" type="line"/>
      <point x="301" y="208" type="line"/>
      <point x="298" y="196"/>
      <point x="296" y="187"/>
      <point x="296" y="182" type="curve" smooth="yes"/>
      <point x="296" y="164"/>
      <point x="303" y="149"/>
      <point x="315" y="136" type="curve" smooth="yes"/>
      <point x="327" y="123"/>
      <point x="342" y="117"/>
    </contour>
  </outline>
</glyph>
<glyph name="uniE214" format="2">
  <advance width="1200"/>
  <unicode hex="E214"/>
  <note>
uniE214
</note>
  <outline>
    <contour>
      <point x="601" y="122" type="curve" smooth="yes"/>
      <point x="607" y="122"/>
      <point x="613" y="128"/>
      <point x="619" y="138" type="curve" smooth="yes"/>
      <point x="677" y="239" type="line"/>
      <point x="692" y="260"/>
      <point x="709" y="273"/>
      <point x="728" y="278" type="curve" smooth="yes"/>
      <point x="760" y="288"/>
      <point x="790" y="300"/>
      <point x="817" y="317" type="curve" smooth="yes"/>
      <point x="831" y="324"/>
      <point x="844" y="327"/>
      <point x="858" y="327" type="curve" smooth="yes"/>
      <point x="866" y="327"/>
      <point x="874" y="326"/>
      <point x="882" y="324" type="curve" smooth="yes"/>
      <point x="993" y="295" type="line" smooth="yes"/>
      <point x="997" y="294"/>
      <point x="1001" y="294"/>
      <point x="1004" y="294" type="curve" smooth="yes"/>
      <point x="1014" y="294"/>
      <point x="1019" y="298"/>
      <point x="1019" y="309" type="curve" smooth="yes"/>
      <point x="1019" y="312"/>
      <point x="1019" y="315"/>
      <point x="1018" y="319" type="curve" smooth="yes"/>
      <point x="989" y="430" type="line" smooth="yes"/>
      <point x="986" y="438"/>
      <point x="985" y="446"/>
      <point x="985" y="454" type="curve" smooth="yes"/>
      <point x="985" y="467"/>
      <point x="989" y="481"/>
      <point x="996" y="493" type="curve"/>
      <point x="996" y="495" type="line"/>
      <point x="1010" y="521"/>
      <point x="1023" y="551"/>
      <point x="1035" y="587" type="curve"/>
      <point x="1039" y="608"/>
      <point x="1053" y="625"/>
      <point x="1076" y="638" type="curve" smooth="yes"/>
      <point x="1124" y="667" type="line"/>
      <point x="1172" y="693" type="line" smooth="yes"/>
      <point x="1182" y="699"/>
      <point x="1188" y="705"/>
      <point x="1188" y="711" type="curve" smooth="yes"/>
      <point x="1188" y="717"/>
      <point x="1182" y="723"/>
      <point x="1172" y="729" type="curve"/>
      <point x="1124" y="756" type="line"/>
      <point x="1073" y="785" type="line"/>
      <point x="1052" y="799"/>
      <point x="1039" y="816"/>
      <point x="1035" y="836" type="curve" smooth="yes"/>
      <point x="1025" y="866"/>
      <point x="1011" y="898"/>
      <point x="993" y="930" type="curve"/>
      <point x="987" y="945"/>
      <point x="984" y="959"/>
      <point x="984" y="974" type="curve" smooth="yes"/>
      <point x="984" y="981"/>
      <point x="984" y="988"/>
      <point x="986" y="995" type="curve" smooth="yes"/>
      <point x="1001" y="1048" type="line"/>
      <point x="1015" y="1104" type="line"/>
      <point x="1016" y="1107"/>
      <point x="1017" y="1110"/>
      <point x="1017" y="1112" type="curve" smooth="yes"/>
      <point x="1017" y="1122"/>
      <point x="1010" y="1128"/>
      <point x="998" y="1128" type="curve" smooth="yes"/>
      <point x="995" y="1128"/>
      <point x="993" y="1128"/>
      <point x="991" y="1128" type="curve" smooth="yes"/>
      <point x="936" y="1113" type="line"/>
      <point x="882" y="1099" type="line" smooth="yes"/>
      <point x="873" y="1096"/>
      <point x="865" y="1095"/>
      <point x="857" y="1095" type="curve" smooth="yes"/>
      <point x="843" y="1095"/>
      <point x="829" y="1099"/>
      <point x="817" y="1106" type="curve" smooth="yes"/>
      <point x="786" y="1122"/>
      <point x="755" y="1135"/>
      <point x="723" y="1145" type="curve"/>
      <point x="701" y="1150"/>
      <point x="684" y="1162"/>
      <point x="672" y="1183" type="curve" smooth="yes"/>
      <point x="643" y="1234" type="line"/>
      <point x="617" y="1282" type="line" smooth="yes"/>
      <point x="611" y="1293"/>
      <point x="605" y="1298"/>
      <point x="599" y="1298" type="curve" smooth="yes"/>
      <point x="593" y="1298"/>
      <point x="587" y="1293"/>
      <point x="581" y="1282" type="curve" smooth="yes"/>
      <point x="552" y="1232" type="line"/>
      <point x="523" y="1183" type="line"/>
      <point x="513" y="1162"/>
      <point x="497" y="1149"/>
      <point x="474" y="1142" type="curve" smooth="yes"/>
      <point x="441" y="1133"/>
      <point x="410" y="1120"/>
      <point x="383" y="1104" type="curve" smooth="yes"/>
      <point x="371" y="1096"/>
      <point x="357" y="1093"/>
      <point x="343" y="1093" type="curve" smooth="yes"/>
      <point x="335" y="1093"/>
      <point x="326" y="1094"/>
      <point x="317" y="1096" type="curve" smooth="yes"/>
      <point x="206" y="1125" type="line"/>
      <point x="203" y="1127"/>
      <point x="200" y="1127"/>
      <point x="198" y="1127" type="curve" smooth="yes"/>
      <point x="188" y="1127"/>
      <point x="182" y="1120"/>
      <point x="182" y="1108" type="curve" smooth="yes"/>
      <point x="182" y="1105"/>
      <point x="182" y="1104"/>
      <point x="182" y="1101" type="curve" smooth="yes"/>
      <point x="197" y="1046" type="line"/>
      <point x="214" y="988" type="line" smooth="yes"/>
      <point x="216" y="981"/>
      <point x="217" y="974"/>
      <point x="217" y="967" type="curve" smooth="yes"/>
      <point x="217" y="953"/>
      <point x="212" y="939"/>
      <point x="204" y="925" type="curve"/>
      <point x="204" y="923" type="line"/>
      <point x="189" y="892"/>
      <point x="177" y="862"/>
      <point x="168" y="833" type="curve" smooth="yes"/>
      <point x="161" y="811"/>
      <point x="148" y="795"/>
      <point x="129" y="785" type="curve"/>
      <point x="28" y="727" type="line" smooth="yes"/>
      <point x="17" y="722"/>
      <point x="12" y="716"/>
      <point x="12" y="710" type="curve" smooth="yes"/>
      <point x="12" y="703"/>
      <point x="17" y="697"/>
      <point x="28" y="691" type="curve" smooth="yes"/>
      <point x="129" y="633" type="line" smooth="yes"/>
      <point x="151" y="620"/>
      <point x="165" y="603"/>
      <point x="170" y="582" type="curve"/>
      <point x="206" y="495" type="line"/>
      <point x="214" y="483"/>
      <point x="217" y="470"/>
      <point x="217" y="455" type="curve" smooth="yes"/>
      <point x="217" y="448"/>
      <point x="216" y="439"/>
      <point x="214" y="430" type="curve" smooth="yes"/>
      <point x="199" y="374" type="line"/>
      <point x="185" y="317" type="line"/>
      <point x="183" y="314"/>
      <point x="183" y="311"/>
      <point x="183" y="308" type="curve" smooth="yes"/>
      <point x="183" y="298"/>
      <point x="190" y="292"/>
      <point x="202" y="292" type="curve" smooth="yes"/>
      <point x="205" y="292"/>
      <point x="206" y="292"/>
      <point x="209" y="292" type="curve" smooth="yes"/>
      <point x="264" y="307" type="line"/>
      <point x="322" y="324" type="line" smooth="yes"/>
      <point x="330" y="326"/>
      <point x="336" y="326"/>
      <point x="343" y="326" type="curve" smooth="yes"/>
      <point x="358" y="326"/>
      <point x="372" y="323"/>
      <point x="387" y="317" type="curve"/>
      <point x="387" y="314" type="line"/>
      <point x="418" y="300"/>
      <point x="448" y="288"/>
      <point x="477" y="278" type="curve" smooth="yes"/>
      <point x="498" y="271"/>
      <point x="515" y="259"/>
      <point x="527" y="239" type="curve"/>
      <point x="554" y="189" type="line"/>
      <point x="583" y="138" type="line" smooth="yes"/>
      <point x="588" y="128"/>
      <point x="594" y="122"/>
    </contour>
  </outline>
</glyph>
<glyph name="uniE215" format="2">
  <advance width="1200"/>
  <unicode hex="E215"/>
  <note>
uniE215
</note>
  <outline>
    <contour>
      <point x="600" y="143" type="curve" smooth="yes"/>
      <point x="762" y="143"/>
      <point x="901" y="199"/>
      <point x="1015" y="310" type="curve" smooth="yes"/>
      <point x="1129" y="421"/>
      <point x="1186" y="554"/>
      <point x="1186" y="711" type="curve" smooth="yes"/>
      <point x="1186" y="867"/>
      <point x="1129" y="1000"/>
      <point x="1015" y="1111" type="curve" smooth="yes"/>
      <point x="901" y="1222"/>
      <point x="762" y="1278"/>
      <point x="600" y="1278" type="curve" smooth="yes"/>
      <point x="437" y="1278"/>
      <point x="299" y="1222"/>
      <point x="184" y="1111" type="curve" smooth="yes"/>
      <point x="70" y="1000"/>
      <point x="13" y="867"/>
      <point x="13" y="711" type="curve" smooth="yes"/>
      <point x="13" y="554"/>
      <point x="70" y="421"/>
      <point x="184" y="310" type="curve" smooth="yes"/>
      <point x="299" y="199"/>
      <point x="437" y="143"/>
    </contour>
    <contour>
      <point x="743" y="421" type="curve" smooth="yes"/>
      <point x="737" y="421"/>
      <point x="731" y="422"/>
      <point x="725" y="426" type="curve"/>
      <point x="576" y="537" type="line"/>
      <point x="481" y="452" type="line"/>
      <point x="469" y="450" type="line"/>
      <point x="467" y="447" type="line"/>
      <point x="465" y="447" type="line" smooth="yes"/>
      <point x="458" y="447"/>
      <point x="452" y="457"/>
      <point x="445" y="476" type="curve"/>
      <point x="414" y="589"/>
      <point x="397" y="645"/>
      <point x="392" y="645" type="curve"/>
      <point x="392" y="648" type="line"/>
      <point x="247" y="696" type="line" smooth="yes"/>
      <point x="233" y="701"/>
      <point x="225" y="709"/>
      <point x="223" y="720" type="curve"/>
      <point x="223" y="730"/>
      <point x="233" y="741"/>
      <point x="242" y="744" type="curve" smooth="yes"/>
      <point x="250" y="747" type="line"/>
      <point x="836" y="969" type="line" smooth="yes"/>
      <point x="849" y="974"/>
      <point x="859" y="977"/>
      <point x="867" y="977" type="curve" smooth="yes"/>
      <point x="879" y="977"/>
      <point x="885" y="971"/>
      <point x="885" y="957" type="curve"/>
      <point x="781" y="445" type="line"/>
      <point x="781" y="441"/>
      <point x="769" y="428"/>
      <point x="763" y="426" type="curve" smooth="yes"/>
      <point x="758" y="424"/>
      <point x="751" y="421"/>
    </contour>
    <contour>
      <point x="462" y="457" type="curve"/>
      <point x="479" y="604" type="line"/>
      <point x="484" y="609" type="line" smooth="yes"/>
      <point x="662" y="766"/>
      <point x="756" y="846"/>
      <point x="764" y="853" type="curve"/>
      <point x="771" y="865" type="line"/>
      <point x="771" y="869"/>
      <point x="770" y="872"/>
      <point x="767" y="872" type="curve" smooth="yes"/>
      <point x="766" y="872"/>
      <point x="764" y="871"/>
      <point x="761" y="870" type="curve" smooth="yes"/>
      <point x="752" y="865" type="line"/>
      <point x="399" y="648" type="line"/>
      <point x="402" y="641" type="line" smooth="yes"/>
      <point x="416" y="597"/>
      <point x="433" y="543"/>
      <point x="452" y="479" type="curve"/>
      <point x="457" y="466"/>
      <point x="460" y="459"/>
    </contour>
  </outline>
</glyph>
<glyph name="uniE216" format="2">
  <advance width="1200"/>
  <unicode hex="E216"/>
  <note>
uniE216
</note>
  <outline>
    <contour>
      <point x="356" y="121" type="curve" smooth="yes"/>
      <point x="364" y="121"/>
      <point x="372" y="126"/>
      <point x="380" y="135" type="curve"/>
      <point x="421" y="213" type="line" smooth="yes"/>
      <point x="463" y="290"/>
      <point x="618" y="568"/>
      <point x="699" y="710" type="curve" smooth="yes"/>
      <point x="816" y="923"/>
      <point x="909" y="1089"/>
      <point x="976" y="1207" type="curve"/>
      <point x="976" y="1215" type="line" smooth="yes"/>
      <point x="976" y="1224"/>
      <point x="971" y="1232"/>
      <point x="962" y="1239" type="curve"/>
      <point x="959" y="1239"/>
      <point x="953" y="1242"/>
      <point x="945" y="1249" type="curve"/>
      <point x="932" y="1255"/>
      <point x="923" y="1260"/>
      <point x="918" y="1263" type="curve" smooth="yes"/>
      <point x="912" y="1268"/>
      <point x="902" y="1273"/>
      <point x="889" y="1280" type="curve" smooth="yes"/>
      <point x="860" y="1294" type="line"/>
      <point x="859" y="1294"/>
      <point x="856" y="1295"/>
      <point x="853" y="1297" type="curve" smooth="yes"/>
      <point x="850" y="1299"/>
      <point x="848" y="1299"/>
      <point x="846" y="1299" type="curve" smooth="yes"/>
      <point x="834" y="1299"/>
      <point x="827" y="1294"/>
      <point x="822" y="1285" type="curve" smooth="yes"/>
      <point x="774" y="1200" type="line"/>
      <point x="262" y="283" type="line"/>
      <point x="236" y="241"/>
      <point x="223" y="216"/>
      <point x="223" y="208" type="curve" smooth="yes"/>
      <point x="223" y="198"/>
      <point x="228" y="189"/>
      <point x="237" y="181" type="curve"/>
      <point x="307" y="141"/>
      <point x="346" y="121"/>
    </contour>
  </outline>
</glyph>
<glyph name="uniE217" format="2">
  <advance width="1200"/>
  <unicode hex="E217"/>
  <note>
uniE217
</note>
  <outline>
    <contour>
      <point x="944" y="201" type="curve" smooth="yes"/>
      <point x="968" y="201"/>
      <point x="985" y="212"/>
      <point x="994" y="225" type="curve" smooth="yes"/>
      <point x="1003" y="242" type="line"/>
      <point x="1189" y="1182" type="line"/>
      <point x="1189" y="1209"/>
      <point x="1171" y="1220"/>
      <point x="1149" y="1220" type="curve" smooth="yes"/>
      <point x="1141" y="1220"/>
      <point x="1132" y="1218"/>
      <point x="1124" y="1215" type="curve"/>
      <point x="1102" y="1206" type="line"/>
      <point x="57" y="795" type="line"/>
      <point x="42" y="788"/>
      <point x="11" y="775"/>
      <point x="11" y="747" type="curve"/>
      <point x="14" y="728"/>
      <point x="32" y="713"/>
      <point x="45" y="706" type="curve" smooth="yes"/>
      <point x="57" y="701" type="line"/>
      <point x="313" y="617" type="line"/>
      <point x="313" y="612" type="line"/>
      <point x="335" y="544" type="line" smooth="yes"/>
      <point x="360" y="457"/>
      <point x="400" y="329"/>
      <point x="409" y="300" type="curve" smooth="yes"/>
      <point x="421" y="265"/>
      <point x="431" y="247"/>
      <point x="441" y="247" type="curve" smooth="yes"/>
      <point x="448" y="247" type="line"/>
      <point x="448" y="250" type="line"/>
      <point x="470" y="257" type="line"/>
      <point x="641" y="411" type="line"/>
      <point x="904" y="209" type="line"/>
      <point x="919" y="204"/>
      <point x="932" y="201"/>
    </contour>
    <contour>
      <point x="467" y="534" type="line"/>
      <point x="438" y="264" type="line"/>
      <point x="432" y="271"/>
      <point x="426" y="284"/>
      <point x="419" y="305" type="curve" smooth="yes"/>
      <point x="406" y="350"/>
      <point x="376" y="449"/>
      <point x="327" y="602" type="curve"/>
      <point x="325" y="617" type="line"/>
      <point x="950" y="1015" type="line" smooth="yes"/>
      <point x="962" y="1022"/>
      <point x="971" y="1026"/>
      <point x="977" y="1026" type="curve" smooth="yes"/>
      <point x="983" y="1026"/>
      <point x="986" y="1022"/>
      <point x="986" y="1015" type="curve"/>
      <point x="989" y="1012"/>
      <point x="985" y="1005"/>
      <point x="972" y="993" type="curve" smooth="yes"/>
      <point x="477" y="547" type="line"/>
      <point x="477" y="544" type="line"/>
      <point x="475" y="544" type="line"/>
    </contour>
  </outline>
</glyph>
<glyph name="uniE218" format="2">
  <advance width="1200"/>
  <unicode hex="E218"/>
  <note>
uniE218
</note>
  <outline>
    <contour>
      <point x="291" y="237" type="curve" smooth="yes"/>
      <point x="909" y="237" type="line" smooth="yes"/>
      <point x="930" y="237"/>
      <point x="940" y="247"/>
      <point x="940" y="268" type="curve" smooth="yes"/>
      <point x="940" y="783" type="line"/>
      <point x="1095" y="783" type="line" smooth="yes"/>
      <point x="1112" y="783"/>
      <point x="1123" y="790"/>
      <point x="1126" y="807" type="curve"/>
      <point x="1187" y="1036" type="line" smooth="yes"/>
      <point x="1187" y="1039"/>
      <point x="1187" y="1042"/>
      <point x="1187" y="1045" type="curve" smooth="yes"/>
      <point x="1187" y="1060"/>
      <point x="1179" y="1070"/>
      <point x="1163" y="1075" type="curve" smooth="yes"/>
      <point x="745" y="1183" type="line"/>
      <point x="735" y="1183" type="line" smooth="yes"/>
      <point x="718" y="1183"/>
      <point x="707" y="1174"/>
      <point x="704" y="1157" type="curve"/>
      <point x="702" y="1136"/>
      <point x="690" y="1118"/>
      <point x="668" y="1104" type="curve" smooth="yes"/>
      <point x="648" y="1089"/>
      <point x="626" y="1082"/>
      <point x="600" y="1082" type="curve" smooth="yes"/>
      <point x="574" y="1082"/>
      <point x="552" y="1089"/>
      <point x="532" y="1104" type="curve" smooth="yes"/>
      <point x="510" y="1118"/>
      <point x="498" y="1136"/>
      <point x="496" y="1157" type="curve"/>
      <point x="493" y="1174"/>
      <point x="482" y="1183"/>
      <point x="465" y="1183" type="curve" smooth="yes"/>
      <point x="453" y="1183" type="line"/>
      <point x="37" y="1075" type="line"/>
      <point x="21" y="1072"/>
      <point x="13" y="1062"/>
      <point x="13" y="1045" type="curve" smooth="yes"/>
      <point x="13" y="1042"/>
      <point x="13" y="1039"/>
      <point x="13" y="1036" type="curve" smooth="yes"/>
      <point x="71" y="807" type="line" smooth="yes"/>
      <point x="76" y="790"/>
      <point x="87" y="783"/>
      <point x="105" y="783" type="curve" smooth="yes"/>
      <point x="259" y="783" type="line"/>
      <point x="259" y="268" type="line" smooth="yes"/>
      <point x="259" y="247"/>
      <point x="270" y="237"/>
    </contour>
  </outline>
</glyph>
<glyph name="uniE219" format="2">
  <advance width="1200"/>
  <unicode hex="E219"/>
  <note>
uniE219
</note>
  <outline>
    <contour>
      <point x="971" y="437" type="line"/>
      <point x="981" y="435" type="line"/>
      <point x="991" y="445" type="line" smooth="yes"/>
      <point x="1016" y="470"/>
      <point x="1028" y="483"/>
      <point x="1028" y="498" type="curve" smooth="yes"/>
      <point x="1028" y="510"/>
      <point x="1020" y="523"/>
      <point x="1008" y="546" type="curve"/>
      <point x="991" y="582"/>
      <point x="965" y="599"/>
      <point x="928" y="599" type="curve" smooth="yes"/>
      <point x="926" y="599" type="line"/>
      <point x="928" y="601" type="line" smooth="yes"/>
      <point x="967" y="633"/>
      <point x="986" y="661"/>
      <point x="986" y="688" type="curve" smooth="yes"/>
      <point x="986" y="696"/>
      <point x="984" y="703"/>
      <point x="981" y="710" type="curve" smooth="yes"/>
      <point x="973" y="726"/>
      <point x="959" y="734"/>
      <point x="940" y="734" type="curve" smooth="yes"/>
      <point x="924" y="734"/>
      <point x="901" y="727"/>
      <point x="872" y="713" type="curve"/>
      <point x="870" y="710" type="line"/>
      <point x="870" y="712"/>
      <point x="871" y="713"/>
      <point x="872" y="713" type="curve"/>
      <point x="879" y="730"/>
      <point x="883" y="745"/>
      <point x="883" y="758" type="curve" smooth="yes"/>
      <point x="883" y="772"/>
      <point x="878" y="782"/>
      <point x="870" y="790" type="curve" smooth="yes"/>
      <point x="848" y="811"/>
      <point x="824" y="821"/>
      <point x="798" y="821" type="curve" smooth="yes"/>
      <point x="788" y="821" type="line"/>
      <point x="788" y="826" type="line"/>
      <point x="790" y="831" type="line"/>
      <point x="792" y="838"/>
      <point x="793" y="845"/>
      <point x="793" y="852" type="curve" smooth="yes"/>
      <point x="793" y="903"/>
      <point x="743" y="932"/>
      <point x="706" y="932" type="curve" smooth="yes"/>
      <point x="698" y="932"/>
      <point x="684" y="930"/>
      <point x="665" y="927" type="curve"/>
      <point x="626" y="918" type="line"/>
      <point x="621" y="918" type="line"/>
      <point x="621" y="920" type="line" smooth="yes"/>
      <point x="621" y="932"/>
      <point x="620" y="943"/>
      <point x="617" y="954" type="curve"/>
      <point x="607" y="973" type="line" smooth="yes"/>
      <point x="588" y="1009"/>
      <point x="556" y="1031"/>
      <point x="513" y="1041" type="curve"/>
      <point x="505" y="1044"/>
      <point x="493" y="1046"/>
      <point x="476" y="1046" type="curve" smooth="yes"/>
      <point x="422" y="1046"/>
      <point x="365" y="1010"/>
      <point x="339" y="981" type="curve" smooth="yes"/>
      <point x="320" y="959" type="line"/>
      <point x="289" y="976"/>
      <point x="261" y="985"/>
      <point x="235" y="985" type="curve" smooth="yes"/>
      <point x="190" y="985"/>
      <point x="149" y="952"/>
      <point x="136" y="923" type="curve" smooth="yes"/>
      <point x="126" y="903" type="line"/>
      <point x="114" y="906"/>
      <point x="105" y="908"/>
      <point x="100" y="908" type="curve" smooth="yes"/>
      <point x="68" y="908"/>
      <point x="55" y="884"/>
      <point x="55" y="856" type="curve" smooth="yes"/>
      <point x="55" y="845"/>
      <point x="58" y="833"/>
      <point x="61" y="821" type="curve" smooth="yes"/>
      <point x="71" y="795" type="line"/>
      <point x="21" y="774"/>
      <point x="0" y="749"/>
      <point x="0" y="725" type="curve" smooth="yes"/>
      <point x="0" y="719"/>
      <point x="1" y="713"/>
      <point x="3" y="708" type="curve" smooth="yes"/>
      <point x="16" y="679"/>
      <point x="29" y="667"/>
      <point x="42" y="657" type="curve"/>
      <point x="119" y="805"/>
      <point x="248" y="882"/>
      <point x="428" y="889" type="curve" smooth="yes"/>
      <point x="457" y="889" type="line" smooth="yes"/>
      <point x="644" y="889"/>
      <point x="803" y="751"/>
      <point x="935" y="476" type="curve" smooth="yes"/>
      <point x="942" y="461" type="line" smooth="yes"/>
      <point x="944" y="457"/>
      <point x="948" y="449"/>
      <point x="955" y="440" type="curve"/>
    </contour>
    <contour>
      <point x="1119" y="374" type="curve" smooth="yes"/>
      <point x="1141" y="374"/>
      <point x="1160" y="384"/>
      <point x="1177" y="403" type="curve" smooth="yes"/>
      <point x="1192" y="424"/>
      <point x="1200" y="451"/>
      <point x="1200" y="486" type="curve" smooth="yes"/>
      <point x="1200" y="516"/>
      <point x="1194" y="553"/>
      <point x="1181" y="594" type="curve" smooth="yes"/>
      <point x="1143" y="732"/>
      <point x="994" y="869"/>
      <point x="817" y="918" type="curve"/>
      <point x="830" y="898"/>
      <point x="836" y="879"/>
      <point x="836" y="860" type="curve"/>
      <point x="862" y="850"/>
      <point x="883" y="838"/>
      <point x="899" y="824" type="curve" smooth="yes"/>
      <point x="912" y="811"/>
      <point x="921" y="795"/>
      <point x="926" y="778" type="curve"/>
      <point x="940" y="778" type="line" smooth="yes"/>
      <point x="979" y="778"/>
      <point x="1005" y="761"/>
      <point x="1020" y="729" type="curve"/>
      <point x="1028" y="716"/>
      <point x="1031" y="700"/>
      <point x="1031" y="686" type="curve" smooth="yes"/>
      <point x="1031" y="664"/>
      <point x="1023" y="640"/>
      <point x="1005" y="616" type="curve"/>
      <point x="1025" y="600"/>
      <point x="1039" y="583"/>
      <point x="1049" y="565" type="curve"/>
      <point x="1063" y="534"/>
      <point x="1070" y="513"/>
      <point x="1070" y="495" type="curve" smooth="yes"/>
      <point x="1070" y="466"/>
      <point x="1052" y="445"/>
      <point x="1012" y="403" type="curve" smooth="yes"/>
      <point x="1010" y="401" type="line"/>
      <point x="1025" y="384"/>
      <point x="1061" y="374"/>
    </contour>
    <contour>
      <point x="10" y="382" type="curve"/>
      <point x="950" y="382" type="line"/>
      <point x="930" y="401" type="line"/>
      <point x="921" y="414"/>
      <point x="914" y="423"/>
      <point x="911" y="430" type="curve"/>
      <point x="906" y="435"/>
      <point x="904" y="439"/>
      <point x="904" y="442" type="curve"/>
      <point x="901" y="449"/>
      <point x="898" y="452"/>
      <point x="897" y="454" type="curve"/>
      <point x="803" y="660"/>
      <point x="653" y="845"/>
      <point x="457" y="845" type="curve" smooth="yes"/>
      <point x="431" y="845" type="line" smooth="yes"/>
      <point x="273" y="839"/>
      <point x="158" y="772"/>
      <point x="85" y="645" type="curve"/>
      <point x="85" y="643"/>
      <point x="85" y="642"/>
      <point x="83" y="640" type="curve"/>
      <point x="80" y="633"/>
      <point x="77" y="629"/>
      <point x="76" y="626" type="curve"/>
      <point x="73" y="623"/>
      <point x="66" y="609"/>
      <point x="66" y="606" type="curve"/>
      <point x="35" y="537"/>
      <point x="17" y="462"/>
    </contour>
    <contour>
      <point x="498" y="627" type="curve" smooth="yes"/>
      <point x="488" y="627"/>
      <point x="478" y="631"/>
      <point x="469" y="640" type="curve" smooth="yes"/>
      <point x="460" y="649"/>
      <point x="457" y="659"/>
      <point x="457" y="668" type="curve" smooth="yes"/>
      <point x="457" y="691"/>
      <point x="477" y="711"/>
      <point x="499" y="711" type="curve" smooth="yes"/>
      <point x="508" y="711"/>
      <point x="518" y="707"/>
      <point x="527" y="698" type="curve" smooth="yes"/>
      <point x="536" y="689"/>
      <point x="540" y="679"/>
      <point x="540" y="670" type="curve" smooth="yes"/>
      <point x="540" y="647"/>
      <point x="519" y="627"/>
    </contour>
    <contour>
      <point x="635" y="572" type="curve" smooth="yes"/>
      <point x="626" y="572"/>
      <point x="615" y="576"/>
      <point x="607" y="585" type="curve" smooth="yes"/>
      <point x="598" y="593"/>
      <point x="595" y="603"/>
      <point x="595" y="613" type="curve" smooth="yes"/>
      <point x="595" y="634"/>
      <point x="611" y="655"/>
      <point x="636" y="655" type="curve" smooth="yes"/>
      <point x="663" y="655"/>
      <point x="677" y="641"/>
      <point x="677" y="614" type="curve" smooth="yes"/>
      <point x="677" y="589"/>
      <point x="656" y="572"/>
    </contour>
    <contour>
      <point x="554" y="461" type="curve" smooth="yes"/>
      <point x="531" y="461"/>
      <point x="513" y="478"/>
      <point x="513" y="500" type="curve" smooth="yes"/>
      <point x="513" y="505" type="line" smooth="yes"/>
      <point x="513" y="513"/>
      <point x="513" y="519"/>
      <point x="515" y="522" type="curve" smooth="yes"/>
      <point x="520" y="530"/>
      <point x="527" y="536"/>
      <point x="534" y="541" type="curve" smooth="yes"/>
      <point x="541" y="544"/>
      <point x="547" y="546"/>
      <point x="554" y="546" type="curve" smooth="yes"/>
      <point x="568" y="546"/>
      <point x="580" y="539"/>
      <point x="588" y="527" type="curve"/>
      <point x="592" y="522"/>
      <point x="595" y="515"/>
      <point x="595" y="505" type="curve" smooth="yes"/>
      <point x="595" y="502" type="line" smooth="yes"/>
      <point x="595" y="495"/>
      <point x="592" y="488"/>
      <point x="588" y="483" type="curve"/>
      <point x="580" y="469"/>
      <point x="568" y="461"/>
    </contour>
  </outline>
</glyph>
<glyph name="uniE21A" format="2">
  <advance width="1200"/>
  <unicode hex="E21A"/>
  <note>
uniE21A
</note>
  <outline>
    <contour>
      <point x="428" y="903" type="line"/>
      <point x="708" y="570" type="line"/>
      <point x="710" y="576"/>
      <point x="716" y="581"/>
      <point x="727" y="584" type="curve"/>
      <point x="370" y="1246" type="line" smooth="yes"/>
      <point x="357" y="1271"/>
      <point x="337" y="1281"/>
      <point x="317" y="1281" type="curve" smooth="yes"/>
      <point x="283" y="1281"/>
      <point x="249" y="1252"/>
      <point x="249" y="1215" type="curve" smooth="yes"/>
      <point x="249" y="1206"/>
      <point x="251" y="1196"/>
      <point x="256" y="1185" type="curve" smooth="yes"/>
    </contour>
    <contour>
      <point x="850" y="275" type="curve" smooth="yes"/>
      <point x="858" y="275"/>
      <point x="867" y="278"/>
      <point x="874" y="285" type="curve"/>
      <point x="876" y="288"/>
      <point x="879" y="291"/>
      <point x="882" y="294" type="curve" smooth="yes"/>
      <point x="885" y="299"/>
      <point x="887" y="303"/>
      <point x="887" y="309" type="curve" smooth="yes"/>
      <point x="887" y="321"/>
      <point x="877" y="338"/>
      <point x="858" y="357" type="curve"/>
      <point x="853" y="364" type="line"/>
      <point x="850" y="367" type="line"/>
      <point x="845" y="374" type="line"/>
      <point x="836" y="384" type="line"/>
      <point x="831" y="391" type="line"/>
      <point x="708" y="536" type="line"/>
      <point x="698" y="550" type="line"/>
      <point x="686" y="562" type="line"/>
      <point x="126" y="1229" type="line" smooth="yes"/>
      <point x="113" y="1243"/>
      <point x="98" y="1250"/>
      <point x="80" y="1250" type="curve" smooth="yes"/>
      <point x="63" y="1250"/>
      <point x="48" y="1245"/>
      <point x="37" y="1234" type="curve" smooth="yes"/>
      <point x="23" y="1221"/>
      <point x="16" y="1204"/>
      <point x="16" y="1187" type="curve" smooth="yes"/>
      <point x="16" y="1171"/>
      <point x="22" y="1156"/>
      <point x="32" y="1144" type="curve" smooth="yes"/>
      <point x="597" y="533" type="line"/>
      <point x="614" y="516" type="line"/>
      <point x="759" y="360" type="line"/>
      <point x="775" y="343" type="line"/>
      <point x="775" y="340" type="line"/>
      <point x="804" y="309" type="line" smooth="yes"/>
      <point x="827" y="286"/>
      <point x="842" y="275"/>
    </contour>
    <contour>
      <point x="1174" y="374" type="curve" smooth="yes"/>
      <point x="1180" y="374"/>
      <point x="1184" y="376"/>
      <point x="1184" y="381" type="curve"/>
      <point x="1176" y="393" type="line" smooth="yes"/>
      <point x="1160" y="422"/>
      <point x="1142" y="449"/>
      <point x="1121" y="473" type="curve" smooth="yes"/>
      <point x="1111" y="483" type="line"/>
      <point x="1109" y="483"/>
      <point x="1107" y="481"/>
      <point x="1107" y="478" type="curve" smooth="yes"/>
      <point x="1107" y="475"/>
      <point x="1109" y="471"/>
      <point x="1111" y="466" type="curve" smooth="yes"/>
      <point x="1114" y="459"/>
      <point x="1116" y="454"/>
      <point x="1116" y="449" type="curve"/>
      <point x="1118" y="434" type="line"/>
      <point x="1117" y="434"/>
      <point x="1114" y="439"/>
      <point x="1111" y="446" type="curve"/>
      <point x="1097" y="475"/>
      <point x="1088" y="492"/>
      <point x="1085" y="497" type="curve" smooth="yes"/>
      <point x="1070" y="518"/>
      <point x="1054" y="533"/>
      <point x="1036" y="541" type="curve" smooth="yes"/>
      <point x="1022" y="547"/>
      <point x="1013" y="551"/>
      <point x="1010" y="553" type="curve" smooth="yes"/>
      <point x="1003" y="556"/>
      <point x="999" y="558"/>
      <point x="998" y="558" type="curve" smooth="yes"/>
      <point x="995" y="558"/>
      <point x="993" y="556"/>
      <point x="993" y="554" type="curve" smooth="yes"/>
      <point x="993" y="551"/>
      <point x="996" y="547"/>
      <point x="1000" y="541" type="curve" smooth="yes"/>
      <point x="1010" y="526"/>
      <point x="1024" y="502"/>
      <point x="1041" y="468" type="curve" smooth="yes"/>
      <point x="1043" y="463"/>
      <point x="1044" y="459"/>
      <point x="1044" y="457" type="curve" smooth="yes"/>
      <point x="1044" y="457"/>
      <point x="1044" y="456"/>
      <point x="1043" y="456" type="curve" smooth="yes"/>
      <point x="1042" y="456"/>
      <point x="1039" y="459"/>
      <point x="1034" y="466" type="curve"/>
      <point x="1013" y="503"/>
      <point x="987" y="533"/>
      <point x="957" y="558" type="curve" smooth="yes"/>
      <point x="940" y="570"/>
      <point x="920" y="579"/>
      <point x="896" y="582" type="curve"/>
      <point x="872" y="582" type="line" smooth="yes"/>
      <point x="864" y="582"/>
      <point x="859" y="580"/>
      <point x="859" y="577" type="curve" smooth="yes"/>
      <point x="859" y="575"/>
      <point x="863" y="572"/>
      <point x="870" y="567" type="curve"/>
      <point x="906" y="545"/>
      <point x="934" y="513"/>
      <point x="952" y="473" type="curve" smooth="yes"/>
      <point x="955" y="467"/>
      <point x="956" y="463"/>
      <point x="956" y="461" type="curve" smooth="yes"/>
      <point x="956" y="459"/>
      <point x="955" y="459"/>
      <point x="954" y="459" type="curve"/>
      <point x="951" y="462"/>
      <point x="947" y="466"/>
      <point x="944" y="471" type="curve" smooth="yes"/>
      <point x="914" y="514"/>
      <point x="876" y="545"/>
      <point x="831" y="565" type="curve" smooth="yes"/>
      <point x="815" y="573"/>
      <point x="801" y="577"/>
      <point x="790" y="577" type="curve" smooth="yes"/>
      <point x="788" y="577"/>
      <point x="786" y="576"/>
      <point x="783" y="574" type="curve"/>
      <point x="768" y="572" type="line"/>
      <point x="739" y="565" type="line"/>
      <point x="737" y="565" type="line"/>
      <point x="730" y="562"/>
      <point x="726" y="560"/>
      <point x="726" y="558" type="curve" smooth="yes"/>
      <point x="726" y="554"/>
      <point x="731" y="551"/>
      <point x="742" y="548" type="curve"/>
      <point x="743" y="546"/>
      <point x="745" y="545"/>
      <point x="746" y="545" type="curve"/>
      <point x="785" y="529"/>
      <point x="820" y="500"/>
      <point x="850" y="459" type="curve"/>
      <point x="855" y="446" type="line"/>
      <point x="853" y="446"/>
      <point x="850" y="449"/>
      <point x="843" y="456" type="curve" smooth="yes"/>
      <point x="817" y="485"/>
      <point x="790" y="505"/>
      <point x="761" y="516" type="curve"/>
      <point x="746" y="524" type="line"/>
      <point x="778" y="487" type="line"/>
      <point x="860" y="388" type="line"/>
      <point x="891" y="395"/>
      <point x="934" y="400"/>
      <point x="990" y="403" type="curve" smooth="yes"/>
      <point x="998" y="403" type="line" smooth="yes"/>
      <point x="1028" y="403"/>
      <point x="1062" y="399"/>
      <point x="1099" y="391" type="curve"/>
      <point x="1102" y="391"/>
      <point x="1106" y="390"/>
      <point x="1109" y="388" type="curve"/>
      <point x="1113" y="388"/>
      <point x="1129" y="385"/>
      <point x="1155" y="379" type="curve" smooth="yes"/>
      <point x="1164" y="376"/>
      <point x="1171" y="374"/>
    </contour>
    <contour>
      <point x="447" y="195" type="curve" smooth="yes"/>
      <point x="459" y="195" type="line" smooth="yes"/>
      <point x="464" y="195"/>
      <point x="471" y="197"/>
      <point x="481" y="200" type="curve" smooth="yes"/>
      <point x="486" y="202"/>
      <point x="493" y="206"/>
      <point x="503" y="211" type="curve" smooth="yes"/>
      <point x="522" y="222" type="line" smooth="yes"/>
      <point x="535" y="230"/>
      <point x="556" y="242"/>
      <point x="585" y="258" type="curve" smooth="yes"/>
      <point x="590" y="261"/>
      <point x="603" y="270"/>
      <point x="627" y="285" type="curve" smooth="yes"/>
      <point x="681" y="318" type="line" smooth="yes"/>
      <point x="701" y="330"/>
      <point x="719" y="340"/>
      <point x="737" y="350" type="curve"/>
      <point x="626" y="471" type="line"/>
      <point x="603" y="474"/>
      <point x="587" y="475"/>
      <point x="577" y="475" type="curve" smooth="yes"/>
      <point x="553" y="475"/>
      <point x="534" y="468"/>
      <point x="520" y="454" type="curve" smooth="yes"/>
      <point x="512" y="447"/>
      <point x="502" y="439"/>
      <point x="491" y="427" type="curve" smooth="yes"/>
      <point x="484" y="422"/>
      <point x="480" y="417"/>
      <point x="480" y="415" type="curve" smooth="yes"/>
      <point x="480" y="412"/>
      <point x="485" y="410"/>
      <point x="493" y="410" type="curve" smooth="yes"/>
      <point x="500" y="410" type="line"/>
      <point x="508" y="412"/>
      <point x="519" y="413"/>
      <point x="532" y="413" type="curve" smooth="yes"/>
      <point x="587" y="413"/>
      <point x="635" y="395"/>
      <point x="676" y="360" type="curve"/>
      <point x="681" y="357" type="line"/>
      <point x="681" y="355" type="line"/>
      <point x="679" y="355" type="line"/>
      <point x="674" y="360" type="line"/>
      <point x="624" y="382"/>
      <point x="578" y="393"/>
      <point x="536" y="393" type="curve" smooth="yes"/>
      <point x="530" y="393"/>
      <point x="510" y="391"/>
      <point x="476" y="386" type="curve"/>
      <point x="457" y="381"/>
      <point x="439" y="369"/>
      <point x="423" y="350" type="curve"/>
      <point x="420" y="343"/>
      <point x="415" y="335"/>
      <point x="408" y="326" type="curve"/>
      <point x="405" y="318"/>
      <point x="403" y="313"/>
      <point x="403" y="309" type="curve" smooth="yes"/>
      <point x="403" y="304"/>
      <point x="405" y="302"/>
      <point x="411" y="302" type="curve"/>
      <point x="413" y="303"/>
      <point x="414" y="304"/>
      <point x="416" y="304" type="curve"/>
      <point x="425" y="307"/>
      <point x="433" y="309"/>
      <point x="440" y="309" type="curve"/>
      <point x="462" y="314"/>
      <point x="483" y="316"/>
      <point x="503" y="316" type="curve" smooth="yes"/>
      <point x="536" y="316"/>
      <point x="564" y="312"/>
      <point x="585" y="304" type="curve"/>
      <point x="597" y="297" type="line"/>
      <point x="594" y="297" type="line" smooth="yes"/>
      <point x="590" y="297"/>
      <point x="585" y="297"/>
      <point x="582" y="299" type="curve"/>
      <point x="577" y="299"/>
      <point x="571" y="300"/>
      <point x="563" y="300" type="curve" smooth="yes"/>
      <point x="555" y="301"/>
      <point x="548" y="302"/>
      <point x="544" y="302" type="curve" smooth="yes"/>
      <point x="515" y="302"/>
      <point x="481" y="297"/>
      <point x="442" y="287" type="curve" smooth="yes"/>
      <point x="434" y="285"/>
      <point x="422" y="282"/>
      <point x="406" y="275" type="curve"/>
      <point x="389" y="270"/>
      <point x="373" y="258"/>
      <point x="360" y="239" type="curve" smooth="yes"/>
      <point x="357" y="234"/>
      <point x="355" y="230"/>
      <point x="355" y="226" type="curve" smooth="yes"/>
      <point x="355" y="218"/>
      <point x="362" y="212"/>
      <point x="375" y="207" type="curve"/>
      <point x="415" y="200"/>
      <point x="439" y="195"/>
    </contour>
    <contour>
      <point x="556" y="140" type="curve" smooth="yes"/>
      <point x="593" y="140"/>
      <point x="654" y="154"/>
      <point x="676" y="162" type="curve" smooth="yes"/>
      <point x="686" y="164" type="line"/>
      <point x="843" y="200" type="line"/>
      <point x="1041" y="217" type="line"/>
      <point x="1053" y="219"/>
      <point x="1063" y="224"/>
      <point x="1072" y="232" type="curve" smooth="yes"/>
      <point x="1090" y="246"/>
      <point x="1099" y="261"/>
      <point x="1099" y="275" type="curve"/>
      <point x="1104" y="289"/>
      <point x="1106" y="305"/>
      <point x="1106" y="321" type="curve"/>
      <point x="1108" y="332"/>
      <point x="1109" y="347"/>
      <point x="1109" y="367" type="curve"/>
      <point x="1104" y="367" type="line"/>
      <point x="1099" y="369" type="line"/>
      <point x="1094" y="369" type="line"/>
      <point x="1067" y="376"/>
      <point x="1034" y="379"/>
      <point x="998" y="379" type="curve" smooth="yes"/>
      <point x="990" y="379" type="line" smooth="yes"/>
      <point x="947" y="379"/>
      <point x="909" y="376"/>
      <point x="877" y="369" type="curve"/>
      <point x="897" y="347"/>
      <point x="908" y="326"/>
      <point x="908" y="308" type="curve" smooth="yes"/>
      <point x="908" y="294"/>
      <point x="902" y="282"/>
      <point x="889" y="270" type="curve" smooth="yes"/>
      <point x="887" y="268" type="line" smooth="yes"/>
      <point x="875" y="258"/>
      <point x="863" y="253"/>
      <point x="850" y="253" type="curve" smooth="yes"/>
      <point x="841" y="253"/>
      <point x="829" y="258"/>
      <point x="817" y="268" type="curve" smooth="yes"/>
      <point x="810" y="273"/>
      <point x="800" y="282"/>
      <point x="788" y="294" type="curve"/>
      <point x="754" y="333" type="line"/>
      <point x="730" y="323"/>
      <point x="710" y="313"/>
      <point x="693" y="302" type="curve" smooth="yes"/>
      <point x="650" y="273" type="line" smooth="yes"/>
      <point x="638" y="266"/>
      <point x="620" y="255"/>
      <point x="594" y="239" type="curve"/>
      <point x="592" y="236"/>
      <point x="534" y="204"/>
      <point x="532" y="203" type="curve" smooth="yes"/>
      <point x="510" y="191"/>
      <point x="497" y="184"/>
      <point x="491" y="181" type="curve"/>
      <point x="491" y="178"/>
      <point x="493" y="174"/>
      <point x="498" y="169" type="curve" smooth="yes"/>
      <point x="510" y="156"/>
      <point x="521" y="148"/>
      <point x="529" y="145" type="curve" smooth="yes"/>
      <point x="539" y="142"/>
      <point x="548" y="140"/>
    </contour>
  </outline>
</glyph>
<glyph name="uniE21B" format="2">
  <advance width="1200"/>
  <unicode hex="E21B"/>
  <note>
uniE21B
</note>
  <outline>
    <contour>
      <point x="44" y="121" type="curve" smooth="yes"/>
      <point x="1155" y="121" type="line" smooth="yes"/>
      <point x="1175" y="121"/>
      <point x="1189" y="138"/>
      <point x="1189" y="156" type="curve" smooth="yes"/>
      <point x="1189" y="164"/>
      <point x="1186" y="172"/>
      <point x="1179" y="179" type="curve" smooth="yes"/>
      <point x="68" y="1290" type="line" smooth="yes"/>
      <point x="61" y="1297"/>
      <point x="53" y="1300"/>
      <point x="45" y="1300" type="curve" smooth="yes"/>
      <point x="27" y="1300"/>
      <point x="11" y="1286"/>
      <point x="11" y="1266" type="curve" smooth="yes"/>
      <point x="11" y="969" type="line"/>
      <point x="100" y="969" type="line" smooth="yes"/>
      <point x="127" y="969"/>
      <point x="140" y="948"/>
      <point x="140" y="928" type="curve" smooth="yes"/>
      <point x="140" y="907"/>
      <point x="127" y="887"/>
      <point x="100" y="887" type="curve" smooth="yes"/>
      <point x="11" y="887" type="line"/>
      <point x="11" y="759" type="line"/>
      <point x="100" y="759" type="line" smooth="yes"/>
      <point x="127" y="759"/>
      <point x="140" y="738"/>
      <point x="140" y="718" type="curve" smooth="yes"/>
      <point x="140" y="697"/>
      <point x="127" y="677"/>
      <point x="100" y="677" type="curve" smooth="yes"/>
      <point x="11" y="677" type="line"/>
      <point x="11" y="549" type="line"/>
      <point x="100" y="549" type="line" smooth="yes"/>
      <point x="127" y="549"/>
      <point x="140" y="528"/>
      <point x="140" y="508" type="curve" smooth="yes"/>
      <point x="140" y="487"/>
      <point x="127" y="467"/>
      <point x="100" y="467" type="curve" smooth="yes"/>
      <point x="11" y="467" type="line"/>
      <point x="11" y="336" type="line"/>
      <point x="100" y="336" type="line" smooth="yes"/>
      <point x="127" y="336"/>
      <point x="140" y="316"/>
      <point x="140" y="296" type="curve" smooth="yes"/>
      <point x="140" y="277"/>
      <point x="127" y="257"/>
      <point x="100" y="257" type="curve" smooth="yes"/>
      <point x="11" y="257" type="line"/>
      <point x="11" y="155" type="line" smooth="yes"/>
      <point x="11" y="136"/>
      <point x="28" y="121"/>
    </contour>
    <contour>
      <point x="648" y="365" type="line"/>
      <point x="254" y="365" type="line"/>
      <point x="254" y="759" type="line"/>
    </contour>
  </outline>
</glyph>
<glyph name="uniE21C" format="2">
  <advance width="1200"/>
  <unicode hex="E21C"/>
  <note>
uniE21C
</note>
  <outline>
    <contour>
      <point x="583" y="531" type="curve" smooth="yes"/>
      <point x="616" y="531"/>
      <point x="654" y="537"/>
      <point x="696" y="548" type="curve" smooth="yes"/>
      <point x="722" y="556"/>
      <point x="745" y="566"/>
      <point x="766" y="577" type="curve"/>
      <point x="793" y="568"/>
      <point x="822" y="563"/>
      <point x="853" y="563" type="curve" smooth="yes"/>
      <point x="1001" y="563"/>
      <point x="1121" y="683"/>
      <point x="1121" y="831" type="curve" smooth="yes"/>
      <point x="1121" y="953"/>
      <point x="1039" y="1057"/>
      <point x="923" y="1089" type="curve"/>
      <point x="858" y="1215"/>
      <point x="731" y="1297"/>
      <point x="583" y="1297" type="curve" smooth="yes"/>
      <point x="415" y="1297"/>
      <point x="267" y="1186"/>
      <point x="216" y="1029" type="curve"/>
      <point x="216" y="1024"/>
      <point x="214" y="1017"/>
      <point x="211" y="1007" type="curve"/>
      <point x="209" y="1005"/>
      <point x="208" y="1002"/>
      <point x="208" y="997" type="curve" smooth="yes"/>
      <point x="208" y="993"/>
      <point x="208" y="988"/>
      <point x="206" y="985" type="curve"/>
      <point x="201" y="961"/>
      <point x="199" y="938"/>
      <point x="199" y="915" type="curve" smooth="yes"/>
      <point x="199" y="745"/>
      <point x="312" y="597"/>
      <point x="469" y="548" type="curve"/>
      <point x="476" y="545"/>
      <point x="494" y="541"/>
      <point x="501" y="541" type="curve"/>
      <point x="510" y="538"/>
      <point x="517" y="536"/>
      <point x="522" y="536" type="curve"/>
      <point x="527" y="534"/>
      <point x="534" y="534"/>
      <point x="544" y="534" type="curve"/>
      <point x="552" y="532"/>
      <point x="565" y="531"/>
    </contour>
    <contour>
      <point x="346" y="490" type="curve" smooth="yes"/>
      <point x="385" y="490"/>
      <point x="423" y="499"/>
      <point x="462" y="517" type="curve"/>
      <point x="288" y="568"/>
      <point x="167" y="729"/>
      <point x="167" y="915" type="curve" smooth="yes"/>
      <point x="167" y="935"/>
      <point x="168" y="949"/>
      <point x="170" y="959" type="curve"/>
      <point x="109" y="903"/>
      <point x="78" y="835"/>
      <point x="78" y="756" type="curve" smooth="yes"/>
      <point x="78" y="608"/>
      <point x="198" y="490"/>
    </contour>
    <contour>
      <point x="469" y="483" type="curve"/>
      <point x="469" y="123" type="line"/>
      <point x="696" y="123" type="line"/>
      <point x="696" y="515" type="line"/>
      <point x="654" y="503"/>
      <point x="616" y="498"/>
      <point x="583" y="498" type="curve" smooth="yes"/>
      <point x="557" y="498"/>
      <point x="532" y="500"/>
      <point x="508" y="505" type="curve"/>
      <point x="501" y="498"/>
      <point x="479" y="486"/>
    </contour>
  </outline>
</glyph>
<glyph name="uniE21D" format="2">
  <advance width="1200"/>
  <unicode hex="E21D"/>
  <note>
uniE21D
</note>
  <outline>
    <contour>
      <point x="139" y="225" type="curve" smooth="yes"/>
      <point x="970" y="225" type="line" smooth="yes"/>
      <point x="1088" y="225"/>
      <point x="1189" y="322"/>
      <point x="1189" y="445" type="curve" smooth="yes"/>
      <point x="1189" y="567"/>
      <point x="1092" y="667"/>
      <point x="970" y="667" type="curve" smooth="yes"/>
      <point x="941" y="667"/>
      <point x="914" y="662"/>
      <point x="890" y="652" type="curve"/>
      <point x="885" y="686"/>
      <point x="875" y="716"/>
      <point x="861" y="742" type="curve"/>
      <point x="938" y="850" type="line"/>
      <point x="941" y="854"/>
      <point x="941" y="858"/>
      <point x="941" y="861" type="curve" smooth="yes"/>
      <point x="941" y="862"/>
      <point x="941" y="863"/>
      <point x="941" y="865" type="curve" smooth="yes"/>
      <point x="938" y="871"/>
      <point x="934" y="875"/>
      <point x="931" y="877" type="curve"/>
      <point x="774" y="927" type="line"/>
      <point x="774" y="1092" type="line" smooth="yes"/>
      <point x="774" y="1096"/>
      <point x="772" y="1101"/>
      <point x="767" y="1106" type="curve"/>
      <point x="764" y="1107"/>
      <point x="762" y="1107"/>
      <point x="759" y="1107" type="curve" smooth="yes"/>
      <point x="756" y="1107"/>
      <point x="753" y="1107"/>
      <point x="750" y="1106" type="curve" smooth="yes"/>
      <point x="595" y="1058" type="line"/>
      <point x="499" y="1191" type="line"/>
      <point x="496" y="1194"/>
      <point x="491" y="1195"/>
      <point x="484" y="1195" type="curve" smooth="yes"/>
      <point x="481" y="1195"/>
      <point x="476" y="1194"/>
      <point x="470" y="1191" type="curve"/>
      <point x="373" y="1058" type="line"/>
      <point x="219" y="1106" type="line"/>
      <point x="216" y="1108"/>
      <point x="213" y="1109"/>
      <point x="210" y="1109" type="curve" smooth="yes"/>
      <point x="207" y="1109"/>
      <point x="204" y="1108"/>
      <point x="202" y="1106" type="curve" smooth="yes"/>
      <point x="197" y="1101"/>
      <point x="195" y="1096"/>
      <point x="195" y="1092" type="curve" smooth="yes"/>
      <point x="195" y="927" type="line"/>
      <point x="40" y="877" type="line" smooth="yes"/>
      <point x="35" y="875"/>
      <point x="31" y="871"/>
      <point x="28" y="865" type="curve" smooth="yes"/>
      <point x="26" y="862"/>
      <point x="27" y="857"/>
      <point x="30" y="850" type="curve"/>
      <point x="127" y="717" type="line"/>
      <point x="30" y="585" type="line"/>
      <point x="28" y="580"/>
      <point x="27" y="576"/>
      <point x="27" y="572" type="curve" smooth="yes"/>
      <point x="27" y="565"/>
      <point x="32" y="560"/>
      <point x="40" y="558" type="curve" smooth="yes"/>
      <point x="190" y="510" type="line"/>
      <point x="182" y="493"/>
      <point x="178" y="473"/>
      <point x="178" y="449" type="curve" smooth="yes"/>
      <point x="178" y="445" type="line"/>
      <point x="165" y="449"/>
      <point x="152" y="452"/>
      <point x="139" y="452" type="curve" smooth="yes"/>
      <point x="68" y="452"/>
      <point x="11" y="392"/>
      <point x="11" y="321" type="curve" smooth="yes"/>
      <point x="11" y="257"/>
      <point x="54" y="225"/>
    </contour>
    <contour>
      <point x="223" y="556" type="curve"/>
      <point x="212" y="572"/>
      <point x="205" y="585"/>
      <point x="202" y="597" type="curve"/>
      <point x="184" y="637"/>
      <point x="175" y="677"/>
      <point x="175" y="717" type="curve" smooth="yes"/>
      <point x="175" y="758"/>
      <point x="184" y="797"/>
      <point x="202" y="836" type="curve"/>
      <point x="216" y="876"/>
      <point x="238" y="909"/>
      <point x="267" y="935" type="curve"/>
      <point x="293" y="964"/>
      <point x="325" y="985"/>
      <point x="366" y="1000" type="curve"/>
      <point x="405" y="1017"/>
      <point x="444" y="1026"/>
      <point x="484" y="1026" type="curve" smooth="yes"/>
      <point x="525" y="1026"/>
      <point x="565" y="1017"/>
      <point x="605" y="1000" type="curve" smooth="yes"/>
      <point x="644" y="984"/>
      <point x="676" y="962"/>
      <point x="702" y="935" type="curve" smooth="yes"/>
      <point x="731" y="906"/>
      <point x="752" y="875"/>
      <point x="764" y="843" type="curve"/>
      <point x="721" y="872"/>
      <point x="671" y="886"/>
      <point x="615" y="886" type="curve" smooth="yes"/>
      <point x="460" y="886"/>
      <point x="337" y="763"/>
      <point x="337" y="609" type="curve" smooth="yes"/>
      <point x="337" y="597" type="line"/>
      <point x="335" y="598"/>
      <point x="332" y="599"/>
      <point x="327" y="599" type="curve" smooth="yes"/>
      <point x="287" y="599"/>
      <point x="252" y="585"/>
    </contour>
  </outline>
</glyph>
<glyph name="uniE21E" format="2">
  <advance width="1200"/>
  <unicode hex="E21E"/>
  <note>
uniE21E
</note>
  <outline>
    <contour>
      <point x="609" y="220" type="curve" smooth="yes"/>
      <point x="614" y="220"/>
      <point x="617" y="221"/>
      <point x="619" y="222" type="curve"/>
      <point x="622" y="222" type="line"/>
      <point x="624" y="222" type="line"/>
      <point x="629" y="225" type="line"/>
      <point x="629" y="227"/>
      <point x="629" y="227"/>
      <point x="631" y="227" type="curve"/>
      <point x="636" y="232" type="line"/>
      <point x="1177" y="838" type="line"/>
      <point x="1177" y="840"/>
      <point x="1177" y="841"/>
      <point x="1179" y="843" type="curve"/>
      <point x="1179" y="845"/>
      <point x="1180" y="846"/>
      <point x="1182" y="848" type="curve"/>
      <point x="1182" y="850"/>
      <point x="1182" y="851"/>
      <point x="1184" y="853" type="curve"/>
      <point x="1184" y="872" type="line"/>
      <point x="1182" y="874"/>
      <point x="1182" y="875"/>
      <point x="1182" y="877" type="curve"/>
      <point x="1179" y="879" type="line"/>
      <point x="1179" y="881"/>
      <point x="1179" y="882"/>
      <point x="1177" y="884" type="curve"/>
      <point x="947" y="1186" type="line"/>
      <point x="940" y="1193" type="line"/>
      <point x="939" y="1193"/>
      <point x="933" y="1197"/>
      <point x="933" y="1198" type="curve"/>
      <point x="928" y="1198" type="line"/>
      <point x="926" y="1200" type="line"/>
      <point x="286" y="1200" type="line" smooth="yes"/>
      <point x="273" y="1200"/>
      <point x="264" y="1195"/>
      <point x="257" y="1186" type="curve" smooth="yes"/>
      <point x="23" y="884" type="line"/>
      <point x="21" y="884"/>
      <point x="20" y="882"/>
      <point x="20" y="879" type="curve"/>
      <point x="18" y="877" type="line"/>
      <point x="18" y="875"/>
      <point x="17" y="872"/>
      <point x="16" y="869" type="curve"/>
      <point x="16" y="853" type="line"/>
      <point x="17" y="851"/>
      <point x="18" y="850"/>
      <point x="18" y="848" type="curve"/>
      <point x="20" y="845"/>
      <point x="22" y="841"/>
      <point x="25" y="838" type="curve" smooth="yes"/>
      <point x="583" y="232" type="line" smooth="yes"/>
      <point x="586" y="229"/>
      <point x="588" y="227"/>
      <point x="590" y="227" type="curve"/>
      <point x="593" y="224"/>
      <point x="596" y="222"/>
      <point x="597" y="222" type="curve" smooth="yes"/>
      <point x="600" y="222" type="line"/>
      <point x="602" y="221"/>
      <point x="605" y="220"/>
    </contour>
    <contour>
      <point x="537" y="1130" type="line"/>
      <point x="399" y="935" type="line"/>
      <point x="337" y="1130" type="line"/>
    </contour>
    <contour>
      <point x="873" y="1130" type="line"/>
      <point x="829" y="937" type="line"/>
      <point x="679" y="1130" type="line"/>
    </contour>
    <contour>
      <point x="769" y="898" type="line"/>
      <point x="460" y="898" type="line"/>
      <point x="607" y="1106" type="line"/>
    </contour>
    <contour>
      <point x="337" y="898" type="line"/>
      <point x="124" y="898" type="line"/>
      <point x="274" y="1092" type="line"/>
    </contour>
    <contour>
      <point x="1078" y="898" type="line"/>
      <point x="894" y="898" type="line"/>
      <point x="935" y="1082" type="line"/>
    </contour>
    <contour>
      <point x="361" y="826" type="line"/>
      <point x="513" y="413" type="line"/>
      <point x="131" y="826" type="line"/>
    </contour>
    <contour>
      <point x="798" y="826" type="line"/>
      <point x="612" y="355" type="line"/>
      <point x="436" y="826" type="line"/>
    </contour>
    <contour>
      <point x="1071" y="826" type="line"/>
      <point x="716" y="430" type="line"/>
      <point x="873" y="826" type="line"/>
    </contour>
  </outline>
</glyph>
<glyph name="uniE21F" format="2">
  <advance width="1200"/>
  <unicode hex="E21F"/>
  <note>
uniE21F
</note>
  <outline>
    <contour>
      <point x="301" y="121" type="curve" smooth="yes"/>
      <point x="307" y="121"/>
      <point x="313" y="123"/>
      <point x="320" y="128" type="curve"/>
      <point x="1182" y="990" type="line"/>
      <point x="1187" y="997"/>
      <point x="1189" y="1003"/>
      <point x="1189" y="1010" type="curve" smooth="yes"/>
      <point x="1189" y="1016"/>
      <point x="1187" y="1022"/>
      <point x="1182" y="1029" type="curve"/>
      <point x="919" y="1292" type="line"/>
      <point x="912" y="1297"/>
      <point x="906" y="1299"/>
      <point x="900" y="1299" type="curve" smooth="yes"/>
      <point x="893" y="1299"/>
      <point x="887" y="1297"/>
      <point x="880" y="1292" type="curve"/>
      <point x="830" y="1239" type="line" smooth="yes"/>
      <point x="825" y="1234"/>
      <point x="822" y="1229"/>
      <point x="822" y="1222" type="curve" smooth="yes"/>
      <point x="822" y="1214"/>
      <point x="825" y="1207"/>
      <point x="830" y="1203" type="curve" smooth="yes"/>
      <point x="948" y="1087" type="line"/>
      <point x="914" y="1053" type="line"/>
      <point x="796" y="1169" type="line"/>
      <point x="790" y="1176"/>
      <point x="784" y="1180"/>
      <point x="778" y="1180" type="curve" smooth="yes"/>
      <point x="772" y="1180"/>
      <point x="766" y="1176"/>
      <point x="759" y="1169" type="curve" smooth="yes"/>
      <point x="716" y="1125" type="line" smooth="yes"/>
      <point x="711" y="1121"/>
      <point x="709" y="1114"/>
      <point x="709" y="1106" type="curve" smooth="yes"/>
      <point x="709" y="1099"/>
      <point x="711" y="1094"/>
      <point x="716" y="1089" type="curve" smooth="yes"/>
      <point x="786" y="1017" type="line"/>
      <point x="752" y="985" type="line"/>
      <point x="682" y="1055" type="line"/>
      <point x="676" y="1061"/>
      <point x="670" y="1064"/>
      <point x="664" y="1064" type="curve" smooth="yes"/>
      <point x="657" y="1064"/>
      <point x="651" y="1061"/>
      <point x="646" y="1055" type="curve" smooth="yes"/>
      <point x="600" y="1010" type="line" smooth="yes"/>
      <point x="595" y="1005"/>
      <point x="593" y="999"/>
      <point x="593" y="993" type="curve" smooth="yes"/>
      <point x="593" y="985"/>
      <point x="595" y="978"/>
      <point x="600" y="973" type="curve" smooth="yes"/>
      <point x="718" y="855" type="line"/>
      <point x="685" y="821" type="line"/>
      <point x="566" y="939" type="line"/>
      <point x="560" y="945"/>
      <point x="554" y="948"/>
      <point x="548" y="948" type="curve" smooth="yes"/>
      <point x="542" y="948"/>
      <point x="536" y="945"/>
      <point x="530" y="939" type="curve" smooth="yes"/>
      <point x="487" y="896" type="line" smooth="yes"/>
      <point x="480" y="889"/>
      <point x="477" y="883"/>
      <point x="477" y="877" type="curve" smooth="yes"/>
      <point x="477" y="870"/>
      <point x="480" y="864"/>
      <point x="487" y="857" type="curve" smooth="yes"/>
      <point x="557" y="787" type="line"/>
      <point x="523" y="754" type="line"/>
      <point x="453" y="824" type="line" smooth="yes"/>
      <point x="446" y="830"/>
      <point x="440" y="833"/>
      <point x="434" y="833" type="curve" smooth="yes"/>
      <point x="427" y="833"/>
      <point x="421" y="830"/>
      <point x="414" y="824" type="curve" smooth="yes"/>
      <point x="371" y="780" type="line" smooth="yes"/>
      <point x="366" y="775"/>
      <point x="364" y="769"/>
      <point x="364" y="761" type="curve" smooth="yes"/>
      <point x="364" y="754"/>
      <point x="366" y="749"/>
      <point x="371" y="744" type="curve" smooth="yes"/>
      <point x="489" y="626" type="line"/>
      <point x="455" y="592" type="line"/>
      <point x="337" y="710" type="line"/>
      <point x="332" y="717"/>
      <point x="325" y="720"/>
      <point x="319" y="720" type="curve" smooth="yes"/>
      <point x="313" y="720"/>
      <point x="307" y="717"/>
      <point x="301" y="710" type="curve" smooth="yes"/>
      <point x="255" y="664" type="line" smooth="yes"/>
      <point x="249" y="659"/>
      <point x="246" y="653"/>
      <point x="246" y="647" type="curve" smooth="yes"/>
      <point x="246" y="641"/>
      <point x="249" y="635"/>
      <point x="255" y="628" type="curve"/>
      <point x="327" y="558" type="line"/>
      <point x="291" y="524" type="line"/>
      <point x="221" y="594" type="line" smooth="yes"/>
      <point x="216" y="599"/>
      <point x="211" y="601"/>
      <point x="204" y="601" type="curve" smooth="yes"/>
      <point x="196" y="601"/>
      <point x="190" y="599"/>
      <point x="185" y="594" type="curve" smooth="yes"/>
      <point x="141" y="551" type="line" smooth="yes"/>
      <point x="134" y="544"/>
      <point x="131" y="538"/>
      <point x="131" y="532" type="curve" smooth="yes"/>
      <point x="131" y="526"/>
      <point x="134" y="520"/>
      <point x="141" y="515" type="curve"/>
      <point x="257" y="396" type="line"/>
      <point x="223" y="362" type="line"/>
      <point x="108" y="481" type="line" smooth="yes"/>
      <point x="103" y="486"/>
      <point x="96" y="488"/>
      <point x="88" y="488" type="curve" smooth="yes"/>
      <point x="82" y="488"/>
      <point x="76" y="486"/>
      <point x="71" y="481" type="curve" smooth="yes"/>
      <point x="18" y="430" type="line"/>
      <point x="13" y="423"/>
      <point x="11" y="417"/>
      <point x="11" y="411" type="curve" smooth="yes"/>
      <point x="11" y="404"/>
      <point x="13" y="398"/>
      <point x="18" y="391" type="curve"/>
      <point x="281" y="128" type="line" smooth="yes"/>
      <point x="286" y="123"/>
      <point x="293" y="121"/>
    </contour>
  </outline>
</glyph>
<glyph name="uniE220" format="2">
  <advance width="1200"/>
  <unicode hex="E220"/>
  <note>
uniE220
</note>
  <outline>
    <contour>
      <point x="416" y="147" type="curve" smooth="yes"/>
      <point x="445" y="147" type="line" smooth="yes"/>
      <point x="558" y="147"/>
      <point x="648" y="235"/>
      <point x="648" y="348" type="curve" smooth="yes"/>
      <point x="648" y="823" type="line"/>
      <point x="712" y="807"/>
      <point x="757" y="768"/>
      <point x="783" y="707" type="curve"/>
      <point x="790" y="688"/>
      <point x="794" y="679"/>
      <point x="796" y="679" type="curve" smooth="yes"/>
      <point x="799" y="679"/>
      <point x="804" y="688"/>
      <point x="812" y="707" type="curve" smooth="yes"/>
      <point x="841" y="782"/>
      <point x="913" y="831"/>
      <point x="993" y="831" type="curve" smooth="yes"/>
      <point x="1077" y="831"/>
      <point x="1136" y="793"/>
      <point x="1172" y="717" type="curve" smooth="yes"/>
      <point x="1181" y="698"/>
      <point x="1187" y="688"/>
      <point x="1188" y="688" type="curve" smooth="yes"/>
      <point x="1188" y="688"/>
      <point x="1187" y="698"/>
      <point x="1184" y="720" type="curve" smooth="yes"/>
      <point x="1145" y="990"/>
      <point x="921" y="1199"/>
      <point x="648" y="1222" type="curve"/>
      <point x="648" y="1257"/>
      <point x="624" y="1274"/>
      <point x="600" y="1274" type="curve" smooth="yes"/>
      <point x="575" y="1274"/>
      <point x="551" y="1257"/>
      <point x="551" y="1222" type="curve"/>
      <point x="278" y="1199"/>
      <point x="54" y="990"/>
      <point x="15" y="720" type="curve" smooth="yes"/>
      <point x="12" y="698"/>
      <point x="11" y="688"/>
      <point x="12" y="688" type="curve" smooth="yes"/>
      <point x="12" y="688"/>
      <point x="18" y="698"/>
      <point x="27" y="717" type="curve" smooth="yes"/>
      <point x="63" y="793"/>
      <point x="122" y="831"/>
      <point x="206" y="831" type="curve" smooth="yes"/>
      <point x="286" y="831"/>
      <point x="358" y="782"/>
      <point x="387" y="707" type="curve" smooth="yes"/>
      <point x="395" y="688"/>
      <point x="400" y="679"/>
      <point x="403" y="679" type="curve" smooth="yes"/>
      <point x="405" y="679"/>
      <point x="409" y="688"/>
      <point x="416" y="707" type="curve"/>
      <point x="442" y="768"/>
      <point x="487" y="807"/>
      <point x="551" y="823" type="curve"/>
      <point x="551" y="348" type="line" smooth="yes"/>
      <point x="551" y="290"/>
      <point x="503" y="244"/>
      <point x="445" y="244" type="curve" smooth="yes"/>
      <point x="416" y="244" type="line" smooth="yes"/>
      <point x="358" y="244"/>
      <point x="310" y="290"/>
      <point x="310" y="348" type="curve"/>
      <point x="213" y="348" type="line"/>
      <point x="213" y="238"/>
      <point x="303" y="147"/>
    </contour>
  </outline>
</glyph>
